<svg width="400" height="383" viewBox="0 0 400 383" fill="none" xmlns="http://www.w3.org/2000/svg">
<path d="M63.8549 -17.0381C77.0014 -28.6942 95.6107 -36.8479 111.863 -38.0732L368.031 -57.3852C398.217 -59.6608 406.444 -37.9871 383.834 -15.755L131.434 232.425C117.173 246.448 94.8261 256.107 76.643 256.107L-185.26 256.107C-213.767 256.107 -218.425 233.238 -194.279 211.83L63.8549 -17.0381Z" fill="url(#paint0_linear_544_7579)"/>
<path d="M60.4765 96.3443C73.619 84.7579 92.1455 76.6675 108.328 75.4475L364.63 56.1254C394.816 53.8497 403.043 75.5234 380.433 97.7556L128.033 345.936C113.772 359.959 91.425 369.618 73.2418 369.618L-190.256 369.618C-218.842 369.618 -223.428 346.633 -199.119 325.202L60.4765 96.3443Z" fill="url(#paint1_linear_544_7579)"/>
<defs>
<linearGradient id="paint0_linear_544_7579" x1="236.828" y1="-77.4655" x2="225.518" y2="303.601" gradientUnits="userSpaceOnUse">
<stop stop-color="white" stop-opacity="0"/>
<stop offset="1" stop-color="white" stop-opacity="0.08"/>
</linearGradient>
<linearGradient id="paint1_linear_544_7579" x1="233.427" y1="36.0442" x2="222.117" y2="417.111" gradientUnits="userSpaceOnUse">
<stop stop-color="white" stop-opacity="0"/>
<stop offset="1" stop-color="white" stop-opacity="0.08"/>
</linearGradient>
</defs>
</svg>
