<svg width="26" height="26" viewBox="0 0 26 26" fill="none" xmlns="http://www.w3.org/2000/svg">
<g clip-path="url(#clip0_1466_4668)">
<path d="M25.6973 12.0602C25.3026 11.4226 24.6043 11.0422 23.8295 11.0422H21.8954V7.4944C21.8954 6.63806 21.173 5.94161 20.2851 5.94161H10.8174C10.8035 5.94161 10.7942 5.93764 10.7904 5.93526L9.09599 3.5654C8.79547 3.14526 8.29996 2.89453 7.77032 2.89453H1.61032C0.722244 2.89453 0 3.59119 0 4.44733V21.4666C0 22.343 0.739899 23.0561 1.6496 23.0561H20.8126C21.1111 23.0561 21.369 22.8837 21.4938 22.6336L21.4944 22.6338L25.7885 14.0091C26.1 13.384 26.0657 12.6554 25.6973 12.0602ZM1.61032 4.41797H7.77032C7.81595 4.41797 7.84689 4.438 7.85661 4.45169L9.55362 6.82492C9.84006 7.22562 10.3126 7.46504 10.8174 7.46504H20.2851C20.3383 7.46504 20.3653 7.49004 20.372 7.49897V11.0422H6.58629C5.73134 11.0422 4.95375 11.524 4.60522 12.2698L1.52344 18.8648V4.45189C1.53018 4.44296 1.55716 4.41797 1.61032 4.41797ZM24.4248 13.3301L20.3409 21.5325H1.95845L5.98544 12.9149C6.08304 12.706 6.32465 12.5656 6.58629 12.5656H23.8295C24.0729 12.5656 24.2869 12.6765 24.402 12.8621C24.4666 12.9667 24.523 13.1327 24.4248 13.3301Z" fill="white"/>
</g>
<defs>
<clipPath id="clip0_1466_4668">
<rect width="26" height="26" fill="white"/>
</clipPath>
</defs>
</svg>
