<svg width="26" height="26" viewBox="0 0 26 26" fill="none" xmlns="http://www.w3.org/2000/svg">
<g clip-path="url(#clip0_1466_519)">
<path d="M19.5271 0H6.47299C5.17888 0 4.07947 1.04401 4.07947 2.39352V17.4992C4.07947 19.0112 4.66716 20.4319 5.73468 21.4998L10.0139 25.777C10.1567 25.9198 10.3504 26 10.5524 26H15.4477C15.6497 26 15.8434 25.9198 15.9862 25.777C15.9862 25.777 20.2657 21.4996 20.2654 21.4998L20.2657 21.4995C21.333 20.4319 21.9206 19.0112 21.9206 17.4992V2.39352C21.9206 1.04396 20.8214 0 19.5271 0V0ZM20.3972 17.4992C20.3972 18.6044 19.9679 19.6425 19.1884 20.4224L15.1323 24.4766H10.8678L6.8118 20.4225C6.03216 19.6426 5.60285 18.6044 5.60285 17.4992V2.39352C5.60285 1.90745 5.99671 1.52344 6.47294 1.52344H19.5271C20.0021 1.52344 20.3972 1.90628 20.3972 2.39352V17.4992H20.3972Z" fill="white"/>
<path d="M17.8954 5.71118H8.10474C7.68406 5.71118 7.34302 6.05223 7.34302 6.4729V11.3682C7.34302 11.7888 7.68406 12.1299 8.10474 12.1299H17.8954C18.316 12.1299 18.6571 11.7888 18.6571 11.3682V6.4729C18.6571 6.05223 18.3161 5.71118 17.8954 5.71118ZM17.1336 10.6064H8.86645V7.23462H17.1336V10.6064Z" fill="white"/>
<path d="M11.3683 13.8701H8.1048C7.09522 13.9076 7.09598 15.3564 8.1048 15.3936H11.3684C12.3779 15.3561 12.3771 13.9072 11.3683 13.8701Z" fill="white"/>
<path d="M17.8953 13.8701H14.6318C13.6222 13.9076 13.623 15.3564 14.6318 15.3936H17.8953C18.9049 15.3561 18.9042 13.9072 17.8953 13.8701Z" fill="white"/>
</g>
<defs>
<clipPath id="clip0_1466_519">
<rect width="26" height="26" fill="white"/>
</clipPath>
</defs>
</svg>
