<svg width="26" height="26" viewBox="0 0 26 26" fill="none" xmlns="http://www.w3.org/2000/svg">
<g clip-path="url(#clip0_1532_530)">
<path d="M23.5494 2.45054C20.282 -0.816873 14.9655 -0.816823 11.6981 2.45054C9.46649 4.68218 8.69157 7.97174 9.65748 10.9555L0.223184 20.3899C0.0802852 20.5327 0 20.7265 0 20.9286V25.2382C0 25.6589 0.341098 26 0.76182 26H5.07142C5.27353 26 5.46721 25.9197 5.61016 25.7768L6.68774 24.6992C6.85232 24.5346 6.93266 24.3038 6.90574 24.0725L6.77127 22.9156L8.37515 22.7644C8.73935 22.7301 9.02779 22.4417 9.06212 22.0775L9.21339 20.4734L10.3704 20.6079C10.5865 20.6331 10.8027 20.5647 10.9651 20.4201C11.1274 20.2756 11.2203 20.0685 11.2203 19.8511V18.4324H12.6132C12.8137 18.4324 13.0061 18.3534 13.1488 18.2124L15.0415 16.3415C18.026 17.3089 21.3172 16.5342 23.5495 14.3018C26.8168 11.0345 26.8168 5.71791 23.5494 2.45054ZM22.4721 13.2245C20.5492 15.1473 17.6648 15.7475 15.1239 14.7537C14.8435 14.6441 14.5249 14.7098 14.3108 14.9214L12.3002 16.9088H10.4584C10.0377 16.9088 9.69658 17.2499 9.69658 17.6706V18.9956L8.61595 18.8701C8.41237 18.8464 8.20792 18.9058 8.04862 19.0346C7.88937 19.1636 7.78873 19.3512 7.76948 19.5552L7.60429 21.3066L5.85305 21.4717C5.64901 21.4909 5.46137 21.5915 5.33239 21.7508C5.20345 21.9101 5.14409 22.1146 5.16775 22.3181L5.34965 23.8824L4.75582 24.4764H1.52359V21.2442L11.0754 11.6924C11.2894 11.4784 11.3565 11.1581 11.2462 10.8762C10.2523 8.33523 10.8526 5.45095 12.7754 3.52802C15.4489 0.854693 19.7987 0.854693 22.472 3.52802C25.1453 6.2013 25.1453 10.5512 22.4721 13.2245Z" fill="white"/>
<path d="M21.3947 4.60536C20.5035 3.7142 19.0535 3.71425 18.1625 4.60536C17.2714 5.49647 17.2714 6.94643 18.1625 7.83754C19.0535 8.72865 20.5035 8.72875 21.3947 7.83754C22.2858 6.94643 22.2858 5.49647 21.3947 4.60536ZM20.3173 6.76016C20.0203 7.05718 19.537 7.05723 19.2399 6.76016C18.9429 6.46314 18.9429 5.97986 19.2399 5.68279C19.5377 5.38501 20.0195 5.38501 20.3173 5.68279C20.6151 5.98057 20.615 6.46238 20.3173 6.76016Z" fill="white"/>
</g>
<defs>
<clipPath id="clip0_1532_530">
<rect width="26" height="26" fill="white"/>
</clipPath>
</defs>
</svg>
