<svg width="26" height="26" viewBox="0 0 26 26" fill="none" xmlns="http://www.w3.org/2000/svg">
<path d="M0 0V8.63281H8.63281V0H0ZM6.60156 6.60156H2.03125V2.03125H6.60156V6.60156Z" fill="white"/>
<path d="M5.33203 3.30078H3.30078V5.33203H5.33203V3.30078Z" fill="white"/>
<path d="M17.3672 0V8.63281H26V0H17.3672ZM23.9688 6.60156H19.3984V2.03125H23.9688V6.60156Z" fill="white"/>
<path d="M22.6992 3.30078H20.668V5.33203H22.6992V3.30078Z" fill="white"/>
<path d="M0 17.3672V26H8.63281V17.3672H0ZM6.60156 23.9688H2.03125V19.3984H6.60156V23.9688Z" fill="white"/>
<path d="M5.33203 20.668H3.30078V22.6992H5.33203V20.668Z" fill="white"/>
<path d="M4.0625 10.0039H2.03125V12.0352H4.0625V10.0039Z" fill="white"/>
<path d="M6.09375 14.0664V12.0352H4.0625V14.0664H6.04297V16.0977H8.07422V14.0664H6.09375Z" fill="white"/>
<path d="M16.25 3.91016H14.2188V5.94141H16.25V3.91016Z" fill="white"/>
<path d="M12.1875 2.03125H10.1562V5.94141H12.1875V2.03125Z" fill="white"/>
<path d="M14.2188 0H12.1875V2.03125H14.2188V0Z" fill="white"/>
<path d="M12.1875 5.94141V7.97266H10.1562V10.0039H14.2188V5.94141H12.1875Z" fill="white"/>
<path d="M14.2188 18.0273V16.0469H12.1875V12.0352H10.1562V16.0977H12.1875V18.0781H14.2188V20.0586H18.2812V18.0273H14.2188Z" fill="white"/>
<path d="M16.25 10.0039H14.2188V14.0664H16.25V10.0039Z" fill="white"/>
<path d="M23.9688 11.9844V10.0039H20.2617V12.0352H18.2812V14.0664H20.3125V16.0469H26V11.9844H23.9688ZM23.9688 14.0156H20.3125V12.0352H23.9688V14.0156Z" fill="white"/>
<path d="M26 18.0273H23.9688V22.0898H26V18.0273Z" fill="white"/>
<path d="M18.2812 14.0664H16.25V16.0977H18.2812V14.0664Z" fill="white"/>
<path d="M20.3125 20.0586H18.2812V22.0898H20.3125V20.0586Z" fill="white"/>
<path d="M22.3438 18.0273H20.3125V20.0586H22.3438V18.0273Z" fill="white"/>
<path d="M20.3125 22.0898V26H22.3438V24.1211H23.9688V22.0898H20.3125Z" fill="white"/>
<path d="M12.1875 18.0781H10.1562V21.9375H12.1875V18.0781Z" fill="white"/>
<path d="M16.25 23.9688V21.9375H12.1875V26H14.2188V23.9688H16.1992V26H18.2305V23.9688H16.25Z" fill="white"/>
<path d="M10.1562 10.0039H6.09375V12.0352H10.1562V10.0039Z" fill="white"/>
<path d="M2.03125 12.0352H0V16.0977H2.03125V12.0352Z" fill="white"/>
</svg>
