<svg width="26" height="26" viewBox="0 0 26 26" fill="none" xmlns="http://www.w3.org/2000/svg">
<path fill-rule="evenodd" clip-rule="evenodd" d="M21.8885 20.1508C23.3405 18.3482 24.2554 16.0949 24.3901 13.6337H20.2762C20.2112 15.364 19.8794 17.0917 19.2759 18.7014C20.192 19.0935 21.069 19.5766 21.8885 20.1508ZM21.0325 21.0998C20.3234 20.6159 19.5681 20.2054 18.7805 19.8681C18.0043 21.4935 16.9262 22.9569 15.5403 24.1235C17.6546 23.6427 19.5455 22.5746 21.0325 21.0998ZM18.0919 18.2523C18.6368 16.7995 18.9437 15.2285 19.0079 13.6337H13.6337V17.4485C15.1498 17.5068 16.6571 17.7748 18.0919 18.2523ZM13.6337 18.7169C14.9784 18.773 16.3146 19.0078 17.589 19.4212C16.6881 21.2635 15.366 22.8493 13.6337 23.9544V18.7169ZM12.3662 17.4485V13.6337H6.99202C7.05626 15.2285 7.36314 16.7995 7.90794 18.2523C9.34286 17.7748 10.8501 17.5068 12.3662 17.4485ZM8.41084 19.4212C9.6853 19.0078 11.0215 18.773 12.3662 18.7169V23.9545C10.634 22.8494 9.31175 21.2636 8.41084 19.4212ZM6.72395 18.7016C6.12055 17.0917 5.78875 15.364 5.72367 13.6337H1.60976C1.74454 16.0949 2.65946 18.3482 4.11147 20.1508C4.931 19.5766 5.8079 19.0935 6.72395 18.7016ZM4.96742 21.1C5.67645 20.6161 6.43181 20.2054 7.21948 19.8681C7.99552 21.4935 9.0736 22.9567 10.4593 24.1235C8.34524 23.6427 6.4544 22.5746 4.96742 21.1ZM20.2762 12.3662H24.3901C24.2604 9.99668 23.4075 7.81968 22.0484 6.05222C21.2128 6.65532 20.3153 7.16197 19.3756 7.57216C19.916 9.1033 20.2148 10.7337 20.2762 12.3662ZM15.5406 1.8764C17.7435 2.37744 19.704 3.51608 21.2177 5.08798C20.492 5.60237 19.7152 6.03817 18.903 6.39537C18.1194 4.66465 17.0009 3.10589 15.5406 1.8764ZM13.6337 2.04546C15.4513 3.20499 16.8174 4.8937 17.719 6.85262C16.4057 7.29271 15.0241 7.54177 13.6337 7.5998V2.04546ZM12.3662 2.04547V7.5998C10.9758 7.5418 9.59431 7.29276 8.28087 6.85267C9.18256 4.89372 10.5486 3.20501 12.3662 2.04547ZM12.3662 8.86832C10.8141 8.80857 9.27111 8.52913 7.80558 8.03C7.32459 9.4031 7.05212 10.8742 6.99202 12.3662H12.3662V8.86832ZM10.4595 1.87636C8.99917 3.10586 7.88049 4.66466 7.09689 6.39543C6.28468 6.03824 5.50789 5.60243 4.78211 5.08803C6.29592 3.51607 8.2565 2.37739 10.4595 1.87636ZM6.62436 7.57223C5.68463 7.16204 4.78709 6.6554 3.95152 6.05228C2.5924 7.81974 1.7395 9.99671 1.60976 12.3662H5.72367C5.78506 10.7337 6.08394 9.10335 6.62436 7.57223ZM18.1943 8.02994C16.7288 8.52907 15.186 8.80853 13.6337 8.86831V12.3662H19.0079C18.9478 10.8742 18.6754 9.40305 18.1943 8.02994ZM13.6337 25.6593C20.1295 25.3395 25.3395 20.1295 25.6593 13.6337H25.6749V13V12.3662H25.6593C25.3396 5.87043 20.1296 0.660416 13.6337 0.340527V0.324951H13H12.3662V0.340513C5.87038 0.660346 0.660346 5.87038 0.340513 12.3662H0.324951V13V13.6337H0.340527C0.660416 20.1296 5.87043 25.3396 12.3662 25.6593V25.6749H13H13.6337V25.6593Z" fill="white"/>
</svg>
