<svg width="17" height="17" viewBox="0 0 17 17" fill="none" xmlns="http://www.w3.org/2000/svg">
<path fill-rule="evenodd" clip-rule="evenodd" d="M9.00508 4.86177C9.25404 4.61281 9.65768 4.61281 9.90664 4.86177L13.0941 8.04927C13.3431 8.29823 13.3431 8.70187 13.0941 8.95083L9.90664 12.1383C9.65768 12.3873 9.25404 12.3873 9.00508 12.1383C8.75612 11.8894 8.75612 11.4857 9.00508 11.2368L11.1043 9.13755H1.48711C1.13503 9.13755 0.849609 8.85213 0.849609 8.50005C0.849609 8.14797 1.13503 7.86255 1.48711 7.86255H11.1043L9.00508 5.76333C8.75612 5.51437 8.75612 5.11073 9.00508 4.86177Z" fill="white"/>
<rect x="13.8652" y="4.67505" width="1.275" height="7.65" rx="0.6375" fill="white"/>
</svg>
