<svg width="10" height="10" viewBox="0 0 10 10" fill="none" xmlns="http://www.w3.org/2000/svg">
<path d="M8.28038 5.78125H1.48448C1.44151 5.78125 1.40636 5.81641 1.40636 5.85938V6.44531C1.40636 6.48828 1.44151 6.52344 1.48448 6.52344H7.39464L5.98546 8.31055C5.94542 8.36133 5.98155 8.4375 6.04698 8.4375H6.75499C6.80284 8.4375 6.84776 8.41602 6.87804 8.37793L8.52647 6.28711C8.68761 6.08203 8.5421 5.78125 8.28038 5.78125ZM8.51573 3.47656H2.60558L4.01476 1.68945C4.05479 1.63867 4.01866 1.5625 3.95323 1.5625H3.24522C3.19737 1.5625 3.15245 1.58398 3.12218 1.62207L1.47374 3.71289C1.31261 3.91797 1.45811 4.21875 1.71886 4.21875H8.51573C8.5587 4.21875 8.59386 4.18359 8.59386 4.14062V3.55469C8.59386 3.51172 8.5587 3.47656 8.51573 3.47656Z" fill="#E1DFF0"/>
</svg>
