<svg width="18" height="18" viewBox="0 0 18 18" fill="none" xmlns="http://www.w3.org/2000/svg">
<path fill-rule="evenodd" clip-rule="evenodd" d="M4.28684 6.38902C4.40688 6.26799 4.5696 6.20001 4.73925 6.20001C4.90891 6.20001 5.07163 6.26799 5.19167 6.38902L9.00731 10.2409L12.823 6.38902C12.9443 6.27486 13.1048 6.21271 13.2707 6.21567C13.4366 6.21862 13.5948 6.28645 13.7121 6.40486C13.8294 6.52327 13.8966 6.68302 13.8995 6.85045C13.9024 7.01788 13.8409 7.17992 13.7278 7.30244L9.45973 11.611C9.33969 11.732 9.17697 11.8 9.00731 11.8C8.83766 11.8 8.67494 11.732 8.5549 11.611L4.28684 7.30244C4.16695 7.18126 4.09961 7.01699 4.09961 6.84573C4.09961 6.67446 4.16695 6.5102 4.28684 6.38902Z" fill="white"/>
</svg>
