<svg width="18" height="18" viewBox="0 0 18 18" fill="none" xmlns="http://www.w3.org/2000/svg">
<path fill-rule="evenodd" clip-rule="evenodd" d="M6.3892 13.7128C6.26818 13.5928 6.2002 13.43 6.2002 13.2604C6.2002 13.0907 6.26818 12.928 6.3892 12.808L10.2411 8.99232L6.3892 5.17668C6.27504 5.05531 6.21289 4.8948 6.21585 4.72894C6.2188 4.56308 6.28663 4.40483 6.40504 4.28754C6.52345 4.17024 6.6832 4.10305 6.85063 4.10012C7.01806 4.0972 7.18011 4.15876 7.30262 4.27185L11.6112 8.53991C11.7322 8.65995 11.8002 8.82267 11.8002 8.99232C11.8002 9.16198 11.7322 9.3247 11.6112 9.44473L7.30262 13.7128C7.18144 13.8327 7.01718 13.9 6.84591 13.9C6.67465 13.9 6.51038 13.8327 6.3892 13.7128Z" fill="white"/>
</svg>
