<svg width="20" height="20" viewBox="0 0 20 20" fill="none" xmlns="http://www.w3.org/2000/svg">
<path opacity="0.2" d="M18.3332 9.9999C18.3332 14.6032 14.6023 18.3332 9.99984 18.3332C5.39734 18.3332 1.6665 14.6032 1.6665 9.9999C1.6665 5.39823 5.39734 1.66656 9.99984 1.66656C14.6023 1.66656 18.3332 5.39823 18.3332 9.9999Z" fill="#FFA877"/>
<path fill-rule="evenodd" clip-rule="evenodd" d="M10.7249 10.5256C10.7249 10.9273 10.3974 11.2548 9.99577 11.2548C9.5941 11.2548 9.2666 10.9273 9.2666 10.5256V6.84226C9.2666 6.4406 9.5941 6.1131 9.99577 6.1131C10.3974 6.1131 10.7249 6.4406 10.7249 6.84226V10.5256ZM9.27076 13.1696C9.27076 12.7679 9.5966 12.4404 9.99576 12.4404C10.4066 12.4404 10.7333 12.7679 10.7333 13.1696C10.7333 13.5712 10.4066 13.8987 10.0041 13.8987C9.59993 13.8987 9.27076 13.5712 9.27076 13.1696Z" fill="#FFA877"/>
</svg>
