<svg width="20" height="20" viewBox="0 0 20 20" fill="none" xmlns="http://www.w3.org/2000/svg">
<path fill-rule="evenodd" clip-rule="evenodd" d="M14.2803 11.2017C14.5732 11.4978 14.5732 11.978 14.2803 12.2742L10.5303 16.066C10.2374 16.3621 9.76256 16.3621 9.46967 16.066L5.71967 12.2742C5.42678 11.978 5.42678 11.4978 5.71967 11.2017C6.01256 10.9055 6.48744 10.9055 6.78033 11.2017L9.25 13.6989V2.25836C9.25 1.83953 9.58579 1.5 10 1.5C10.4142 1.5 10.75 1.83953 10.75 2.25836V13.6989L13.2197 11.2017C13.5126 10.9055 13.9874 10.9055 14.2803 11.2017Z" fill="white"/>
<rect x="14.5" y="16.9833" width="1.51673" height="9" rx="0.758364" transform="rotate(90 14.5 16.9833)" fill="white"/>
</svg>
