<svg width="36" height="29" viewBox="0 0 36 29" fill="none" xmlns="http://www.w3.org/2000/svg">
<path d="M11.75 20.5L13.5125 22.2625L16.75 19.0375V28.5H19.25V19.0375L22.4875 22.2625L24.25 20.5L18 14.25L11.75 20.5Z" fill="white"/>
<path d="M27.3749 25.5002H26.7499V23.0002H27.3749C28.8668 23.0599 30.3212 22.5245 31.4183 21.5118C32.5154 20.4991 33.1653 19.092 33.2249 17.6002C33.2846 16.1084 32.7492 14.6539 31.7365 13.5568C30.7238 12.4597 29.3168 11.8099 27.8249 11.7502H26.7499L26.6249 10.7252C26.3476 8.62076 25.3148 6.68887 23.7188 5.28942C22.1228 3.88997 20.0726 3.11838 17.9499 3.11838C15.8273 3.11838 13.777 3.88997 12.1811 5.28942C10.5851 6.68887 9.55227 8.62076 9.27495 10.7252L9.24994 11.7502H8.17495C6.6831 11.8099 5.27607 12.4597 4.26337 13.5568C3.25067 14.6539 2.71527 16.1084 2.77495 17.6002C2.83462 19.092 3.48448 20.4991 4.58157 21.5118C5.67866 22.5245 7.1331 23.0599 8.62494 23.0002H9.24994V25.5002H8.62494C6.62045 25.4875 4.6914 24.7343 3.20868 23.3853C1.72595 22.0364 0.794216 20.1869 0.592608 18.1925C0.391 16.1982 0.933751 14.1997 2.11651 12.5813C3.29927 10.9629 5.03855 9.8388 6.99994 9.4252C7.53958 6.90835 8.92599 4.65266 10.9278 3.03453C12.9297 1.4164 15.4259 0.533691 17.9999 0.533691C20.574 0.533691 23.0702 1.4164 25.0721 3.03453C27.0739 4.65266 28.4603 6.90835 28.9999 9.4252C30.9613 9.8388 32.7006 10.9629 33.8834 12.5813C35.0661 14.1997 35.6089 16.1982 35.4073 18.1925C35.2057 20.1869 34.2739 22.0364 32.7912 23.3853C31.3085 24.7343 29.3794 25.4875 27.3749 25.5002Z" fill="white"/>
</svg>
