<svg viewBox="0 0 128 31" fill="none" xmlns="http://www.w3.org/2000/svg">
<path d="M22.1549 8.67356L16.6861 3.1385C16.378 2.82702 15.9574 2.64729 15.5189 2.64729H6.47743C4.90137 2.64729 3.6275 3.93523 3.6275 5.52865V25.3627C3.6275 26.9562 4.90137 28.2441 6.47743 28.2441H7.88162V25.5424C7.88162 23.7513 9.31548 22.2956 11.093 22.2956H11.2411V24.6798H11.093C10.619 24.6798 10.2457 25.0631 10.2457 25.5364V28.2379H16.0225V25.5364C16.0225 25.0572 15.6374 24.6798 15.1634 24.6798H15.0212V22.2956H15.1634C16.935 22.2956 18.3807 23.7453 18.3807 25.5424V28.2441H19.7849C21.3609 28.2441 22.6348 26.9562 22.6348 25.3627V9.85367C22.6348 9.41039 22.463 8.98508 22.1549 8.67356ZM14.3102 24.9493C14.3102 25.6083 13.7829 26.1415 13.1312 26.1415C12.4794 26.1415 11.9521 25.6083 11.9521 24.9493V18.348C11.9521 17.689 12.4794 17.1559 13.1312 17.1559C13.7829 17.1559 14.3102 17.689 14.3102 18.348V24.9493ZM18.3807 18.0005C18.3807 19.7917 16.935 21.2533 15.1634 21.2533H15.0212V18.8691H15.1634C15.6374 18.8691 16.0225 18.4798 16.0225 18.0005V16.3592C16.0225 15.7002 16.5499 15.1671 17.2016 15.1671C17.8534 15.1671 18.3807 15.7002 18.3807 16.3592V18.0005ZM18.3807 11.4171C18.3807 12.0821 17.8534 12.6092 17.2016 12.6092C16.5499 12.6092 16.0225 12.0821 16.0225 11.4171V9.77581C16.0225 9.29656 15.6374 8.91918 15.1634 8.91918H11.093C10.619 8.91918 10.2457 9.30256 10.2457 9.77581V18.0005C10.2457 18.4798 10.6249 18.8691 11.093 18.8691H11.2411V21.2533H11.093C9.32141 21.2533 7.88162 19.7917 7.88162 18.0005V9.7818C7.88162 7.99067 9.31548 6.53503 11.093 6.53503H15.1634C16.935 6.53503 18.3807 7.9847 18.3807 9.7818V11.4231V11.4171Z" fill="url(#paint0_linear_3903_11366)"/>
<path d="M38.2922 23.8823C38.3088 24.0363 38.2209 24.1849 38.0727 24.2398C37.5354 24.4268 36.9759 24.5643 36.3944 24.6524C35.7253 24.7513 34.9519 24.8008 34.069 24.8008C32.9009 24.8008 31.941 24.6744 31.195 24.4268C30.4602 24.1573 29.8841 23.7229 29.4674 23.1234C29.0504 22.5074 28.7599 21.6714 28.5898 20.6154C28.4252 19.5429 28.3376 18.2064 28.3376 16.6004C28.3376 14.9944 28.4199 13.6139 28.5898 12.5635C28.7706 11.491 29.0834 10.655 29.5167 10.0555C29.95 9.43947 30.5478 8.99948 31.3156 8.75199C32.0999 8.49899 33.0981 8.37799 34.3158 8.37799C34.6668 8.37799 35.0672 8.40548 35.5171 8.45498C35.9831 8.48798 36.433 8.54849 36.8663 8.63099C37.1844 8.68048 37.4695 8.74097 37.711 8.81248C37.8699 8.86198 37.9741 9.01598 37.9468 9.18097L37.722 10.6165C37.6944 10.8035 37.5135 10.9245 37.327 10.886C37.0033 10.82 36.6578 10.7595 36.2904 10.71C35.7912 10.644 35.314 10.5945 34.8643 10.5615C34.4146 10.5285 34.047 10.512 33.7619 10.512C32.7966 10.512 32.0946 10.6275 31.6612 10.864C31.2279 11.084 31.0085 11.601 31.0085 12.4204V22.0839C31.0085 22.2379 31.1073 22.3699 31.2553 22.4084C31.6173 22.4964 32.0013 22.5679 32.407 22.6229C32.9226 22.6889 33.4492 22.7219 33.9813 22.7219C34.6834 22.7219 35.3743 22.6614 36.0544 22.5459C36.6249 22.4524 37.1678 22.3314 37.6944 22.1939C37.8865 22.1444 38.0784 22.2709 38.1057 22.4689L38.2759 23.8823H38.2922Z" fill="#C6C6C8"/>
<path d="M40.6616 24.0911V8.25123C40.6616 8.08073 40.7931 7.93772 40.9633 7.92122L42.7568 7.77273C42.9487 7.75623 43.1132 7.91023 43.1132 8.10274V12.1122C43.1132 12.3652 43.382 12.5192 43.6015 12.3982C43.9962 12.1727 44.4185 12.0022 44.8628 11.8867C45.5156 11.7217 46.2724 11.6337 47.139 11.6337C48.3073 11.6337 49.1903 11.8152 49.7881 12.1837C50.386 12.5357 50.6877 13.0637 50.6877 13.7622V24.0911C50.6877 24.2726 50.5395 24.4211 50.3586 24.4211H48.5158C48.3347 24.4211 48.1865 24.2726 48.1865 24.0911V14.0207C48.1865 13.8392 48.0386 13.6907 47.8574 13.6907H45.2851C44.4678 13.6907 43.9086 13.7897 43.6125 13.9932C43.3107 14.1912 43.1625 14.5762 43.1625 15.1482V24.0966C43.1625 24.2781 43.0146 24.4266 42.8335 24.4266H40.9906C40.8097 24.4266 40.6616 24.2781 40.6616 24.0966V24.0911Z" fill="#C6C6C8"/>
<path d="M63.3245 13.0857C63.0394 12.5688 62.5568 12.2002 61.8767 11.9802C61.2075 11.7437 60.308 11.6283 59.1782 11.6283C58.613 11.6283 58.0208 11.6612 57.401 11.7272C56.7868 11.7767 56.2 11.8592 55.6514 11.9802C55.2127 12.0738 54.8178 12.1783 54.4667 12.2882C54.3132 12.3377 54.2199 12.4972 54.2473 12.6567L54.4611 13.8612C54.4941 14.0482 54.6806 14.1637 54.8671 14.1197C55.4813 13.9657 56.0957 13.8447 56.6989 13.7567C57.4176 13.6577 58.0975 13.6082 58.7502 13.6082C59.6828 13.6082 60.4452 13.6797 61.032 13.8172C61.1799 13.8502 61.2732 13.9877 61.2732 14.1362V16.9137H60.9002C59.3151 16.9137 58.0428 16.9632 57.0719 17.0622C56.1067 17.1447 55.3717 17.3317 54.8727 17.6122C54.3898 17.8817 54.0664 18.2832 53.8962 18.8167C53.7317 19.3337 53.644 20.0267 53.644 20.8957C53.644 22.2487 53.9348 23.2221 54.5216 23.8052C55.1195 24.3717 56.1067 24.6577 57.4723 24.6577C58.4048 24.6577 59.2329 24.5422 59.9459 24.3056C60.5548 24.0967 61.1197 23.7942 61.6409 23.3982C61.8054 23.2716 62.0356 23.3157 62.1345 23.4972L62.5292 24.2287C62.5841 24.3332 62.6993 24.3991 62.8199 24.3991H63.4451C63.6263 24.3991 63.7742 24.2507 63.7742 24.0691V15.1427C63.7742 14.2737 63.6263 13.5862 63.3245 13.0857ZM60.8509 22.4412C60.5821 22.6392 60.0612 22.7437 59.2768 22.7437H56.2546C56.0737 22.7437 55.9256 22.5952 55.9256 22.4137V20.0102C55.9256 19.4437 56.0681 19.0587 56.3535 18.8552C56.6386 18.6572 57.1706 18.5527 57.9549 18.5527H60.9498C61.1306 18.5527 61.2788 18.7012 61.2788 18.8827V21.2862C61.2788 21.8527 61.1363 22.2377 60.8509 22.4412Z" fill="#C6C6C8"/>
<path d="M67.8824 12.0193L69.7253 11.7443C69.9225 11.7168 70.1036 11.8708 70.1036 12.0688V24.0972C70.1036 24.2787 69.9555 24.4272 69.7746 24.4272H67.9317C67.7506 24.4272 67.6027 24.2787 67.6027 24.0972V12.3438C67.6027 12.1788 67.7233 12.0413 67.8824 12.0193Z" fill="#C6C6C8"/>
<path d="M68.875 9.70336C68.2608 9.70336 67.8441 9.60436 67.6246 9.40087C67.4271 9.18087 67.3229 8.78489 67.3229 8.19637C67.3229 7.60789 67.4325 7.18439 67.6466 6.9699C67.8658 6.7499 68.2718 6.6454 68.8696 6.6454C69.4674 6.6454 69.8458 6.75539 70.0433 6.9699C70.2628 7.1899 70.367 7.5969 70.367 8.19637C70.367 8.79588 70.2681 9.18087 70.0653 9.40087C69.8678 9.59888 69.4674 9.70336 68.8642 9.70336H68.875Z" fill="#C6C6C8"/>
<path d="M74.0637 24.0914V12.2115C74.0637 12.03 74.2119 11.8815 74.3928 11.8815H75.018C75.1388 11.8815 75.2484 11.9475 75.3087 12.052L75.7091 12.7945C75.8023 12.9705 76.0328 13.0145 76.1973 12.899C76.7458 12.503 77.3381 12.2005 77.9689 12.008C78.7203 11.755 79.5759 11.634 80.5468 11.634C81.7149 11.634 82.5978 11.8155 83.1957 12.184C83.7935 12.536 84.0952 13.064 84.0952 13.7625V24.0914C84.0952 24.2729 83.9471 24.4214 83.7662 24.4214H81.9233C81.7422 24.4214 81.5943 24.2729 81.5943 24.0914V14.021C81.5943 13.8395 81.4461 13.691 81.2652 13.691H78.6929C77.8756 13.691 77.3161 13.79 77.02 13.9935C76.7239 14.197 76.5703 14.5765 76.5703 15.1485V24.0969C76.5703 24.2784 76.4221 24.4269 76.2412 24.4269H74.3982C74.2173 24.4269 74.0691 24.2784 74.0691 24.0969L74.0637 24.0914Z" fill="#C6C6C8"/>
<path d="M87.4245 24.0919V9.07703C87.4245 8.89552 87.5724 8.74702 87.7536 8.74702H90.8194C91.0003 8.74702 91.1485 8.89552 91.1485 9.07703V21.0064C91.1485 21.1879 91.2967 21.3364 91.4776 21.3364H96.0958C96.2767 21.3364 96.4249 21.4849 96.4249 21.6664V24.0919C96.4249 24.2734 96.2767 24.4219 96.0958 24.4219H87.7536C87.5724 24.4219 87.4245 24.2734 87.4245 24.0919Z" fill="#C6C6C8"/>
<path d="M98.6244 12.2443L101.69 11.8318C101.888 11.8043 102.063 11.9583 102.063 12.1564V24.0857C102.063 24.2673 101.915 24.4157 101.734 24.4157H98.6681C98.4872 24.4157 98.339 24.2673 98.339 24.0857V12.5743C98.339 12.4093 98.4598 12.2718 98.6244 12.2498V12.2443Z" fill="#C6C6C8"/>
<path d="M100.215 10.2537C99.4141 10.2537 98.8656 10.1107 98.5639 9.8247C98.2787 9.53871 98.1362 8.99969 98.1362 8.19671C98.1362 7.39371 98.2787 6.82721 98.5639 6.54121C98.8656 6.23872 99.4251 6.09023 100.237 6.09023C101.048 6.09023 101.553 6.23872 101.838 6.54121C102.14 6.82721 102.288 7.37721 102.288 8.19671C102.288 9.01619 102.146 9.54419 101.86 9.8247C101.575 10.1107 101.027 10.2537 100.209 10.2537H100.215Z" fill="#C6C6C8"/>
<path d="M104.943 15.4954C104.943 14.1259 105.36 13.1194 106.193 12.4869C107.027 11.8324 108.327 11.5079 110.093 11.5079C110.943 11.5079 111.76 11.5574 112.544 11.6564C113.236 11.7279 113.899 11.8379 114.541 11.9864C114.711 12.0249 114.821 12.1954 114.793 12.3659L114.453 14.3404C114.42 14.5274 114.239 14.6484 114.053 14.6044C113.729 14.5274 113.373 14.4669 112.994 14.4174C112.479 14.3514 111.941 14.3184 111.393 14.3184C110.943 14.3184 110.493 14.3459 110.043 14.3954C109.72 14.4229 109.429 14.4614 109.171 14.5109C109.018 14.5439 108.919 14.6814 108.919 14.8354V16.2379C108.919 16.4029 109.045 16.5459 109.215 16.5624C110.384 16.7054 111.36 16.8759 112.149 17.0794C113 17.2774 113.669 17.5414 114.151 17.8548C114.634 18.1739 114.974 18.5644 115.177 19.0318C115.375 19.4828 115.479 20.0438 115.479 20.7093C115.479 21.6608 115.287 22.4473 114.903 23.0688C114.519 23.6683 113.905 24.1138 113.055 24.3998C112.204 24.6693 111.097 24.8013 109.731 24.8013C108.881 24.8013 108.02 24.7353 107.153 24.6033C106.407 24.4878 105.689 24.3228 105.009 24.1138C104.849 24.0643 104.751 23.8993 104.783 23.7343L105.184 21.6058C105.222 21.4023 105.431 21.2923 105.623 21.3638C106.758 21.7873 107.987 21.9963 109.308 21.9963C109.659 21.9963 110 21.9798 110.334 21.9468C110.614 21.9083 110.926 21.8533 111.272 21.7763C111.426 21.7433 111.535 21.6058 111.535 21.4518V20.0054C111.535 19.8403 111.409 19.6974 111.245 19.6753C109.994 19.5213 108.968 19.3564 108.162 19.1859C107.312 18.9879 106.654 18.7349 106.188 18.4323C105.721 18.1134 105.398 17.7229 105.211 17.2554C105.047 16.7879 104.959 16.1994 104.959 15.5009L104.943 15.4954Z" fill="#C6C6C8"/>
<path d="M124.474 14.0101V12.2116C124.474 12.0301 124.326 11.8816 124.145 11.8816H122.801C122.62 11.8816 122.472 11.7331 122.472 11.5516V9.02166C122.472 8.80717 122.269 8.64766 122.06 8.70267L119.017 9.46716C118.868 9.50565 118.77 9.63766 118.77 9.78616V11.5571C118.77 11.7386 118.622 11.8871 118.441 11.8871H117.574C117.393 11.8871 117.245 12.0356 117.245 12.2171V14.0156C117.245 14.1971 117.393 14.3456 117.574 14.3456H118.441C118.622 14.3456 118.77 14.4941 118.77 14.6756V22.447C118.77 23.2335 118.967 23.811 119.368 24.1795C119.784 24.548 120.421 24.7295 121.271 24.7295C121.622 24.7295 122.011 24.702 122.444 24.6525C122.823 24.6085 123.234 24.5425 123.673 24.4545C123.816 24.427 123.925 24.3005 123.936 24.152L124.09 22.2051C124.106 22.0181 123.964 21.8586 123.777 21.8476C123.591 21.8365 123.41 21.8256 123.251 21.8146H123.229C123.075 21.7926 122.916 21.7706 122.751 21.7485C122.587 21.7266 122.461 21.5891 122.461 21.4186V14.6701C122.461 14.4886 122.609 14.3401 122.79 14.3401H124.134C124.315 14.3401 124.463 14.1916 124.463 14.0101H124.474Z" fill="#C6C6C8"/>
<defs>
<linearGradient id="paint0_linear_3903_11366" x1="13.1312" y1="2.64729" x2="13.1312" y2="28.2441" gradientUnits="userSpaceOnUse">
<stop stop-color="white"/>
<stop offset="1" stop-color="#B3B3B3"/>
</linearGradient>
</defs>
</svg>
