<svg width="18" height="18" viewBox="0 0 18 18" fill="none" xmlns="http://www.w3.org/2000/svg">
<path d="M6.7498 12.15L4.1248 9.52501C4.05616 9.45553 3.97441 9.40036 3.88429 9.36271C3.79416 9.32506 3.69747 9.30568 3.5998 9.30568C3.50213 9.30568 3.40543 9.32506 3.31531 9.36271C3.22519 9.40036 3.14344 9.45553 3.0748 9.52501C3.00532 9.59365 2.95015 9.6754 2.91251 9.76552C2.87486 9.85564 2.85547 9.95234 2.85547 10.05C2.85547 10.1477 2.87486 10.2444 2.91251 10.3345C2.95015 10.4246 3.00532 10.5064 3.0748 10.575L6.2173 13.7175C6.5098 14.01 6.9823 14.01 7.2748 13.7175L15.2248 5.77501C15.2943 5.70636 15.3494 5.62461 15.3871 5.53449C15.4247 5.44437 15.4441 5.34767 15.4441 5.25001C15.4441 5.15234 15.4247 5.05564 15.3871 4.96552C15.3494 4.8754 15.2943 4.79365 15.2248 4.72501C15.1562 4.65553 15.0744 4.60036 14.9843 4.56271C14.8942 4.52506 14.7975 4.50568 14.6998 4.50568C14.6021 4.50568 14.5054 4.52506 14.4153 4.56271C14.3252 4.60036 14.2434 4.65553 14.1748 4.72501L6.7498 12.15Z" fill="#37D388"/>
</svg>
