<svg width="22" height="22" viewBox="0 0 22 22" fill="none" xmlns="http://www.w3.org/2000/svg">
<path d="M11.0753 6.36212H20.9384C21.5972 7.77066 21.9649 9.34218 21.9649 11C21.9649 17.0557 17.0559 21.9646 11.0003 21.9646C10.7579 21.9646 10.5171 21.9566 10.2786 21.9412L9.24121 15.7329" fill="#FCBD00"/>
<path d="M14.3303 12.8544C14.4785 12.6765 14.8479 13.6003 14.9663 13.4047C14.9828 13.3772 14.9995 13.3492 15.016 13.3211L10.278 21.9411C4.55867 21.5694 0.0351562 16.8131 0.0351562 11C0.0351562 8.65759 0.769444 6.48679 2.02127 4.70538L6.93482 13.2349" fill="#16A663"/>
<path d="M20.9384 6.36211L11.7365 8.81314L11.1855 5.03876L20.9384 6.36211Z" fill="#FD9F37"/>
<path d="M20.938 6.36208H11.0709C10.9971 6.36094 10.9228 6.36149 10.8484 6.36375L6.6514 12.6144C6.73087 12.8294 6.82582 13.0365 6.93503 13.2349L6.61652 12.6819L2.02148 4.70532C4.00479 1.88084 7.28674 0.0354004 11 0.0354004C15.3977 0.0354004 19.191 2.62484 20.938 6.36208Z" fill="#ED402D"/>
<path d="M10.9998 15.3465C13.4004 15.3465 15.3464 13.4005 15.3464 11C15.3464 8.59945 13.4004 6.65344 10.9998 6.65344C8.59933 6.65344 6.65332 8.59945 6.65332 11C6.65332 13.4005 8.59933 15.3465 10.9998 15.3465Z" fill="#4192CF"/>
<path d="M10.2783 21.9412L11.7572 14.7416L14.9665 13.4048L10.2783 21.9412Z" fill="#12945A"/>
<path d="M7.52523 9.55657L6.6514 12.6144L6.61652 12.6818L2.02148 4.70532L7.52523 9.55657Z" fill="#E1382A"/>
<path d="M11.0004 15.6665C8.42734 15.6665 6.33398 13.5731 6.33398 11C6.33398 8.4269 8.42739 6.3335 11.0004 6.3335C13.5735 6.3335 15.667 8.4269 15.667 11C15.667 13.5731 13.5735 15.6665 11.0004 15.6665ZM11.0004 7.32626C8.97472 7.32626 7.32675 8.97428 7.32675 11C7.32675 13.0257 8.97477 14.6737 11.0004 14.6737C13.0261 14.6737 14.6742 13.0257 14.6742 11C14.6741 8.97428 13.0262 7.32626 11.0004 7.32626Z" fill="white"/>
</svg>
