<svg width="10" height="10" viewBox="0 0 10 10" fill="none" xmlns="http://www.w3.org/2000/svg">
<path d="M5.70432 4.99957L7.85224 2.85634C7.9463 2.76227 7.99915 2.63467 7.99915 2.50163C7.99915 2.36859 7.9463 2.241 7.85224 2.14692C7.75818 2.05285 7.63061 2 7.49759 2C7.36456 2 7.23699 2.05285 7.14293 2.14692L5 4.29515L2.85707 2.14692C2.76301 2.05285 2.63544 2 2.50241 2C2.36939 2 2.24182 2.05285 2.14776 2.14692C2.0537 2.241 2.00085 2.36859 2.00085 2.50163C2.00085 2.63467 2.0537 2.76227 2.14776 2.85634L4.29568 4.99957L2.14776 7.14281C2.10094 7.18925 2.06378 7.24451 2.03842 7.30539C2.01306 7.36626 2 7.43156 2 7.49752C2 7.56347 2.01306 7.62877 2.03842 7.68965C2.06378 7.75052 2.10094 7.80578 2.14776 7.85222C2.19419 7.89905 2.24944 7.93622 2.31031 7.96158C2.37118 7.98694 2.43647 8 2.50241 8C2.56836 8 2.63365 7.98694 2.69452 7.96158C2.75539 7.93622 2.81063 7.89905 2.85707 7.85222L5 5.70399L7.14293 7.85222C7.18937 7.89905 7.24461 7.93622 7.30548 7.96158C7.36635 7.98694 7.43164 8 7.49759 8C7.56353 8 7.62882 7.98694 7.68969 7.96158C7.75056 7.93622 7.80581 7.89905 7.85224 7.85222C7.89906 7.80578 7.93622 7.75052 7.96158 7.68965C7.98694 7.62877 8 7.56347 8 7.49752C8 7.43156 7.98694 7.36626 7.96158 7.30539C7.93622 7.24451 7.89906 7.18925 7.85224 7.14281L5.70432 4.99957Z" fill="white"/>
</svg>
