<svg width="12" height="12" viewBox="0 0 12 12" fill="none" xmlns="http://www.w3.org/2000/svg">
<circle cx="6" cy="6" r="6" fill="#C4C4C4"/>
<circle cx="6" cy="6" r="6" fill="url(#paint0_linear_1015_9884)"/>
<path fill-rule="evenodd" clip-rule="evenodd" d="M3.37005 3.06274C3.28513 2.9778 3.14743 2.97778 3.06249 3.0627C2.97755 3.14763 2.97754 3.28533 3.06246 3.37026L5.69077 5.99912L3.06418 8.62572C2.97925 8.71065 2.97925 8.84835 3.06418 8.93328C3.14911 9.01821 3.28681 9.01821 3.37174 8.93328L5.9983 6.30671L8.62872 8.93768C8.71364 9.02262 8.85134 9.02263 8.93627 8.93771C9.02121 8.85279 9.02123 8.71509 8.93631 8.63015L6.30586 5.99915L8.93335 3.37166C9.01828 3.28673 9.01828 3.14903 8.93335 3.0641C8.84842 2.97917 8.71072 2.97917 8.62579 3.0641L5.99833 5.69156L3.37005 3.06274Z" fill="#5957D5"/>
<defs>
<linearGradient id="paint0_linear_1015_9884" x1="6" y1="0" x2="6" y2="12" gradientUnits="userSpaceOnUse">
<stop stop-color="#FCFAFF"/>
<stop offset="1" stop-color="#E8DBFF"/>
</linearGradient>
</defs>
</svg>
