<svg width="12" height="12" viewBox="0 0 12 12" fill="none" xmlns="http://www.w3.org/2000/svg">
<path fill-rule="evenodd" clip-rule="evenodd" d="M11.0583 0.937228C11.2047 1.08367 11.2047 1.32111 11.0583 1.46756L1.46829 11.0576C1.32184 11.204 1.08441 11.204 0.93796 11.0576C0.791513 10.9111 0.791513 10.6737 0.93796 10.5272L10.528 0.937228C10.6744 0.790781 10.9118 0.790781 11.0583 0.937228Z" fill="white"/>
<path fill-rule="evenodd" clip-rule="evenodd" d="M0.935058 0.934758C1.08152 0.788327 1.31896 0.788352 1.46539 0.934814L11.0634 10.5348C11.2098 10.6813 11.2098 10.9187 11.0633 11.0651C10.9169 11.2116 10.6794 11.2116 10.533 11.0651L0.935003 1.46509C0.788571 1.31863 0.788596 1.08119 0.935058 0.934758Z" fill="white"/>
</svg>
