<svg width="37" height="29" viewBox="0 0 37 29" fill="none" xmlns="http://www.w3.org/2000/svg">
<path d="M12.25 20.5L14.0125 22.2625L17.25 19.0375V28.5H19.75V19.0375L22.9875 22.2625L24.75 20.5L18.5 14.25L12.25 20.5Z" fill="white"/>
<path d="M27.8743 25.5H27.2493V23H27.8743C29.3662 23.0596 30.8206 22.5242 31.9177 21.5115C33.0148 20.4988 33.6647 19.0918 33.7243 17.6C33.784 16.1081 33.2486 14.6537 32.2359 13.5566C31.2232 12.4595 29.8162 11.8096 28.3243 11.75H27.2493L27.1243 10.725C26.847 8.62051 25.8142 6.68863 24.2182 5.28918C22.6222 3.88973 20.572 3.11814 18.4493 3.11814C16.3267 3.11814 14.2764 3.88973 12.6805 5.28918C11.0845 6.68863 10.0517 8.62051 9.77433 10.725L9.74933 11.75H8.67434C7.18249 11.8096 5.77546 12.4595 4.76276 13.5566C3.75006 14.6537 3.21466 16.1081 3.27433 17.6C3.33401 19.0918 3.98387 20.4988 5.08096 21.5115C6.17805 22.5242 7.63249 23.0596 9.12433 23H9.74933V25.5H9.12433C7.11984 25.4873 5.19079 24.734 3.70807 23.3851C2.22534 22.0361 1.29361 20.1867 1.092 18.1923C0.89039 16.1979 1.43314 14.1994 2.6159 12.581C3.79866 10.9626 5.53794 9.83856 7.49933 9.42495C8.03897 6.9081 9.42538 4.65242 11.4272 3.03429C13.4291 1.41616 15.9253 0.533447 18.4993 0.533447C21.0734 0.533447 23.5696 1.41616 25.5714 3.03429C27.5733 4.65242 28.9597 6.9081 29.4993 9.42495C31.4607 9.83856 33.2 10.9626 34.3828 12.581C35.5655 14.1994 36.1083 16.1979 35.9067 18.1923C35.7051 20.1867 34.7733 22.0361 33.2906 23.3851C31.8079 24.734 29.8788 25.4873 27.8743 25.5Z" fill="white"/>
</svg>
