<svg width="20" height="20" viewBox="0 0 20 20" fill="none" xmlns="http://www.w3.org/2000/svg">
<path d="M16.6309 0.588379H4.54617C3.96476 0.589002 3.40734 0.820243 2.99621 1.23136C2.58509 1.64249 2.35385 2.19991 2.35323 2.78132V4.11779H1.76499C1.60898 4.11779 1.45936 4.17977 1.34905 4.29008C1.23873 4.4004 1.17676 4.55002 1.17676 4.70603C1.17676 4.86204 1.23873 5.01166 1.34905 5.12197C1.45936 5.23229 1.60898 5.29426 1.76499 5.29426H2.35323V7.6472H1.76499C1.60898 7.6472 1.45936 7.70918 1.34905 7.81949C1.23873 7.92981 1.17676 8.07943 1.17676 8.23544C1.17676 8.39145 1.23873 8.54107 1.34905 8.65138C1.45936 8.7617 1.60898 8.82367 1.76499 8.82367H2.35323V11.1766H1.76499C1.60898 11.1766 1.45936 11.2386 1.34905 11.3489C1.23873 11.4592 1.17676 11.6088 1.17676 11.7649C1.17676 11.9209 1.23873 12.0705 1.34905 12.1808C1.45936 12.2911 1.60898 12.3531 1.76499 12.3531H2.35323V14.706H1.76499C1.60898 14.706 1.45936 14.768 1.34905 14.8783C1.23873 14.9886 1.17676 15.1383 1.17676 15.2943C1.17676 15.4503 1.23873 15.5999 1.34905 15.7102C1.45936 15.8205 1.60898 15.8825 1.76499 15.8825H2.35323V17.219C2.35385 17.8004 2.58509 18.3578 2.99621 18.7689C3.40734 19.18 3.96476 19.4113 4.54617 19.4119H16.6309C17.2123 19.4113 17.7697 19.18 18.1808 18.7689C18.592 18.3578 18.8232 17.8004 18.8238 17.219V2.78132C18.8232 2.19991 18.592 1.64249 18.1808 1.23136C17.7697 0.820243 17.2123 0.589002 16.6309 0.588379ZM17.6473 17.219C17.647 17.4885 17.5398 17.7468 17.3493 17.9374C17.1587 18.1279 16.9004 18.2351 16.6309 18.2354H4.54617C4.27668 18.2351 4.01832 18.1279 3.82776 17.9374C3.6372 17.7468 3.53001 17.4885 3.5297 17.219V15.8825H4.11793C4.27394 15.8825 4.42356 15.8205 4.53388 15.7102C4.64419 15.5999 4.70617 15.4503 4.70617 15.2943C4.70617 15.1383 4.64419 14.9886 4.53388 14.8783C4.42356 14.768 4.27394 14.706 4.11793 14.706H3.5297V12.3531H4.11793C4.27394 12.3531 4.42356 12.2911 4.53388 12.1808C4.64419 12.0705 4.70617 11.9209 4.70617 11.7649C4.70617 11.6088 4.64419 11.4592 4.53388 11.3489C4.42356 11.2386 4.27394 11.1766 4.11793 11.1766H3.5297V8.82367H4.11793C4.27394 8.82367 4.42356 8.7617 4.53388 8.65138C4.64419 8.54107 4.70617 8.39145 4.70617 8.23544C4.70617 8.07943 4.64419 7.92981 4.53388 7.81949C4.42356 7.70918 4.27394 7.6472 4.11793 7.6472H3.5297V5.29426H4.11793C4.27394 5.29426 4.42356 5.23229 4.53388 5.12197C4.64419 5.01166 4.70617 4.86204 4.70617 4.70603C4.70617 4.55002 4.64419 4.4004 4.53388 4.29008C4.42356 4.17977 4.27394 4.11779 4.11793 4.11779H3.5297V2.78132C3.53001 2.51183 3.6372 2.25347 3.82776 2.06291C4.01832 1.87235 4.27668 1.76516 4.54617 1.76485H16.6309C16.9004 1.76516 17.1587 1.87235 17.3493 2.06291C17.5398 2.25347 17.647 2.51183 17.6473 2.78132V17.219Z" fill="white"/>
<path d="M11.1765 10C11.7582 10 12.3269 9.82753 12.8106 9.50435C13.2942 9.18117 13.6712 8.72182 13.8938 8.18439C14.1164 7.64696 14.1747 7.05559 14.0612 6.48506C13.9477 5.91453 13.6676 5.39046 13.2563 4.97913C12.8449 4.5678 12.3209 4.28768 11.7503 4.17419C11.1798 4.06071 10.5884 4.11895 10.051 4.34156C9.51356 4.56417 9.05421 4.94115 8.73103 5.42482C8.40785 5.9085 8.23535 6.47714 8.23535 7.05885C8.23629 7.83862 8.54646 8.58617 9.09783 9.13755C9.64921 9.68892 10.3968 9.9991 11.1765 10ZM11.1765 5.29415C11.5256 5.29415 11.8667 5.39765 12.1569 5.59155C12.4472 5.78546 12.6733 6.06107 12.8069 6.38353C12.9405 6.70599 12.9754 7.06081 12.9073 7.40313C12.8392 7.74545 12.6712 8.05989 12.4244 8.30669C12.1776 8.55349 11.8631 8.72156 11.5208 8.78965C11.1785 8.85774 10.8237 8.8228 10.5012 8.68923C10.1787 8.55566 9.90314 8.32948 9.70923 8.03927C9.51532 7.74907 9.41182 7.40788 9.41182 7.05885C9.41182 6.59083 9.59775 6.14196 9.92869 5.81102C10.2596 5.48007 10.7085 5.29415 11.1765 5.29415Z" fill="white"/>
<path d="M11.1766 10.5884C9.92894 10.5898 8.73279 11.086 7.85057 11.9682C6.96835 12.8505 6.4721 14.0466 6.4707 15.2943C6.4707 15.4503 6.53268 15.5999 6.64299 15.7102C6.75331 15.8205 6.90293 15.8825 7.05894 15.8825H15.2942C15.4502 15.8825 15.5999 15.8205 15.7102 15.7102C15.8205 15.5999 15.8825 15.4503 15.8825 15.2943C15.8811 14.0466 15.3848 12.8505 14.5026 11.9682C13.6204 11.086 12.4242 10.5898 11.1766 10.5884ZM7.696 14.706C7.83434 13.8829 8.2599 13.1355 8.89712 12.5965C9.53433 12.0574 10.342 11.7616 11.1766 11.7616C12.0112 11.7616 12.8188 12.0574 13.4561 12.5965C14.0933 13.1355 14.5188 13.8829 14.6572 14.706H7.696Z" fill="white"/>
</svg>
