<svg width="20" height="20" viewBox="0 0 20 20" fill="none" xmlns="http://www.w3.org/2000/svg">
<path d="M11.8028 18H5.59861C4.16569 18 3 16.8785 3 15.5V7.03125C3 5.65271 4.16569 4.53125 5.59861 4.53125H11.8028C13.2357 4.53125 14.4014 5.65271 14.4014 7.03125V15.5C14.4014 16.8785 13.2357 18 11.8028 18ZM5.59861 5.78125C4.88221 5.78125 4.2993 6.34204 4.2993 7.03125V15.5C4.2993 16.1892 4.88221 16.75 5.59861 16.75H11.8028C12.5192 16.75 13.1021 16.1892 13.1021 15.5V7.03125C13.1021 6.34204 12.5192 5.78125 11.8028 5.78125H5.59861ZM17 13.9375V4.5C17 3.12146 15.8343 2 14.4014 2H7.19026C6.83142 2 6.5406 2.27979 6.5406 2.625C6.5406 2.97021 6.83142 3.25 7.19026 3.25H14.4014C15.1178 3.25 15.7007 3.81079 15.7007 4.5V13.9375C15.7007 14.2827 15.9915 14.5625 16.3503 14.5625C16.7092 14.5625 17 14.2827 17 13.9375Z" fill="white"/>
</svg>
