<svg width="20" height="20" viewBox="0 0 20 20" fill="none" xmlns="http://www.w3.org/2000/svg">
<path d="M10 0C4.48625 0 0 4.48625 0 10C0 15.5138 4.48625 20 10 20C15.5138 20 20 15.5138 20 10C20 4.48625 15.5138 0 10 0ZM10 18.75C5.175 18.75 1.25 14.825 1.25 10C1.25 5.175 5.175 1.25 10 1.25C14.825 1.25 18.75 5.175 18.75 10C18.75 14.825 14.825 18.75 10 18.75Z" fill="white"/>
<path d="M10 9.375C8.98375 9.375 8.125 8.8025 8.125 8.125C8.125 7.4475 8.98375 6.875 10 6.875C10.575 6.875 11.1075 7.055 11.46 7.3675C11.7175 7.59625 12.1112 7.575 12.3425 7.315C12.5725 7.0575 12.5487 6.6625 12.29 6.4325C11.8525 6.04375 11.265 5.78125 10.625 5.6775V5C10.625 4.655 10.345 4.375 10 4.375C9.655 4.375 9.375 4.655 9.375 5V5.675C7.95 5.9075 6.875 6.9175 6.875 8.125C6.875 9.50375 8.2775 10.625 10 10.625C11.0163 10.625 11.875 11.1975 11.875 11.875C11.875 12.5525 11.0163 13.125 10 13.125C9.425 13.125 8.8925 12.945 8.54 12.6325C8.2825 12.4025 7.8875 12.425 7.6575 12.685C7.4275 12.9425 7.45125 13.3375 7.71 13.5675C8.1475 13.9575 8.735 14.2188 9.375 14.3237V15C9.375 15.345 9.655 15.625 10 15.625C10.345 15.625 10.625 15.345 10.625 15V14.325C12.05 14.0925 13.125 13.0825 13.125 11.875C13.125 10.4963 11.7225 9.375 10 9.375Z" fill="white"/>
</svg>
