<svg width="24" height="24" viewBox="0 0 24 24" fill="none" xmlns="http://www.w3.org/2000/svg">
<path fill-rule="evenodd" clip-rule="evenodd" d="M12.9001 2.99998C12.9001 2.50292 12.4972 2.09998 12.0001 2.09998C11.503 2.09998 11.1001 2.50292 11.1001 2.99998V12.8272L8.63649 10.3636C8.28502 10.0121 7.71517 10.0121 7.3637 10.3636C7.01223 10.7151 7.01223 11.2849 7.3637 11.6364L11.3637 15.6364C11.5325 15.8052 11.7614 15.9 12.0001 15.9C12.2388 15.9 12.4677 15.8052 12.6365 15.6364L16.6365 11.6364C16.988 11.2849 16.988 10.7151 16.6365 10.3636C16.285 10.0121 15.7152 10.0121 15.3637 10.3636L12.9001 12.8272V2.99998ZM2.98937 16.9631C2.91379 16.4719 2.45426 16.1349 1.96298 16.2105C1.47171 16.286 1.13472 16.7456 1.2103 17.2368L1.49721 19.1018C1.74488 20.7116 3.13006 21.9 4.75884 21.9H19.2408C20.8696 21.9 22.2548 20.7116 22.5025 19.1018L22.7894 17.2368C22.8649 16.7456 22.528 16.286 22.0367 16.2105C21.5454 16.1349 21.0859 16.4719 21.0103 16.9631L20.7234 18.8281C20.6108 19.5598 19.9812 20.1 19.2408 20.1H4.75884C4.01848 20.1 3.38886 19.5598 3.27628 18.8281L2.98937 16.9631Z" fill="white"/>
</svg>
