<svg width="10" height="20" viewBox="0 0 10 20" fill="none" xmlns="http://www.w3.org/2000/svg">
<path fill-rule="evenodd" clip-rule="evenodd" d="M8.36626 6.86499C8.28052 6.95144 8.16429 7 8.04311 7C7.92193 7 7.8057 6.95144 7.71996 6.86499L4.9945 4.11367L2.26904 6.86499C2.18235 6.94654 2.0677 6.99093 1.94923 6.98882C1.83076 6.98671 1.71772 6.93826 1.63394 6.85368C1.55015 6.7691 1.50216 6.655 1.50007 6.5354C1.49798 6.41581 1.54196 6.30006 1.62273 6.21255L4.67135 3.13501C4.75709 3.04856 4.87332 3 4.9945 3C5.11568 3 5.23191 3.04856 5.31765 3.13501L8.36626 6.21255C8.4519 6.29911 8.5 6.41644 8.5 6.53877C8.5 6.66111 8.4519 6.77844 8.36626 6.86499Z" fill="white"/>
<path fill-rule="evenodd" clip-rule="evenodd" d="M1.63374 13.135C1.71948 13.0486 1.83571 13 1.95689 13C2.07807 13 2.1943 13.0486 2.28004 13.135L5.0055 15.8863L7.73096 13.135C7.81765 13.0535 7.9323 13.0091 8.05077 13.0112C8.16924 13.0133 8.28228 13.0617 8.36606 13.1463C8.44985 13.2309 8.49784 13.345 8.49993 13.4646C8.50202 13.5842 8.45804 13.6999 8.37727 13.7874L5.32865 16.865C5.24291 16.9514 5.12668 17 5.0055 17C4.88432 17 4.76809 16.9514 4.68235 16.865L1.63374 13.7874C1.5481 13.7009 1.5 13.5836 1.5 13.4612C1.5 13.3389 1.5481 13.2216 1.63374 13.135Z" fill="white"/>
</svg>
