<svg width="18" height="18" viewBox="0 0 18 18" fill="none" xmlns="http://www.w3.org/2000/svg">
<path d="M3.12298 12.2617C2.97898 12.2617 2.83526 12.2068 2.72529 12.0969C2.50563 11.8772 2.50563 11.5211 2.72529 11.3015L11.5155 2.5113C11.7348 2.29164 12.0912 2.29164 12.3108 2.5113C12.5305 2.73096 12.5305 3.08702 12.3108 3.30668L3.52066 12.0969C3.41098 12.2066 3.26698 12.2617 3.12298 12.2617Z" fill="white"/>
<path d="M2.25447 16.3125C2.21537 16.3125 2.17572 16.3083 2.13606 16.2998C1.83231 16.2346 1.63881 15.9356 1.70406 15.6319L2.57312 11.581C2.63837 11.2773 2.93875 11.0843 3.24109 11.149C3.54484 11.2143 3.73834 11.5132 3.67309 11.817L2.80403 15.8678C2.7475 16.1319 2.51406 16.3125 2.25447 16.3125Z" fill="white"/>
<path d="M6.30462 15.4435C6.16062 15.4435 6.0169 15.3886 5.90693 15.2787C5.68727 15.059 5.68727 14.7029 5.90693 14.4833L14.6971 5.69337C14.9165 5.47371 15.2728 5.47371 15.4925 5.69337C15.7122 5.91302 15.7122 6.26909 15.4925 6.48874L6.70259 15.2787C6.59262 15.3886 6.44862 15.4435 6.30462 15.4435Z" fill="white"/>
<path d="M2.25354 16.3125C1.99395 16.3125 1.76079 16.1319 1.70398 15.8678C1.63901 15.5641 1.83223 15.2651 2.13598 15.1999L6.18682 14.3308C6.49086 14.2664 6.78982 14.4593 6.85479 14.7628C6.91976 15.0666 6.72654 15.3655 6.42279 15.4308L2.37195 16.2998C2.33229 16.3086 2.29264 16.3125 2.25354 16.3125Z" fill="white"/>
<path d="M13.504 8.24427C13.36 8.24427 13.216 8.18943 13.1063 8.07946L9.92451 4.89768C9.70485 4.67802 9.70485 4.32196 9.92451 4.1023C10.1439 3.88265 10.5005 3.88265 10.7199 4.1023L13.9017 7.28408C14.1213 7.50374 14.1213 7.8598 13.9017 8.07946C13.792 8.18943 13.648 8.24427 13.504 8.24427Z" fill="white"/>
<path d="M15.0954 6.65354C14.9514 6.65354 14.8074 6.5987 14.6974 6.48873C14.4777 6.26907 14.4777 5.91301 14.6974 5.69307C15.0104 5.38004 15.1828 4.9562 15.1828 4.50001C15.1828 4.04382 15.0104 3.61998 14.6974 3.30695C14.3841 2.99363 13.9602 2.82123 13.504 2.82123C13.0479 2.82123 12.624 2.99363 12.311 3.30695C12.0916 3.5266 11.7355 3.52688 11.5153 3.30695C11.2957 3.08729 11.2957 2.73123 11.5153 2.51129C12.0407 1.98563 12.7469 1.69623 13.504 1.69623C14.2609 1.69623 14.9674 1.98563 15.4928 2.51129C16.0184 3.03667 16.3078 3.74288 16.3078 4.50001C16.3078 5.25713 16.0184 5.96335 15.4928 6.48873C15.3834 6.59842 15.2394 6.65354 15.0954 6.65354Z" fill="white"/>
</svg>
