<svg width="32" height="32" viewBox="0 0 32 32" fill="none" xmlns="http://www.w3.org/2000/svg">
<path d="M16 32C24.8366 32 32 24.8366 32 16C32 7.16344 24.8366 0 16 0C7.16344 0 0 7.16344 0 16C0 24.8366 7.16344 32 16 32Z" fill="white" fill-opacity="0.2"/>
<mask id="mask0_1668_846" style="mask-type:alpha" maskUnits="userSpaceOnUse" x="0" y="0" width="32" height="32">
<path d="M16 32C24.8366 32 32 24.8366 32 16C32 7.16344 24.8366 0 16 0C7.16344 0 0 7.16344 0 16C0 24.8366 7.16344 32 16 32Z" fill="white"/>
</mask>
<g mask="url(#mask0_1668_846)">
<path fill-rule="evenodd" clip-rule="evenodd" d="M11.5 15.1334L16.0185 12.1962L20.5 15.1516L15.9988 7L11.5 15.1334ZM11.6729 15.982L16.0239 13.1147L20.3183 15.9607L16.0263 18.8309L11.6729 15.982ZM11.5 16.8028C13.0858 17.8426 14.7405 18.9311 16.0185 19.7733L20.5 16.8028C18.8773 19.7794 17.5254 22.2575 16.0185 25L15.0949 23.3259L15.0945 23.3252C13.853 21.0749 12.5727 18.7543 11.5 16.8028Z" fill="#3C3F5E"/>
<path fill-rule="evenodd" clip-rule="evenodd" d="M16 7L16.0169 12.1962L20.5 15.1516L16 7ZM16.0205 13.1147L20.3433 15.9607L16.0226 18.8309L16.0205 13.1147ZM16.0166 19.7733L20.4997 16.8028C19.1092 19.7794 16.0166 25 16.0166 25V19.7733Z" fill="white"/>
</g>
</svg>
