<svg width="24" height="24" viewBox="0 0 24 24" fill="none" xmlns="http://www.w3.org/2000/svg">
<path d="M12.0002 18.75C11.4232 18.7488 10.8476 18.6951 10.2804 18.5895C10.1045 18.5614 9.9443 18.4715 9.82859 18.336C9.71287 18.2005 9.64918 18.0282 9.64893 17.85C9.6508 17.7401 9.67642 17.6319 9.72403 17.5329C9.77164 17.4338 9.84011 17.3463 9.92475 17.2762C10.0094 17.206 10.1082 17.1551 10.2144 17.1268C10.3206 17.0984 10.4316 17.0934 10.5399 17.112C11.0214 17.2026 11.5102 17.2488 12.0002 17.25C16.4432 17.25 20.3019 13.3598 21.5154 12C20.7068 11.0949 19.8182 10.2645 18.8604 9.51901C18.7825 9.45868 18.7173 9.3836 18.6684 9.29806C18.6195 9.21251 18.5879 9.11817 18.5755 9.02042C18.5504 8.82302 18.6047 8.62372 18.7266 8.46638C18.8484 8.30904 19.0277 8.20655 19.2251 8.18144C19.3229 8.16901 19.4221 8.17595 19.5172 8.20187C19.6122 8.22779 19.7013 8.27218 19.7792 8.33251C21.0002 9.27331 22.1113 10.3489 23.0912 11.5388C23.1945 11.6707 23.2507 11.8335 23.2507 12.0011C23.2507 12.1688 23.1945 12.3315 23.0912 12.4635C22.8894 12.7193 18.0932 18.75 12.0002 18.75Z" fill="white"/>
<path d="M20.0305 3.96974C19.8898 3.82914 19.6991 3.75015 19.5002 3.75015C19.3013 3.75015 19.1106 3.82914 18.97 3.96974L16.585 6.35474C15.682 5.91961 14.7266 5.60299 13.7425 5.41274C13.168 5.30473 12.5848 5.25024 12.0002 5.24999C5.90722 5.24999 1.11097 11.2807 0.909972 11.5372C0.806637 11.6692 0.750488 11.832 0.750488 11.9996C0.750488 12.1672 0.806637 12.33 0.909972 12.462C1.88891 13.6509 2.99894 14.7254 4.21897 15.6652C4.7961 16.1176 5.40076 16.5336 6.02947 16.911L3.96997 18.9697C3.89834 19.0389 3.8412 19.1217 3.8019 19.2132C3.76259 19.3047 3.7419 19.4031 3.74103 19.5027C3.74017 19.6023 3.75914 19.701 3.79685 19.7932C3.83457 19.8854 3.89026 19.9691 3.96068 20.0395C4.03109 20.11 4.11483 20.1656 4.20701 20.2034C4.29918 20.2411 4.39794 20.26 4.49752 20.2592C4.59711 20.2583 4.69552 20.2376 4.78702 20.1983C4.87853 20.159 4.96129 20.1019 5.03047 20.0302L20.0305 5.03024C20.1711 4.8896 20.2501 4.69887 20.2501 4.49999C20.2501 4.30112 20.1711 4.11039 20.0305 3.96974ZM5.13997 14.4817C4.18215 13.736 3.29355 12.9054 2.48497 12C3.69847 10.641 7.55722 6.74999 12.0002 6.74999C12.4937 6.75039 12.986 6.79658 13.471 6.88799C14.1499 7.01716 14.8131 7.2183 15.4495 7.48799L14.068 8.86949C13.3469 8.39304 12.4834 8.18028 11.6235 8.26721C10.7636 8.35414 9.96015 8.73542 9.34902 9.34655C8.7379 9.95767 8.35662 10.7611 8.26969 11.621C8.18276 12.4809 8.39552 13.3444 8.87197 14.0655L7.12522 15.8152C6.43061 15.4217 5.76695 14.9759 5.13997 14.4817ZM9.97522 12.963C9.82906 12.6629 9.75217 12.3338 9.75022 12C9.75037 11.405 9.9854 10.8341 10.4042 10.4115C10.7381 10.094 11.1594 9.88358 11.6138 9.8074C12.0682 9.73122 12.535 9.79272 12.9542 9.98399L9.97522 12.963Z" fill="white"/>
</svg>
