<svg width="24" height="24" viewBox="0 0 24 24" fill="none" xmlns="http://www.w3.org/2000/svg">
<g clip-path="url(#clip0_1223_1284)">
<path fill-rule="evenodd" clip-rule="evenodd" d="M0.0945 12.3643C0.256312 12.6555 4.14881 19.5 12 19.5C19.8512 19.5 23.7437 12.6555 23.9055 12.3645C24.0315 12.1378 24.0315 11.8624 23.9055 11.6357C23.7437 11.3445 19.8512 4.5 12 4.5C4.14881 4.5 0.256312 11.3445 0.0945 11.6355C-0.0315 11.8622 -0.0315 12.1376 0.0945 12.3643ZM12 18C6.02737 18 2.52469 13.3509 1.63256 11.9989C2.52131 10.6453 6.00844 6 12 6C17.9726 6 21.4753 10.6491 22.3674 12.0011C21.4787 13.3547 17.9916 18 12 18ZM14.3906 12C14.3906 13.3203 13.3203 14.3906 12 14.3906C10.6797 14.3906 9.60938 13.3203 9.60938 12C9.60938 10.6797 10.6797 9.60938 12 9.60938C13.3203 9.60938 14.3906 10.6797 14.3906 12ZM15.8438 12C15.8438 14.1228 14.1228 15.8438 12 15.8438C9.87716 15.8438 8.15625 14.1228 8.15625 12C8.15625 9.87716 9.87716 8.15625 12 8.15625C14.1228 8.15625 15.8438 9.87716 15.8438 12Z" fill="white"/>
</g>
<defs>
<clipPath id="clip0_1223_1284">
<rect width="24" height="24" fill="white"/>
</clipPath>
</defs>
</svg>
