<svg width="26" height="26" viewBox="0 0 26 26" fill="none" xmlns="http://www.w3.org/2000/svg">
<path d="M22.0288 5.39642L17.1323 0.764055C16.6115 0.271324 15.9298 0 15.2129 0H5.89062C4.35058 0 3.09766 1.25293 3.09766 2.79297V23.207C3.09766 24.7471 4.35058 26 5.89062 26H20.1094C21.6494 26 22.9023 24.7471 22.9023 23.207V7.42534C22.9023 6.66113 22.5839 5.9216 22.0288 5.39642ZM20.5492 6.09375H16.7578C16.6178 6.09375 16.5039 5.97985 16.5039 5.83984V2.26667L20.5492 6.09375ZM20.1094 24.4766H5.89062C5.19061 24.4766 4.62109 23.9071 4.62109 23.207V2.79297C4.62109 2.09295 5.19061 1.52344 5.89062 1.52344H14.9805V5.83984C14.9805 6.81987 15.7778 7.61719 16.7578 7.61719H21.3789V23.207C21.3789 23.9071 20.8094 24.4766 20.1094 24.4766Z" fill="white"/>
<path d="M18.4336 10.1562H7.26172C6.84105 10.1562 6.5 10.4973 6.5 10.918C6.5 11.3386 6.84105 11.6797 7.26172 11.6797H18.4336C18.8543 11.6797 19.1953 11.3386 19.1953 10.918C19.1953 10.4973 18.8543 10.1562 18.4336 10.1562Z" fill="white"/>
<path d="M18.4336 14.2188H7.26172C6.84105 14.2188 6.5 14.5598 6.5 14.9805C6.5 15.4011 6.84105 15.7422 7.26172 15.7422H18.4336C18.8543 15.7422 19.1953 15.4011 19.1953 14.9805C19.1953 14.5598 18.8543 14.2188 18.4336 14.2188Z" fill="white"/>
<path d="M10.9545 18.2812H7.26172C6.84105 18.2812 6.5 18.6223 6.5 19.043C6.5 19.4636 6.84105 19.8047 7.26172 19.8047H10.9545C11.3752 19.8047 11.7163 19.4636 11.7163 19.043C11.7163 18.6223 11.3752 18.2812 10.9545 18.2812Z" fill="white"/>
</svg>
