<svg width="26" height="26" viewBox="0 0 26 26" fill="none" xmlns="http://www.w3.org/2000/svg">
<g clip-path="url(#clip0_1935_690)">
<path d="M19.5277 0H6.4736C5.17949 0 4.08008 1.04401 4.08008 2.39352V17.4992C4.08008 19.0112 4.66777 20.4319 5.73529 21.4998L10.0145 25.777C10.1573 25.9198 10.3511 26 10.553 26H15.4483C15.6503 26 15.844 25.9198 15.9869 25.777C15.9869 25.777 20.2663 21.4996 20.266 21.4998L20.2663 21.4995C21.3336 20.4319 21.9213 19.0112 21.9213 17.4992V2.39352C21.9213 1.04396 20.822 0 19.5277 0V0ZM20.3978 17.4992C20.3978 18.6044 19.9685 19.6425 19.189 20.4224L15.1329 24.4766H10.8684L6.81241 20.4225C6.03277 19.6426 5.60346 18.6044 5.60346 17.4992V2.39352C5.60346 1.90745 5.99732 1.52344 6.47355 1.52344H19.5277C20.0027 1.52344 20.3978 1.90628 20.3978 2.39352V17.4992H20.3978Z" fill="white"/>
<path d="M17.8961 5.71118H8.10547C7.6848 5.71118 7.34375 6.05223 7.34375 6.4729V11.3682C7.34375 11.7888 7.6848 12.1299 8.10547 12.1299H17.8961C18.3168 12.1299 18.6578 11.7888 18.6578 11.3682V6.4729C18.6578 6.05223 18.3168 5.71118 17.8961 5.71118ZM17.1344 10.6064H8.86719V7.23462H17.1344V10.6064Z" fill="white"/>
<path d="M11.3681 13.8701H8.10456C7.09498 13.9076 7.09574 15.3564 8.10456 15.3936H11.3681C12.3776 15.3561 12.3769 13.9072 11.3681 13.8701Z" fill="white"/>
<path d="M17.8955 13.8701H14.6319C13.6223 13.9076 13.6231 15.3564 14.6319 15.3936H17.8955C18.9051 15.3561 18.9043 13.9072 17.8955 13.8701Z" fill="white"/>
</g>
<defs>
<clipPath id="clip0_1935_690">
<rect width="26" height="26" fill="white"/>
</clipPath>
</defs>
</svg>
