<svg width="18" height="18" viewBox="0 0 18 18" fill="none" xmlns="http://www.w3.org/2000/svg">
<path opacity="0.2" d="M16.5 9C16.5 4.857 13.1422 1.5 9 1.5C4.85775 1.5 1.5 4.857 1.5 9C1.5 13.1415 4.85775 16.5 9 16.5C13.1422 16.5 16.5 13.1415 16.5 9Z" fill="#E4EAF3"/>
<path fill-rule="evenodd" clip-rule="evenodd" d="M9.65234 8.53754C9.65234 8.17604 9.35759 7.88129 8.99609 7.88129C8.63459 7.88129 8.33984 8.17604 8.33984 8.53754V11.8525C8.33984 12.214 8.63459 12.5088 8.99609 12.5088C9.35759 12.5088 9.65234 12.214 9.65234 11.8525V8.53754ZM8.34359 6.15796C8.34359 6.51946 8.63684 6.81421 8.99609 6.81421C9.36584 6.81421 9.65984 6.51946 9.65984 6.15796C9.65984 5.79646 9.36584 5.50171 9.00359 5.50171C8.63984 5.50171 8.34359 5.79646 8.34359 6.15796Z" fill="white"/>
</svg>
