<svg width="20" height="20" viewBox="0 0 20 20" fill="none" xmlns="http://www.w3.org/2000/svg">
<path d="M10 0C8.02219 0 6.08879 0.58649 4.4443 1.6853C2.79981 2.78412 1.51809 4.3459 0.761209 6.17316C0.00433286 8.00042 -0.1937 10.0111 0.192152 11.9509C0.578004 13.8907 1.53041 15.6725 2.92894 17.0711C4.32746 18.4696 6.10929 19.422 8.0491 19.8078C9.98891 20.1937 11.9996 19.9957 13.8268 19.2388C15.6541 18.4819 17.2159 17.2002 18.3147 15.5557C19.4135 13.9112 20 11.9778 20 10C20 7.34783 18.9464 4.80429 17.0711 2.92893C15.1957 1.05357 12.6522 0 10 0V0ZM13.8889 12.2222C13.6951 11.9987 13.5308 11.7514 13.4 11.4861C13.3393 11.3626 13.2586 11.2499 13.1611 11.1528C13.0378 11.0298 12.8906 10.9334 12.7285 10.8698C12.5664 10.8061 12.3929 10.7765 12.2188 10.7827C12.0448 10.789 11.8739 10.831 11.7168 10.9061C11.5597 10.9812 11.4197 11.0879 11.3056 11.2194C11.174 11.3336 11.0674 11.4735 10.9922 11.6307C10.9171 11.7878 10.8751 11.9587 10.8688 12.1327C10.8626 12.3068 10.8922 12.4802 10.9559 12.6423C11.0195 12.8044 11.1159 12.9517 11.2389 13.075C11.3361 13.1725 11.4487 13.2532 11.5722 13.3139C11.8371 13.4454 12.0844 13.6096 12.3083 13.8028L10 16.1111L7.7 13.8056C7.51077 14.0301 7.35028 14.2774 7.22223 14.5417C7.16153 14.6652 7.08081 14.7778 6.98334 14.875C6.86006 14.998 6.71279 15.0944 6.55068 15.158C6.38858 15.2217 6.21511 15.2513 6.04107 15.245C5.86702 15.2388 5.69612 15.1968 5.53901 15.1217C5.38189 15.0465 5.24191 14.9399 5.12778 14.8083C4.99587 14.6944 4.88889 14.5545 4.81352 14.3974C4.73815 14.2403 4.69602 14.0693 4.68976 13.8951C4.68351 13.7209 4.71326 13.5473 4.77715 13.3852C4.84105 13.2231 4.93772 13.0758 5.06111 12.9528C5.15904 12.8562 5.27152 12.7756 5.39445 12.7139C5.65369 12.5818 5.89461 12.4166 6.11111 12.2222L3.81112 9.91944L6.11111 7.625C6.30424 7.84894 6.46849 8.09625 6.6 8.36111C6.66001 8.48505 6.74081 8.59779 6.83889 8.69444C6.96217 8.81746 7.10944 8.9138 7.27154 8.97746C7.43365 9.04112 7.60712 9.07075 7.78116 9.0645C7.95521 9.05824 8.1261 9.01624 8.28322 8.94111C8.44034 8.86598 8.58032 8.75932 8.69445 8.62778C8.82635 8.51388 8.93334 8.37398 9.00871 8.21684C9.08408 8.0597 9.12621 7.8887 9.13247 7.71454C9.13872 7.54037 9.10897 7.36679 9.04507 7.20465C8.98118 7.0425 8.88451 6.89529 8.76111 6.77222C8.66319 6.67563 8.55071 6.59502 8.42778 6.53333C8.1618 6.40376 7.91426 6.23935 7.69167 6.04444L10 3.74444L12.3 6.04444C12.4904 5.82078 12.651 5.57334 12.7778 5.30833C12.8392 5.18523 12.9198 5.07271 13.0167 4.975C13.1399 4.85198 13.2872 4.75564 13.4493 4.69198C13.6114 4.62832 13.7849 4.59869 13.9589 4.60495C14.133 4.6112 14.3039 4.6532 14.461 4.72833C14.6181 4.80346 14.7581 4.91012 14.8722 5.04167C15.0038 5.1558 15.1104 5.29577 15.1856 5.45289C15.2607 5.61001 15.3027 5.78091 15.3089 5.95495C15.3152 6.12899 15.2856 6.30246 15.2219 6.46457C15.1582 6.62667 15.0619 6.77394 14.9389 6.89722C14.8417 6.9947 14.7291 7.07542 14.6056 7.13611C14.3475 7.26901 14.1068 7.43322 13.8889 7.625L16.1889 9.925L13.8889 12.2222Z" fill="#5957D5"/>
</svg>
