<svg width="32" height="32" viewBox="0 0 32 32" fill="none" xmlns="http://www.w3.org/2000/svg">
<path d="M5.33333 0V6.66667H0V18.6667H5.33333V32H24L32 24V0H5.33333ZM1.33333 17.3333V8H21.3333V17.3333H1.33333ZM24 30.1147V24H30.1147L24 30.1147ZM30.6667 22.6667H22.6667V30.6667H6.66667V18.6667H22.6667V6.66667H6.66667V1.33333H30.6667V22.6667Z" fill="white"/>
<path d="M4.23734 9.59717V13.6785C4.23734 13.9825 4.20534 14.2078 4.13867 14.3545C4.07067 14.4998 3.93467 14.5745 3.72534 14.5745C3.51601 14.5745 3.38001 14.4998 3.31334 14.3545C3.24534 14.2065 3.21334 13.9825 3.21334 13.6785V13.5012H2.15601V13.7505C2.15601 13.9732 2.17734 14.1878 2.22001 14.3892C2.26267 14.5918 2.34134 14.7678 2.45601 14.9212C2.57067 15.0745 2.72667 15.1905 2.92134 15.2732C3.11601 15.3572 3.36534 15.3985 3.66934 15.3985C4.252 15.3985 4.68267 15.2678 4.96534 15.0105C5.24934 14.7505 5.38934 14.3172 5.38934 13.7092V9.59717H4.23734V9.59717Z" fill="white"/>
<path d="M10.1507 13.1895C10.1173 13.0441 10.0613 12.9135 9.97866 12.7935C9.896 12.6735 9.78533 12.5615 9.64666 12.4575C9.508 12.3521 9.32933 12.2521 9.11066 12.1561L8.22266 11.7722C7.97866 11.6722 7.81866 11.5615 7.744 11.4401C7.668 11.3201 7.632 11.1735 7.632 10.9961C7.632 10.9108 7.64133 10.8281 7.66 10.7481C7.67866 10.6681 7.71333 10.5975 7.764 10.5361C7.81466 10.4748 7.88266 10.4255 7.968 10.3881C8.052 10.3521 8.15866 10.3321 8.28666 10.3321C8.51066 10.3321 8.67066 10.4068 8.76666 10.5521C8.86266 10.7001 8.91066 10.9095 8.91066 11.1815H10.0147V11.0215C10.0147 10.7495 9.96933 10.5162 9.88133 10.3215C9.79466 10.1282 9.67066 9.96815 9.51466 9.84282C9.35733 9.71615 9.16933 9.62682 8.95333 9.57082C8.73866 9.51482 8.50133 9.48682 8.24666 9.48682C7.69733 9.48682 7.264 9.62548 6.94933 9.90282C6.63466 10.1801 6.47733 10.6001 6.47733 11.1655C6.47733 11.4015 6.50533 11.6068 6.564 11.7868C6.62266 11.9655 6.71466 12.1228 6.84 12.2588C6.96666 12.3961 7.12133 12.5148 7.30933 12.6148C7.496 12.7161 7.71733 12.8108 7.97333 12.8961C8.164 12.9601 8.32533 13.0228 8.456 13.0841C8.58666 13.1455 8.692 13.2121 8.772 13.2881C8.85333 13.3615 8.91066 13.4455 8.944 13.5388C8.97866 13.6321 8.996 13.7428 8.996 13.8708C8.996 14.1095 8.92533 14.2881 8.784 14.4028C8.644 14.5175 8.48533 14.5748 8.30933 14.5748C8.16 14.5748 8.036 14.5521 7.93733 14.5108C7.83866 14.4681 7.76 14.4095 7.70133 14.3335C7.64266 14.2588 7.60266 14.1668 7.58133 14.0575C7.56 13.9495 7.548 13.8281 7.548 13.6948V13.5268H6.396V13.7588C6.396 14.2868 6.536 14.6921 6.816 14.9748C7.096 15.2575 7.56133 15.3988 8.212 15.3988C8.836 15.3988 9.32266 15.2601 9.672 14.9855C10.0227 14.7108 10.1973 14.2721 10.1973 13.6695C10.1973 13.4935 10.1827 13.3335 10.1507 13.1895Z" fill="white"/>
<path d="M14.9586 11.2574C14.9186 10.8934 14.832 10.5787 14.6946 10.3174C14.56 10.0574 14.3626 9.85202 14.108 9.70535C13.852 9.56002 13.508 9.48535 13.076 9.48535C12.6453 9.48535 12.3 9.56002 12.0453 9.70535C11.7893 9.85202 11.5946 10.0574 11.4573 10.3174C11.3226 10.5787 11.2333 10.8934 11.1933 11.2574C11.1533 11.624 11.1333 12.0227 11.1333 12.4534C11.1333 12.8894 11.1546 13.2907 11.1933 13.652C11.2333 14.0147 11.3213 14.3267 11.4573 14.588C11.5933 14.8494 11.7893 15.0494 12.0453 15.188C12.3 15.3254 12.6453 15.396 13.076 15.396C13.508 15.396 13.852 15.3267 14.108 15.188C14.3626 15.0494 14.5586 14.8494 14.6946 14.588C14.8306 14.3267 14.9186 14.0147 14.9586 13.652C14.9986 13.2907 15.0186 12.8894 15.0186 12.4534C15.0186 12.0214 14.9986 11.6227 14.9586 11.2574ZM13.8426 13.4334C13.824 13.7027 13.7866 13.9214 13.7306 14.0894C13.6746 14.2574 13.5946 14.3787 13.4906 14.4574C13.3853 14.5347 13.248 14.5734 13.0773 14.5734C12.9066 14.5734 12.7693 14.5347 12.6653 14.4574C12.5613 14.38 12.4813 14.2574 12.4253 14.0894C12.3693 13.9214 12.332 13.7027 12.3133 13.4334C12.2946 13.164 12.2853 12.8387 12.2853 12.4547C12.2853 12.0707 12.2933 11.7454 12.3133 11.4787C12.332 11.212 12.3693 10.9934 12.4253 10.8227C12.4813 10.652 12.5613 10.5294 12.6653 10.452C12.7706 10.3734 12.9066 10.3347 13.0773 10.3347C13.248 10.3347 13.3866 10.3734 13.4906 10.452C13.5946 10.528 13.6746 10.652 13.7306 10.8227C13.7866 10.9934 13.8253 11.212 13.8426 11.4787C13.86 11.7454 13.8706 12.0707 13.8706 12.4547C13.8706 12.8387 13.8613 13.164 13.8426 13.4334Z" fill="white"/>
<path d="M18.9187 9.59717V13.5105H18.9014L17.5094 9.59717H16.1814V15.3092H17.2374V11.3092H17.2547L18.6627 15.3092H19.9747V9.59717H18.9187Z" fill="white"/>
</svg>
