<svg width="42" height="36" viewBox="0 0 42 36" fill="none" xmlns="http://www.w3.org/2000/svg">
<path d="M41.39 9.77122C40.7521 9.34833 39.8832 9.50814 39.4484 10.1282L36.5988 14.192C35.8585 10.8373 34.1437 7.75479 31.5921 5.27326C28.0958 1.87275 23.4473 0 18.5026 0C13.5581 0 8.90947 1.87275 5.4132 5.27326C-1.8044 12.2932 -1.8044 23.7154 5.4132 30.7351C9.02199 34.245 13.7623 36 18.5026 36C23.243 36 27.9833 34.245 31.5921 30.7351C32.1377 30.2044 32.1377 29.3439 31.5921 28.8132C31.0464 28.2825 30.1617 28.2825 29.6163 28.8132C23.4881 34.7734 13.5173 34.7734 7.38935 28.8132C1.26137 22.8531 1.26137 13.1551 7.38935 7.19493C10.3579 4.3079 14.3046 2.7178 18.5028 2.7178C22.701 2.7178 26.6479 4.3079 29.6163 7.19511C31.9075 9.42334 33.4008 12.2232 33.9643 15.2628L29.0047 11.9728C28.3672 11.5499 27.498 11.7097 27.0632 12.3298C26.6284 12.9498 26.7927 13.7952 27.4302 14.2181L34.8285 19.1259C34.8288 19.1261 34.8292 19.1264 34.8296 19.1268C34.9466 19.2043 35.0714 19.2614 35.1997 19.3004C35.2037 19.3016 35.2074 19.3036 35.2113 19.3047C35.2331 19.3112 35.2553 19.3138 35.2772 19.3192C35.389 19.3464 35.5023 19.3631 35.6155 19.3631C36.0619 19.3631 36.5006 19.1554 36.7711 18.7699L41.7569 11.6597C42.1917 11.0395 42.0274 10.1941 41.39 9.77122Z" fill="white"/>
</svg>
