<svg width="20" height="20" viewBox="0 0 20 20" fill="none" xmlns="http://www.w3.org/2000/svg">
<path d="M10.416 1.10657V5.7541C10.416 6.37377 10.8567 6.86065 11.4175 6.86065C11.698 6.86065 11.9383 6.72786 12.1386 6.55082L15.1032 3.27541C15.5038 2.83279 15.5038 2.16886 15.1032 1.72624C15.0631 1.68198 15.023 1.63771 14.983 1.59345C13.9814 0.840995 12.8197 0.309849 11.6178 0.0442761C11.0971 -0.0885104 10.5763 0.309849 10.4561 0.92952C10.416 0.973782 10.416 1.01804 10.416 1.10657Z" fill="#FFCC00"/>
<path d="M7.01248 7.30292L4.04797 4.02752C3.64736 3.5849 3.04644 3.5849 2.64583 4.02752C2.60577 4.07178 2.56571 4.11605 2.52565 4.16031C1.84461 5.26686 1.36388 6.55047 1.12351 7.87833C1.04339 8.45374 1.36388 9.02915 1.92473 9.16193C1.96479 9.16193 2.04491 9.16193 2.12504 9.16193H6.33144C6.8923 9.16193 7.33297 8.67505 7.33297 8.05538C7.33297 7.7898 7.21279 7.47997 7.01248 7.30292Z" fill="#FFCC00"/>
<path d="M6.32903 10.2689H2.12262C1.56176 10.2689 1.12109 10.7557 1.12109 11.3754C1.12109 11.4639 1.12109 11.5082 1.12109 11.5967C1.36146 12.9246 1.84219 14.2082 2.52323 15.3147C2.84372 15.8016 3.44463 15.9344 3.8853 15.5803C3.92536 15.5361 4.00549 15.4918 4.04555 15.4475L7.01006 12.1721C7.41067 11.7295 7.41067 11.0656 7.01006 10.623C6.84982 10.4016 6.56939 10.2689 6.32903 10.2689Z" fill="#FFCC00"/>
<path d="M9.41417 5.75408V1.10655C9.41417 0.486883 8.9735 0 8.41264 0C8.33252 0 8.29246 0 8.21234 0C7.01051 0.265573 5.84874 0.752456 4.84722 1.54918C4.40655 1.90327 4.28636 2.56721 4.60685 3.05409C4.64691 3.09835 4.68697 3.18688 4.72703 3.23114L7.69155 6.50654C8.09216 6.94916 8.69307 6.94916 9.09368 6.50654C9.33405 6.32949 9.41417 6.01966 9.41417 5.75408Z" fill="#FFCC00"/>
<path d="M7.73763 12.9244L4.77311 16.1998C4.3725 16.6424 4.3725 17.3064 4.77311 17.749C4.81317 17.7933 4.85324 17.8375 4.93336 17.8818C5.93488 18.6342 7.09665 19.1654 8.29848 19.431C8.81928 19.5195 9.34007 19.1654 9.46025 18.5457C9.46025 18.5014 9.46025 18.4129 9.46025 18.3244V13.6769C9.46025 13.0572 9.01958 12.5703 8.45873 12.5703C8.1783 12.6146 7.93793 12.7031 7.73763 12.9244Z" fill="#FFCC00"/>
<path d="M13.502 9.16202H17.7084C18.2692 9.16202 18.7099 8.67513 18.7099 8.05546C18.7099 8.0112 18.7099 7.92268 18.7099 7.87842C18.4695 6.55055 17.9888 5.26695 17.3078 4.16039C16.9873 3.67351 16.3864 3.54072 15.9457 3.89482C15.9056 3.93908 15.8656 3.98334 15.8255 4.02761L12.861 7.30301C12.4604 7.74563 12.4604 8.40956 12.861 8.85218C12.9812 9.07349 13.2616 9.16202 13.502 9.16202Z" fill="#FFCC00"/>
<path d="M12.8224 12.1279L15.787 15.4033C16.1876 15.8459 16.7885 15.8459 17.1891 15.4033C17.2292 15.359 17.2692 15.3148 17.3093 15.2705C17.9903 14.1639 18.471 12.8803 18.7114 11.5525C18.7915 10.9771 18.471 10.4016 17.9102 10.2689C17.8701 10.2689 17.79 10.2689 17.7099 10.2689H13.5035C12.9426 10.2689 12.502 10.7557 12.502 11.3754C12.542 11.641 12.6221 11.9508 12.8224 12.1279Z" fill="#FFCC00"/>
<path d="M10.416 13.6771V18.3246C10.416 18.9443 10.8567 19.4312 11.4175 19.4312C11.4576 19.4312 11.5377 19.4312 11.5778 19.4312C12.7796 19.1656 13.9414 18.6344 14.9429 17.882C15.3836 17.5279 15.5038 16.864 15.1833 16.3771C15.1432 16.3328 15.1032 16.2885 15.0631 16.2L12.0986 12.9246C11.698 12.482 11.0971 12.482 10.6964 12.9246C10.5362 13.1017 10.416 13.4115 10.416 13.6771Z" fill="#FFCC00"/>
</svg>
