<svg width="20" height="20" viewBox="0 0 20 20" fill="none" xmlns="http://www.w3.org/2000/svg">
<path d="M19 5.35727C19 5.10197 18.8602 4.8662 18.6329 4.73855L10.3667 0.0957371C10.1402 -0.0319124 9.85911 -0.0319124 9.63254 0.0957371L1.3671 4.73855C1.13981 4.8662 1 5.10197 1 5.35727V14.6429C1.01196 14.8939 1.14192 15.1337 1.3671 15.2616L9.63254 19.9044C9.74583 19.9683 9.87273 20 9.99964 20C10.1265 20 10.2535 19.9683 10.3667 19.9044L18.6329 15.2616C18.8565 15.1315 18.988 14.8964 19 14.6429V5.35727ZM9.99964 1.53929L17.5316 5.76952V12.644L12.6159 6.81129C12.3268 6.48293 11.7689 6.4825 11.4802 6.81164L8.2605 10.6333L7.0055 9.34545C6.71826 9.05979 6.21151 9.05967 5.92284 9.34335L2.46839 12.8613V5.76952L9.99964 1.53929ZM2.91037 14.4789L6.46103 10.8629L10.1653 14.6642C10.4448 14.9511 10.909 14.962 11.2035 14.691C11.4974 14.4197 11.5096 13.9677 11.2307 13.6813L9.27871 11.6782L12.048 8.39113L17.15 14.445L9.99964 18.4609L2.91037 14.4789Z" fill="white"/>
<path d="M7.75586 8.84888C8.78979 8.84888 9.63086 8.00781 9.63086 6.97388C9.63086 5.93994 8.78979 5.09888 7.75586 5.09888C6.72192 5.09888 5.88086 5.93994 5.88086 6.97388C5.88086 8.00781 6.72192 8.84888 7.75586 8.84888ZM7.75586 6.34888C8.10071 6.34888 8.38086 6.62933 8.38086 6.97388C8.38086 7.31842 8.10071 7.59888 7.75586 7.59888C7.41101 7.59888 7.13086 7.31842 7.13086 6.97388C7.13086 6.62933 7.41101 6.34888 7.75586 6.34888Z" fill="white"/>
</svg>
