<svg width="72" height="72" viewBox="0 0 72 72" fill="none" xmlns="http://www.w3.org/2000/svg">
<path fill-rule="evenodd" clip-rule="evenodd" d="M36 70C54.7777 70 70 54.7777 70 36C70 17.2223 54.7777 2 36 2C17.2223 2 2 17.2223 2 36C2 54.7777 17.2223 70 36 70ZM36 72C55.8823 72 72 55.8823 72 36C72 16.1177 55.8823 0 36 0C16.1177 0 0 16.1177 0 36C0 55.8823 16.1177 72 36 72ZM36 64.7317C51.8681 64.7317 64.7317 51.8681 64.7317 36C64.7317 20.1319 51.8681 7.26829 36 7.26829C20.1319 7.26829 7.26829 20.1319 7.26829 36C7.26829 51.8681 20.1319 64.7317 36 64.7317ZM36 66.7317C52.9727 66.7317 66.7317 52.9727 66.7317 36C66.7317 19.0273 52.9727 5.26829 36 5.26829C19.0273 5.26829 5.26829 19.0273 5.26829 36C5.26829 52.9727 19.0273 66.7317 36 66.7317ZM26.7805 27.2195C26.0531 27.2195 25.4634 27.8092 25.4634 28.5366V32.0488C25.4634 32.7762 26.0531 33.3659 26.7805 33.3659C27.5079 33.3659 28.0976 32.7762 28.0976 32.0488V28.5366C28.0976 27.8092 27.5079 27.2195 26.7805 27.2195ZM43.9024 28.5366C43.9024 27.8092 44.4921 27.2195 45.2195 27.2195C45.9469 27.2195 46.5366 27.8092 46.5366 28.5366V32.0488C46.5366 32.7762 45.9469 33.3659 45.2195 33.3659C44.4921 33.3659 43.9024 32.7762 43.9024 32.0488V28.5366ZM29.6153 43.2757C30.2304 43.6448 31.0258 43.4532 31.4066 42.8495L31.4153 42.8374C31.4324 42.8145 31.4697 42.7668 31.5301 42.702C31.6506 42.5729 31.8647 42.3741 32.1982 42.1657C32.8542 41.7557 34.0364 41.2683 36.0002 41.2683C37.964 41.2683 39.1462 41.7557 39.8022 42.1657C40.1357 42.3741 40.3498 42.5729 40.4703 42.702C40.5307 42.7668 40.568 42.8145 40.5851 42.8374L40.5938 42.8495C40.9746 43.4532 41.77 43.6448 42.3851 43.2757C43.0089 42.9015 43.2111 42.0925 42.8369 41.4687L41.7208 42.1384C42.8369 41.4687 42.8364 41.4679 42.8359 41.4671L42.8349 41.4654L42.8327 41.4618L42.828 41.4541L42.8168 41.4362C42.8086 41.4232 42.7989 41.4081 42.7875 41.3911C42.7648 41.3571 42.7357 41.3152 42.6996 41.2666C42.6275 41.1695 42.5276 41.0457 42.396 40.9047C42.1323 40.6222 41.7428 40.2722 41.1982 39.9319C40.0981 39.2443 38.4267 38.6341 36.0002 38.6341C33.5737 38.6341 31.9023 39.2443 30.8022 39.9319C30.2576 40.2722 29.8681 40.6222 29.6044 40.9047C29.4728 41.0457 29.3729 41.1695 29.3008 41.2666C29.2647 41.3152 29.2356 41.3571 29.2129 41.3911C29.2015 41.4081 29.1918 41.4232 29.1836 41.4362L29.1724 41.4541L29.1677 41.4618L29.1655 41.4654L29.1645 41.4671C29.164 41.4679 29.1635 41.4687 30.2796 42.1384L29.1635 41.4687C28.7893 42.0925 28.9915 42.9015 29.6153 43.2757Z" fill="white"/>
</svg>
