<svg width="26" height="26" viewBox="0 0 26 26" fill="none" xmlns="http://www.w3.org/2000/svg">
<circle opacity="0.7" cx="13" cy="13" r="13" fill="white"/>
<path fill-rule="evenodd" clip-rule="evenodd" d="M13.5356 9.14765C13.7992 8.88405 14.2266 8.88405 14.4902 9.14765L17.8652 12.5227C18.1288 12.7863 18.1288 13.2136 17.8652 13.4772L14.4902 16.8522C14.2266 17.1159 13.7992 17.1159 13.5356 16.8522C13.272 16.5886 13.272 16.1613 13.5356 15.8977L15.7583 13.675H5.57539C5.2026 13.675 4.90039 13.3727 4.90039 13C4.90039 12.6272 5.2026 12.325 5.57539 12.325H15.7583L13.5356 10.1022C13.272 9.83864 13.272 9.41126 13.5356 9.14765Z" fill="#5957D5"/>
<rect x="18.6816" y="8.94995" width="1.35" height="8.1" rx="0.675" fill="#5957D5"/>
</svg>
