<svg width="26" height="27" viewBox="0 0 26 27" fill="none" xmlns="http://www.w3.org/2000/svg">
<circle opacity="0.25" cx="13" cy="13.5" r="13" fill="#FFA877"/>
<path fill-rule="evenodd" clip-rule="evenodd" d="M13.5356 9.64765C13.7992 9.38405 14.2266 9.38405 14.4902 9.64765L17.8652 13.0227C18.1288 13.2863 18.1288 13.7136 17.8652 13.9772L14.4902 17.3522C14.2266 17.6159 13.7992 17.6159 13.5356 17.3522C13.272 17.0886 13.272 16.6613 13.5356 16.3977L15.7583 14.175H5.57539C5.2026 14.175 4.90039 13.8727 4.90039 13.5C4.90039 13.1272 5.2026 12.825 5.57539 12.825H15.7583L13.5356 10.6022C13.272 10.3386 13.272 9.91126 13.5356 9.64765Z" fill="#FFA877"/>
<rect x="18.6816" y="9.44995" width="1.35" height="8.1" rx="0.675" fill="#FFA877"/>
</svg>
