<svg width="134" height="134" viewBox="0 0 134 134" fill="none" xmlns="http://www.w3.org/2000/svg">
<g clip-path="url(#clip0_3447_10832)">
<circle cx="67" cy="67" r="65.5" stroke="white" stroke-width="3"/>
<g clip-path="url(#clip1_3447_10832)">
<path d="M71.3975 67.0393L90.0878 48.3485C91.3041 47.1327 91.3041 45.167 90.0878 43.9512C88.872 42.7355 86.9063 42.7355 85.6905 43.9512L66.9997 62.6421L48.3095 43.9512C47.0932 42.7355 45.128 42.7355 43.9122 43.9512C42.6959 45.167 42.6959 47.1327 43.9122 48.3485L62.6025 67.0393L43.9122 85.7301C42.6959 86.9459 42.6959 88.9116 43.9122 90.1274C44.5181 90.7338 45.3148 91.0385 46.1109 91.0385C46.9069 91.0385 47.703 90.7338 48.3095 90.1274L66.9997 71.4365L85.6905 90.1274C86.297 90.7338 87.0931 91.0385 87.8892 91.0385C88.6852 91.0385 89.4813 90.7338 90.0878 90.1274C91.3041 88.9116 91.3041 86.9459 90.0878 85.7301L71.3975 67.0393Z" fill="#FF6370"/>
</g>
</g>
<defs>
<clipPath id="clip0_3447_10832">
<rect width="134" height="134" fill="white"/>
</clipPath>
<clipPath id="clip1_3447_10832">
<rect width="48" height="48" fill="white" transform="translate(43 43)"/>
</clipPath>
</defs>
</svg>
