<svg width="20" height="20" viewBox="0 0 20 20" fill="none" xmlns="http://www.w3.org/2000/svg">
<path d="M17.7676 6.79992C17.5246 6.63546 17.1936 6.69761 17.028 6.93873L15.9424 8.51911C15.6604 7.21452 15.0071 6.01575 14.0351 5.05071C12.7032 3.72829 10.9323 3 9.04862 3C7.16501 3 5.39409 3.72829 4.06217 5.05071C1.31261 7.78067 1.31261 12.2226 4.06217 14.9525C5.43695 16.3175 7.24279 17 9.04862 17C10.8545 17 12.6603 16.3175 14.0351 14.9525C14.2429 14.7461 14.2429 14.4115 14.0351 14.2051C13.8272 13.9988 13.4902 13.9988 13.2824 14.2051C10.9479 16.523 7.14946 16.523 4.81499 14.2051C2.48052 11.8873 2.48052 8.11586 4.81499 5.79803C5.94586 4.67529 7.44937 4.05692 9.04869 4.05692C10.648 4.05692 12.1516 4.67529 13.2824 5.7981C14.1552 6.66463 14.7241 7.75348 14.9388 8.93554L13.0494 7.6561C12.8066 7.49164 12.4754 7.55379 12.3098 7.79491C12.1441 8.03603 12.2067 8.3648 12.4496 8.52926L15.268 10.4378C15.2681 10.4379 15.2683 10.4381 15.2684 10.4382C15.313 10.4684 15.3605 10.4906 15.4094 10.5057C15.4109 10.5062 15.4123 10.507 15.4138 10.5074C15.4221 10.5099 15.4306 10.5109 15.439 10.513C15.4815 10.5236 15.5247 10.5301 15.5678 10.5301C15.7379 10.5301 15.905 10.4493 16.008 10.2994L17.9074 7.53434C18.073 7.29315 18.0105 6.96438 17.7676 6.79992Z" fill="white"/>
</svg>
