<svg width="20" height="20" viewBox="0 0 20 20" fill="none" xmlns="http://www.w3.org/2000/svg">
<circle cx="10" cy="10" r="9.75" stroke="#E1DFF0" stroke-width="0.5"/>
<path fill-rule="evenodd" clip-rule="evenodd" d="M9.99659 4.30005L11.9678 6.93363L10.0029 9.56396L8.02773 6.93363L9.99659 4.30005ZM10.9407 6.93363L9.99264 5.66954L9.04455 6.93363L9.99264 8.19771L10.9407 6.93363ZM5.5 10.2977L7.47518 7.66978L9.45035 10.2977L7.47518 12.928L5.5 10.2977ZM7.47518 9.0344L6.52709 10.2977L7.47518 11.5642L8.42326 10.2977L7.47518 9.0344ZM8.02305 13.6697L9.99506 16.3L11.9663 13.6697L9.99506 11.0394L8.02305 13.6697ZM9.99822 14.9338L9.05014 13.6697L9.99506 12.4081L10.9431 13.6721L9.99822 14.9338ZM10.5496 10.2993L12.5208 7.66978L14.5 10.2993L12.5248 12.9296L10.5496 10.2993ZM12.5216 9.03521L11.5735 10.2993L12.5216 11.5626L13.4697 10.2993L12.5216 9.03521Z" fill="white"/>
</svg>
