<svg width="20" height="21" viewBox="0 0 20 21" fill="none" xmlns="http://www.w3.org/2000/svg">
<path fill-rule="evenodd" clip-rule="evenodd" d="M9.99431 0.5L13.2797 4.8893L10.0048 9.27319L6.71289 4.8893L9.99431 0.5ZM11.5679 4.8893L9.98773 2.78249L8.40759 4.8893L9.98773 6.99611L11.5679 4.8893ZM2.5 10.496L5.79196 6.11621L9.08392 10.496L5.79196 14.8799L2.5 10.496ZM5.79196 8.39059L4.21182 10.496L5.79196 12.6069L7.3721 10.496L5.79196 8.39059ZM6.70508 16.1161L9.99177 20.5L13.2771 16.1161L9.99177 11.7322L6.70508 16.1161ZM9.99704 18.2229L8.4169 16.1161L9.99177 14.0134L11.5719 16.1202L9.99704 18.2229ZM10.916 10.4988L14.2014 6.11621L17.4999 10.4988L14.208 14.8826L10.916 10.4988ZM14.2027 8.39194L12.6226 10.4988L14.2027 12.6042L15.7828 10.4988L14.2027 8.39194Z" fill="white"/>
</svg>
