<svg width="20" height="20" viewBox="0 0 20 20" fill="none" xmlns="http://www.w3.org/2000/svg">
<path fill-rule="evenodd" clip-rule="evenodd" d="M10.5947 5.71967C10.8876 5.42678 11.3624 5.42678 11.6553 5.71967L15.4053 9.46967C15.6982 9.76256 15.6982 10.2374 15.4053 10.5303L11.6553 14.2803C11.3624 14.5732 10.8876 14.5732 10.5947 14.2803C10.3018 13.9874 10.3018 13.5126 10.5947 13.2197L13.0643 10.75L1.75 10.75C1.33579 10.75 1 10.4142 1 10C1 9.58579 1.33579 9.25 1.75 9.25L13.0643 9.25L10.5947 6.78033C10.3018 6.48744 10.3018 6.01256 10.5947 5.71967Z" fill="white"/>
<rect x="16.3125" y="5.5" width="1.5" height="9" rx="0.75" fill="white"/>
</svg>
