<svg width="22" height="22" viewBox="0 0 22 22" fill="none" xmlns="http://www.w3.org/2000/svg">
<circle opacity="0.6" cx="11" cy="11" r="11" fill="white"/>
<path d="M12.7613 7.19848L9.40066 8.35818H15.3772C15.4422 8.35808 15.5065 8.37067 15.5666 8.39523C15.6267 8.41979 15.6812 8.45583 15.7272 8.5013C15.7732 8.54676 15.8096 8.60075 15.8344 8.66018C15.8593 8.7196 15.872 8.78328 15.8719 8.84758V12.9924C15.8718 13.2351 15.7742 13.4679 15.6007 13.6395L11.1927 18H6.37607C6.30174 18.0002 6.22903 17.9785 6.16716 17.9377C6.1053 17.897 6.05708 17.839 6.02861 17.771C6.00014 17.7031 5.99271 17.6284 6.00726 17.5562C6.02181 17.4841 6.05769 17.4179 6.11034 17.366L9.23653 14.7992L12.5972 13.6395H6.62382C6.49261 13.6395 6.36677 13.5879 6.274 13.4962C6.18122 13.4044 6.1291 13.2799 6.1291 13.1501V9.00762C6.12827 8.7653 6.22468 8.53256 6.39717 8.3605L10.8082 4H15.6241C15.6986 4.00031 15.7713 4.02241 15.8331 4.06351C15.8949 4.10462 15.9431 4.16289 15.9715 4.23099C15.9999 4.29909 16.0073 4.37398 15.9928 4.44624C15.9782 4.5185 15.9424 4.58489 15.8898 4.63707L12.7613 7.19848Z" fill="#5957D5"/>
</svg>
