<svg width="26" height="27" viewBox="0 0 26 27" fill="none" xmlns="http://www.w3.org/2000/svg">
<circle opacity="0.7" cx="13" cy="13.5" r="13" fill="white"/>
<path fill-rule="evenodd" clip-rule="evenodd" d="M16.8521 14.5816C17.1157 14.8481 17.1157 15.2803 16.8521 15.5468L13.4771 18.9595C13.2135 19.226 12.7861 19.226 12.5225 18.9595L9.14751 15.5468C8.8839 15.2803 8.8839 14.8481 9.14751 14.5816C9.41111 14.3151 9.8385 14.3151 10.1021 14.5816L12.3248 16.8291L12.3248 6.53263C12.3248 6.15568 12.627 5.8501 12.9998 5.8501C13.3726 5.8501 13.6748 6.15568 13.6748 6.53263L13.6748 16.8291L15.8975 14.5816C16.1611 14.3151 16.5885 14.3151 16.8521 14.5816Z" fill="#5957D5"/>
<rect x="17.0498" y="19.7852" width="1.36506" height="8.1" rx="0.682528" transform="rotate(90 17.0498 19.7852)" fill="#5957D5"/>
</svg>
