<svg width="20" height="20" viewBox="0 0 20 20" fill="none" xmlns="http://www.w3.org/2000/svg">
<path fill-rule="evenodd" clip-rule="evenodd" d="M18.3428 12.2822C18.6357 12.5751 18.6357 13.0499 18.3428 13.3428L14.5928 17.0928C14.2999 17.3857 13.8251 17.3857 13.5322 17.0928L9.78217 13.3428C9.48928 13.0499 9.48928 12.5751 9.78217 12.2822C10.0751 11.9893 10.5499 11.9893 10.8428 12.2822L13.3125 14.7518L13.3125 3.4375C13.3125 3.02329 13.6483 2.6875 14.0625 2.6875C14.4767 2.6875 14.8125 3.02329 14.8125 3.4375L14.8125 14.7518L17.2822 12.2822C17.5751 11.9893 18.0499 11.9893 18.3428 12.2822ZM10.2178 7.71783C9.92494 8.01072 9.45006 8.01072 9.15717 7.71783L6.6875 5.24816L6.6875 16.5625C6.6875 16.9767 6.35171 17.3125 5.9375 17.3125C5.52329 17.3125 5.1875 16.9767 5.1875 16.5625L5.1875 5.24816L2.71783 7.71783C2.42494 8.01072 1.95006 8.01072 1.65717 7.71783C1.36428 7.42494 1.36428 6.95006 1.65717 6.65717L5.40717 2.90717C5.70006 2.61428 6.17494 2.61428 6.46783 2.90717L10.2178 6.65717C10.5107 6.95006 10.5107 7.42494 10.2178 7.71783Z" fill="white"/>
</svg>
