<svg width="26" height="27" viewBox="0 0 26 27" fill="none" xmlns="http://www.w3.org/2000/svg">
<circle opacity="0.7" cx="13" cy="13.5" r="13" fill="white"/>
<path fill-rule="evenodd" clip-rule="evenodd" d="M20.5084 15.5539C20.772 15.8175 20.772 16.2449 20.5084 16.5085L17.1334 19.8835C16.8697 20.1471 16.4424 20.1471 16.1788 19.8835L12.8038 16.5085C12.5402 16.2449 12.5402 15.8175 12.8038 15.5539C13.0674 15.2903 13.4947 15.2903 13.7584 15.5539L15.9811 17.7766L15.9811 7.5937C15.9811 7.22091 16.2833 6.9187 16.6561 6.9187C17.0288 6.9187 17.3311 7.22091 17.3311 7.5937L17.3311 17.7766L19.5538 15.5539C19.8174 15.2903 20.2447 15.2903 20.5084 15.5539ZM13.1959 11.446C12.9322 11.7096 12.5049 11.7096 12.2413 11.446L10.0186 9.22329L10.0186 19.4062C10.0186 19.779 9.71635 20.0812 9.34355 20.0812C8.97076 20.0812 8.66855 19.779 8.66855 19.4062L8.66855 9.22329L6.44585 11.446C6.18225 11.7096 5.75486 11.7096 5.49126 11.446C5.22765 11.1824 5.22765 10.755 5.49126 10.4914L8.86626 7.1164C9.12986 6.8528 9.55725 6.8528 9.82085 7.1164L13.1959 10.4914C13.4595 10.755 13.4595 11.1824 13.1959 11.446Z" fill="#5957D5"/>
</svg>
