<svg width="18" height="18" viewBox="0 0 18 18" fill="none" xmlns="http://www.w3.org/2000/svg">
<path d="M8.99986 1.44641C9.617 1.44636 10.2107 1.68298 10.6586 2.10755C11.1064 2.53212 11.3744 3.11229 11.4074 3.72855L11.4106 3.85713H14.9463C15.0684 3.85716 15.186 3.90357 15.2753 3.98696C15.3646 4.07036 15.4188 4.18453 15.4272 4.30641C15.4355 4.42828 15.3972 4.54877 15.3202 4.64353C15.2431 4.73829 15.1329 4.80026 15.0119 4.81691L14.9463 4.82141H14.2655L13.4812 14.4983C13.4323 15.102 13.1579 15.6652 12.7126 16.0758C12.2674 16.4864 11.6839 16.7143 11.0782 16.7143H6.9215C6.31583 16.7143 5.73234 16.4864 5.28708 16.0758C4.84183 15.6652 4.56744 15.102 4.5185 14.4983L3.73357 4.82141H3.05343C2.93692 4.82141 2.82436 4.77921 2.73655 4.70263C2.64874 4.62605 2.59163 4.52027 2.57579 4.40484L2.57129 4.33927C2.57129 4.22276 2.61349 4.11019 2.69007 4.02238C2.76665 3.93458 2.87243 3.87747 2.98786 3.86163L3.05343 3.85713H6.58915C6.58915 3.21776 6.84313 2.60459 7.29523 2.15249C7.74732 1.7004 8.3605 1.44641 8.99986 1.44641ZM13.2986 4.82141H4.70107L5.47957 14.4206C5.50897 14.7828 5.67363 15.1206 5.94081 15.367C6.20799 15.6133 6.5581 15.75 6.9215 15.75H11.0782C11.4416 15.75 11.7917 15.6133 12.0589 15.367C12.3261 15.1206 12.4908 14.7828 12.5201 14.4206L13.2986 4.82141ZM8.99986 2.4107C8.63335 2.41065 8.28049 2.54974 8.01259 2.79986C7.74469 3.04998 7.58173 3.39248 7.55665 3.75813L7.55343 3.85713H10.4463L10.4431 3.75813C10.418 3.39248 10.255 3.04998 9.98713 2.79986C9.71923 2.54974 9.36637 2.41065 8.99986 2.4107Z" fill="#E1DFF0"/>
</svg>
