<svg width="80" height="80" viewBox="0 0 80 80" fill="none" xmlns="http://www.w3.org/2000/svg">
<rect x="1" y="1" width="78" height="78" rx="16" stroke="white" stroke-width="2"/>
<path d="M49.5833 34.25H34.25V30.4166C34.25 28.8833 34.825 27.5416 35.975 26.3916C38.275 24.0916 41.9166 24.0916 44.025 26.3916C44.7916 27.1583 45.175 28.1166 45.5583 29.075C45.75 30.0333 46.9 30.6083 47.8583 30.4166C48.8166 30.225 49.5833 29.075 49.2 28.1166C48.8166 26.3916 47.8583 24.8583 46.7083 23.7083C44.9833 21.7916 42.4916 20.8333 40 20.8333C34.6333 20.8333 30.4166 25.05 30.4166 30.4166V34.25C27.1583 34.25 24.6666 36.7416 24.6666 40V53.4166C24.6666 56.675 27.1583 59.1666 30.4166 59.1666H49.5833C52.8416 59.1666 55.3333 56.675 55.3333 53.4166V40C55.3333 36.7416 52.8416 34.25 49.5833 34.25ZM41.9166 49.5833C41.9166 50.7333 41.15 51.5 40 51.5C38.85 51.5 38.0833 50.7333 38.0833 49.5833V43.8333C38.0833 42.6833 38.85 41.9166 40 41.9166C41.15 41.9166 41.9166 42.6833 41.9166 43.8333V49.5833Z" fill="#37D388"/>
</svg>
