<svg width="20" height="20" viewBox="0 0 20 20" fill="none" xmlns="http://www.w3.org/2000/svg">
<path d="M16 17.5005C16 17.3016 15.921 17.1109 15.7803 16.9702C15.6397 16.8295 15.4489 16.7505 15.25 16.7505L4.25 16.7505C4.05109 16.7505 3.86032 16.8295 3.71967 16.9702C3.57902 17.1108 3.5 17.3016 3.5 17.5005C3.5 17.6994 3.57902 17.8902 3.71967 18.0309C3.86032 18.1715 4.05109 18.2505 4.25 18.2505L15.25 18.2505C15.4489 18.2505 15.6397 18.1715 15.7803 18.0309C15.921 17.8902 16 17.6994 16 17.5005ZM9.75 15.2505C9.94891 15.2505 10.1397 15.1715 10.2803 15.0309C10.421 14.8902 10.5 14.6994 10.5 14.5005L10.5 4.31053L13.22 7.03053C13.3622 7.16301 13.5502 7.23513 13.7445 7.2317C13.9388 7.22827 14.1242 7.14956 14.2616 7.01215C14.399 6.87474 14.4777 6.68935 14.4812 6.49505C14.4846 6.30075 14.4125 6.1127 14.28 5.97053L10.284 1.97353C10.2196 1.90855 10.1441 1.8557 10.061 1.81753C9.92123 1.75338 9.76506 1.73394 9.61382 1.76186C9.46259 1.78978 9.32366 1.8637 9.216 1.97353L5.22 5.97053C5.14631 6.03919 5.08721 6.12199 5.04622 6.21399C5.00523 6.30599 4.98319 6.4053 4.98141 6.506C4.97963 6.60671 4.99816 6.70674 5.03588 6.80012C5.0736 6.89351 5.12974 6.97835 5.20096 7.04956C5.27218 7.12078 5.35701 7.17693 5.4504 7.21465C5.54379 7.25237 5.64382 7.27089 5.74452 7.26912C5.84523 7.26734 5.94454 7.2453 6.03654 7.20431C6.12854 7.16332 6.21134 7.10421 6.28 7.03053L9 4.31053L9 14.5005C9 14.599 9.0194 14.6965 9.05709 14.7875C9.09478 14.8785 9.15003 14.9612 9.21967 15.0309C9.28931 15.1005 9.37199 15.1557 9.46299 15.1934C9.55398 15.2311 9.65151 15.2505 9.75 15.2505Z" fill="white"/>
</svg>
