<svg width="182" height="25" viewBox="0 0 182 25" fill="none" xmlns="http://www.w3.org/2000/svg">
<g clip-path="url(#clip0_571_15640)">
<path d="M12.4978 0L12.3301 0.569716V17.1001L12.4978 17.2674L20.1709 12.7318L12.4978 0Z" fill="#E3E3E3"/>
<path d="M12.4975 0L4.82422 12.7318L12.4975 17.2674V9.24404V0Z" fill="white"/>
<path d="M12.4978 18.7198L12.4033 18.8351V24.7234L12.4978 24.9994L20.1756 14.1865L12.4978 18.7198Z" fill="#E9E9E7"/>
<path d="M12.4975 24.9994V18.7198L4.82422 14.1865L12.4975 24.9994Z" fill="white"/>
<path d="M12.4971 17.2675L20.1701 12.7319L12.4971 9.24414V17.2675Z" fill="#C8C7C7"/>
<path d="M4.82422 12.7319L12.4975 17.2675V9.24414L4.82422 12.7319Z" fill="#D7D7D7"/>
</g>
<path d="M32.4463 5.8H36.8943C38.4303 5.8 39.7103 6.33867 40.7343 7.416C41.7689 8.48267 42.2863 9.81067 42.2863 11.4C42.2863 12.9893 41.7689 14.3173 40.7343 15.384C39.7103 16.4613 38.4303 17 36.8943 17H32.4463V5.8ZM34.6543 14.888H36.8943C37.8649 14.888 38.6543 14.568 39.2623 13.928C39.8703 13.2667 40.1743 12.424 40.1743 11.4C40.1743 10.3653 39.8703 9.528 39.2623 8.888C38.6543 8.23733 37.8649 7.912 36.8943 7.912H34.6543V14.888ZM44.7805 8.04C44.4392 8.04 44.1405 7.91733 43.8845 7.672C43.6392 7.416 43.5165 7.11733 43.5165 6.776C43.5165 6.43467 43.6392 6.136 43.8845 5.88C44.1405 5.624 44.4392 5.496 44.7805 5.496C45.1325 5.496 45.4312 5.624 45.6765 5.88C45.9325 6.136 46.0605 6.43467 46.0605 6.776C46.0605 7.11733 45.9325 7.416 45.6765 7.672C45.4312 7.91733 45.1325 8.04 44.7805 8.04ZM45.8205 17H43.7565V9H45.8205V17ZM49.7736 9V10.376C49.955 9.87467 50.2643 9.496 50.7016 9.24C51.139 8.97333 51.6403 8.84 52.2056 8.84V11.144C51.5763 11.0587 51.011 11.1867 50.5096 11.528C50.019 11.8587 49.7736 12.408 49.7736 13.176V17H47.7096V9H49.7736ZM60.8919 13.848H54.8599C55.1265 14.8507 55.8785 15.352 57.1159 15.352C57.9052 15.352 58.5025 15.0853 58.9079 14.552L60.5719 15.512C59.7825 16.6533 58.6199 17.224 57.0839 17.224C55.7612 17.224 54.6999 16.824 53.8999 16.024C53.0999 15.224 52.6999 14.216 52.6999 13C52.6999 11.8053 53.0945 10.8027 53.8839 9.992C54.6625 9.18133 55.6759 8.776 56.9239 8.776C58.1079 8.776 59.0732 9.18133 59.8199 9.992C60.5879 10.8027 60.9719 11.8053 60.9719 13C60.9719 13.224 60.9452 13.5067 60.8919 13.848ZM54.8279 12.248H58.9079C58.7905 11.7253 58.5505 11.3253 58.1879 11.048C57.8359 10.7707 57.4145 10.632 56.9239 10.632C56.3692 10.632 55.9105 10.776 55.5479 11.064C55.1852 11.3413 54.9452 11.736 54.8279 12.248ZM66.1583 17.224C64.9529 17.224 63.9449 16.8187 63.1343 16.008C62.3343 15.1973 61.9342 14.1947 61.9342 13C61.9342 11.8053 62.3343 10.8027 63.1343 9.992C63.9449 9.18133 64.9529 8.776 66.1583 8.776C66.9369 8.776 67.6463 8.96267 68.2863 9.336C68.9263 9.70933 69.4116 10.2107 69.7423 10.84L67.9663 11.88C67.8063 11.5493 67.5609 11.288 67.2303 11.096C66.9103 10.904 66.5476 10.808 66.1423 10.808C65.5236 10.808 65.0116 11.016 64.6063 11.432C64.2009 11.8373 63.9983 12.36 63.9983 13C63.9983 13.6187 64.2009 14.1413 64.6063 14.568C65.0116 14.9733 65.5236 15.176 66.1423 15.176C66.5583 15.176 66.9263 15.0853 67.2463 14.904C67.5769 14.712 67.8223 14.4507 67.9823 14.12L69.7743 15.144C69.4223 15.784 68.9209 16.2907 68.2703 16.664C67.6303 17.0373 66.9263 17.224 66.1583 17.224ZM75.4419 9V10.984H73.6339V14.312C73.6339 14.5893 73.7032 14.792 73.8419 14.92C73.9805 15.048 74.1832 15.1227 74.4499 15.144C74.7165 15.1547 75.0472 15.1493 75.4419 15.128V17C74.0445 17.16 73.0472 17.032 72.4499 16.616C71.8632 16.1893 71.5699 15.4213 71.5699 14.312V10.984H70.1779V9H71.5699V7.384L73.6339 6.76V9H75.4419ZM78.9611 17H76.8971V5.32H78.9611V17ZM84.2903 14.376L86.0663 9H88.2743L85.3623 17C84.9463 18.152 84.3916 18.984 83.6983 19.496C83.0156 20.0187 82.1623 20.2533 81.1383 20.2V18.28C81.6823 18.2907 82.1196 18.1733 82.4503 17.928C82.7809 17.6827 83.0423 17.288 83.2343 16.744L79.9543 9H82.2103L84.2903 14.376ZM93.3525 5.8H97.8005C99.3365 5.8 100.617 6.33867 101.641 7.416C102.675 8.48267 103.193 9.81067 103.193 11.4C103.193 12.9893 102.675 14.3173 101.641 15.384C100.617 16.4613 99.3365 17 97.8005 17H93.3525V5.8ZM95.5605 14.888H97.8005C98.7712 14.888 99.5605 14.568 100.169 13.928C100.777 13.2667 101.081 12.424 101.081 11.4C101.081 10.3653 100.777 9.528 100.169 8.888C99.5605 8.23733 98.7712 7.912 97.8005 7.912H95.5605V14.888ZM112.439 13.848H106.407C106.673 14.8507 107.425 15.352 108.663 15.352C109.452 15.352 110.049 15.0853 110.455 14.552L112.119 15.512C111.329 16.6533 110.167 17.224 108.631 17.224C107.308 17.224 106.247 16.824 105.447 16.024C104.647 15.224 104.247 14.216 104.247 13C104.247 11.8053 104.641 10.8027 105.431 9.992C106.209 9.18133 107.223 8.776 108.471 8.776C109.655 8.776 110.62 9.18133 111.367 9.992C112.135 10.8027 112.519 11.8053 112.519 13C112.519 13.224 112.492 13.5067 112.439 13.848ZM106.375 12.248H110.455C110.337 11.7253 110.097 11.3253 109.735 11.048C109.383 10.7707 108.961 10.632 108.471 10.632C107.916 10.632 107.457 10.776 107.095 11.064C106.732 11.3413 106.492 11.736 106.375 12.248ZM118.616 8.776C119.693 8.776 120.61 9.18667 121.368 10.008C122.136 10.8293 122.52 11.8267 122.52 13C122.52 14.1947 122.136 15.1973 121.368 16.008C120.621 16.8187 119.704 17.224 118.616 17.224C117.496 17.224 116.632 16.8347 116.024 16.056V20.2H113.96V9H116.024V9.944C116.632 9.16533 117.496 8.776 118.616 8.776ZM116.648 14.632C117.064 15.048 117.592 15.256 118.232 15.256C118.872 15.256 119.4 15.048 119.816 14.632C120.242 14.2053 120.456 13.6613 120.456 13C120.456 12.3387 120.242 11.8 119.816 11.384C119.4 10.9573 118.872 10.744 118.232 10.744C117.592 10.744 117.064 10.9573 116.648 11.384C116.232 11.8 116.024 12.3387 116.024 13C116.024 13.6613 116.232 14.2053 116.648 14.632ZM130.791 16.008C129.981 16.8187 128.978 17.224 127.783 17.224C126.589 17.224 125.586 16.8187 124.775 16.008C123.965 15.1973 123.559 14.1947 123.559 13C123.559 11.816 123.965 10.8187 124.775 10.008C125.597 9.18667 126.599 8.776 127.783 8.776C128.967 8.776 129.97 9.18667 130.791 10.008C131.613 10.8293 132.023 11.8267 132.023 13C132.023 14.184 131.613 15.1867 130.791 16.008ZM126.231 14.584C126.647 15 127.165 15.208 127.783 15.208C128.402 15.208 128.919 15 129.335 14.584C129.751 14.168 129.959 13.64 129.959 13C129.959 12.36 129.751 11.832 129.335 11.416C128.919 11 128.402 10.792 127.783 10.792C127.165 10.792 126.647 11 126.231 11.416C125.826 11.8427 125.623 12.3707 125.623 13C125.623 13.6293 125.826 14.1573 126.231 14.584ZM135.207 11.272C135.207 11.6133 135.693 11.9067 136.663 12.152C137.005 12.2267 137.314 12.3173 137.591 12.424C137.869 12.52 138.146 12.664 138.423 12.856C138.711 13.0373 138.935 13.2827 139.095 13.592C139.255 13.9013 139.335 14.2587 139.335 14.664C139.335 15.4853 139.026 16.12 138.407 16.568C137.789 17.0053 137.026 17.224 136.119 17.224C134.477 17.224 133.357 16.5893 132.759 15.32L134.551 14.312C134.797 15.0053 135.319 15.352 136.119 15.352C136.855 15.352 137.223 15.1227 137.223 14.664C137.223 14.3227 136.738 14.0293 135.767 13.784C135.405 13.688 135.095 13.592 134.839 13.496C134.583 13.4 134.306 13.2613 134.007 13.08C133.709 12.888 133.479 12.648 133.319 12.36C133.17 12.0613 133.095 11.7147 133.095 11.32C133.095 10.5307 133.383 9.912 133.959 9.464C134.546 9.00533 135.271 8.776 136.135 8.776C136.786 8.776 137.378 8.92533 137.911 9.224C138.445 9.512 138.866 9.928 139.175 10.472L137.415 11.432C137.159 10.888 136.733 10.616 136.135 10.616C135.869 10.616 135.645 10.68 135.463 10.808C135.293 10.9253 135.207 11.08 135.207 11.272ZM141.687 8.04C141.345 8.04 141.047 7.91733 140.791 7.672C140.545 7.416 140.423 7.11733 140.423 6.776C140.423 6.43467 140.545 6.136 140.791 5.88C141.047 5.624 141.345 5.496 141.687 5.496C142.039 5.496 142.337 5.624 142.583 5.88C142.839 6.136 142.967 6.43467 142.967 6.776C142.967 7.11733 142.839 7.416 142.583 7.672C142.337 7.91733 142.039 8.04 141.687 8.04ZM142.727 17H140.663V9H142.727V17ZM149.192 9V10.984H147.384V14.312C147.384 14.5893 147.453 14.792 147.592 14.92C147.731 15.048 147.933 15.1227 148.2 15.144C148.467 15.1547 148.797 15.1493 149.192 15.128V17C147.795 17.16 146.797 17.032 146.2 16.616C145.613 16.1893 145.32 15.4213 145.32 14.312V10.984H143.928V9H145.32V7.384L147.384 6.76V9H149.192ZM157.076 12.376V14.888H161.796V17H154.868V5.8H161.716V7.912H157.076V10.296H161.316V12.376H157.076ZM162.521 5.8H170.76V7.912H167.737V17H165.529V7.912H162.521V5.8ZM178.361 10.248V5.8H180.553V17H178.361V12.36H174.201V17H171.993V5.8H174.201V10.248H178.361Z" fill="white"/>
<defs>
<clipPath id="clip0_571_15640">
<rect width="25" height="25" fill="white"/>
</clipPath>
</defs>
</svg>
