<svg width="114" height="25" viewBox="0 0 114 25" fill="none" xmlns="http://www.w3.org/2000/svg">
<path d="M103.996 18.9034L99.9164 9.49108H102.652L105.434 16.2321L108.654 9.49108H111.343L104.997 22.4546H102.277L103.996 18.9034ZM94.0858 16.9549C94.3203 16.8921 94.5548 16.8135 94.7736 16.6878C94.9768 16.5778 95.18 16.4364 95.352 16.2793C95.5239 16.1221 95.6802 15.9336 95.8053 15.7293C95.9303 15.5093 96.0397 15.2736 96.1023 15.0379C96.1804 14.7708 96.2117 14.5037 96.2117 14.2208C96.2117 13.938 96.1804 13.6708 96.1023 13.4037C96.0397 13.168 95.9303 12.9323 95.8053 12.7123C95.6802 12.508 95.5239 12.3195 95.352 12.1624C95.18 12.0052 94.9768 11.8638 94.7736 11.7538C94.5548 11.6438 94.3203 11.5652 94.0858 11.5024C93.8357 11.4395 93.57 11.4081 93.3199 11.4238C93.0698 11.4238 92.804 11.4553 92.5539 11.5024C92.3195 11.5495 92.085 11.6438 91.8661 11.7538C91.6473 11.8638 91.4597 12.0052 91.2878 12.1624C91.1158 12.3195 90.9595 12.508 90.8345 12.7123C90.7094 12.9323 90.6 13.168 90.5375 13.4037C90.4593 13.6708 90.428 13.9537 90.428 14.2208C90.428 14.4879 90.4593 14.7708 90.5375 15.0379C90.6 15.2736 90.7094 15.5093 90.8345 15.7293C90.9595 15.9336 91.1158 16.1221 91.2878 16.2793C91.4597 16.4364 91.6629 16.5778 91.8661 16.6878C92.085 16.7978 92.3038 16.8921 92.5539 16.9549C92.804 17.0178 93.0541 17.0492 93.3199 17.0335C93.57 17.0492 93.8201 17.0178 94.0858 16.9549ZM91.319 19.0605C90.897 18.9505 90.4906 18.7934 90.1154 18.5734C89.3807 18.1649 88.7711 17.552 88.3647 16.8135C88.1459 16.4364 87.9895 16.0279 87.8801 15.6036C87.6613 14.6922 87.6613 13.7494 87.8801 12.838C87.9895 12.4138 88.1459 12.0052 88.3647 11.6281C88.7711 10.8896 89.3807 10.2925 90.1154 9.8682C90.4906 9.66393 90.897 9.49108 91.319 9.38109C91.7723 9.27109 92.2257 9.20824 92.6946 9.20824C92.9447 9.20824 93.1948 9.22395 93.4449 9.25538C93.6794 9.28681 93.8982 9.33395 94.1171 9.3968C94.3203 9.45965 94.5235 9.52251 94.7111 9.61679C94.8986 9.69536 95.0706 9.78963 95.2425 9.89963C95.3989 9.99391 95.5552 10.1196 95.6802 10.2453C95.8053 10.371 95.9303 10.4967 96.0241 10.6382V9.50679H98.6189V18.9663H96.0241V17.8349C95.6802 18.2749 95.2269 18.6206 94.7111 18.8563C94.4141 18.9977 94.1014 19.092 93.7732 19.1391C93.4137 19.202 93.0385 19.2491 92.679 19.2334C92.2257 19.2334 91.7723 19.1862 91.319 19.0605ZM81.9089 11.8952C82.284 11.8952 82.6592 11.8638 83.0187 11.7695C83.3001 11.691 83.5658 11.5652 83.7847 11.3767C83.9879 11.2038 84.1442 10.9839 84.238 10.7324C84.3318 10.4496 84.3943 10.151 84.3787 9.85249C84.3787 9.55394 84.3318 9.25538 84.238 8.97254C84.1442 8.72113 83.9879 8.51685 83.7847 8.344C83.5658 8.17116 83.3001 8.02974 83.0187 7.96688C82.6592 7.8726 82.284 7.82546 81.9089 7.84118H79.3609V11.8952H81.9089ZM76.6723 5.60988H82.1746C82.9406 5.59416 83.6909 5.70416 84.4099 5.92414C84.9883 6.09699 85.5198 6.41126 85.9731 6.80409C86.3795 7.18121 86.6921 7.6369 86.8953 8.15544C87.0985 8.70541 87.208 9.28681 87.1923 9.8682C87.1923 10.4496 87.0985 11.031 86.8953 11.5652C86.6921 12.0838 86.3795 12.5395 85.9731 12.9166C85.5198 13.3251 84.9883 13.6237 84.4099 13.7966C83.6909 14.0165 82.9249 14.1265 82.1746 14.1108H79.3766V18.9663H76.688L76.6723 5.60988ZM65.1519 9.49108H67.7311V10.6224C67.8874 10.4025 68.075 10.1982 68.2939 10.0411C68.5127 9.8682 68.7628 9.71107 69.0285 9.60107C69.3099 9.47537 69.6225 9.38109 69.9352 9.31823C70.2791 9.25538 70.623 9.22395 70.9825 9.22395C71.5296 9.20824 72.0767 9.30252 72.5769 9.49108C73.0302 9.66393 73.4523 9.93106 73.7961 10.2768C74.14 10.6382 74.3901 11.0781 74.5465 11.5495C74.734 12.0995 74.8122 12.6652 74.8122 13.2466V18.9663H72.233V13.9223C72.233 13.5608 72.1861 13.1837 72.0767 12.838C71.9829 12.5552 71.8422 12.2881 71.639 12.0524C71.4514 11.8481 71.2013 11.6752 70.9356 11.581C70.326 11.3767 69.6538 11.3767 69.0285 11.581C68.7628 11.6752 68.5127 11.8481 68.3251 12.0524C68.1219 12.2881 67.9812 12.5552 67.8874 12.838C67.778 13.1837 67.7311 13.5608 67.7311 13.9223V18.9663H65.1676L65.1519 9.49108ZM58.8055 16.9235C59.0557 16.8607 59.2901 16.7821 59.509 16.6564C59.7278 16.5464 59.9154 16.405 60.0873 16.2321C60.2593 16.0593 60.4 15.8707 60.525 15.6664C60.6501 15.4465 60.7439 15.2265 60.7907 14.9908C60.9158 14.4722 60.9158 13.938 60.7907 13.4194C60.6813 12.948 60.4312 12.5081 60.0873 12.1781C59.9154 12.0052 59.7122 11.8638 59.509 11.7538C59.2901 11.6281 59.04 11.5495 58.8055 11.4867C58.5398 11.4238 58.2584 11.3924 57.9927 11.3924C57.727 11.3924 57.4456 11.4238 57.1799 11.4867C56.9298 11.5495 56.6953 11.6281 56.4765 11.7538C56.2576 11.8638 56.07 12.0052 55.8981 12.1781C55.7261 12.3509 55.5855 12.5395 55.4604 12.7438C55.0853 13.4351 54.9915 14.2365 55.1947 15.0065C55.2572 15.2422 55.351 15.4779 55.4604 15.6822C55.5698 15.8864 55.7261 16.075 55.8981 16.2478C56.07 16.4207 56.2576 16.5621 56.4765 16.6721C56.6953 16.7821 56.9298 16.8764 57.1799 16.9392C57.4456 17.0021 57.7113 17.0335 57.9927 17.0335C58.2741 17.0335 58.5398 17.0021 58.8055 16.9235ZM56.4765 19.0605C56.0075 18.9505 55.5542 18.7934 55.1322 18.5734C54.7257 18.3691 54.3662 18.1177 54.0223 17.8192C53.6941 17.5206 53.4127 17.1906 53.1938 16.8135C52.9594 16.4364 52.7874 16.0279 52.6624 15.6036C52.4123 14.6922 52.4123 13.7337 52.6624 12.838C52.7874 12.4138 52.9594 12.0052 53.1938 11.6281C53.6628 10.8739 54.3349 10.261 55.1322 9.8682C55.5542 9.64821 56.0075 9.49108 56.4765 9.38109C57.4769 9.14539 58.5242 9.14539 59.5246 9.38109C59.9935 9.49108 60.4312 9.64821 60.8533 9.8682C61.2597 10.0725 61.6192 10.3239 61.9631 10.6382C62.2914 10.9367 62.5727 11.2667 62.8072 11.6438C63.0417 12.0209 63.2293 12.4295 63.3387 12.8537C63.5888 13.7651 63.5888 14.7236 63.3387 15.6193C63.1042 16.4835 62.6196 17.2535 61.9631 17.8349C61.6348 18.1334 61.2597 18.3849 60.8533 18.5891C60.4312 18.8091 59.9779 18.9663 59.5246 19.0762C58.5242 19.2962 57.4769 19.2962 56.4765 19.0605ZM46.441 16.9235C46.6911 16.8607 46.9256 16.7821 47.1445 16.6564C47.3633 16.5464 47.5509 16.405 47.7228 16.2321C47.8948 16.0593 48.0355 15.8707 48.1605 15.6664C48.2856 15.4465 48.3794 15.2265 48.4262 14.9908C48.5513 14.4722 48.5513 13.938 48.4262 13.4194C48.3168 12.948 48.0667 12.5081 47.7228 12.1781C47.5509 12.0052 47.3477 11.8638 47.1445 11.7538C46.9256 11.6281 46.6755 11.5495 46.441 11.4867C46.1753 11.4238 45.8939 11.3924 45.6282 11.3924C45.3625 11.3924 45.0811 11.4238 44.8154 11.4867C44.5653 11.5495 44.3308 11.6281 44.112 11.7538C43.9087 11.8638 43.7055 12.0052 43.5336 12.1781C43.3616 12.3352 43.221 12.5395 43.0959 12.7438C42.9865 12.9637 42.8927 13.1837 42.8302 13.4194C42.7676 13.6708 42.7207 13.938 42.7364 14.2051C42.7364 14.4722 42.7676 14.7394 42.8302 14.9908C42.8927 15.2265 42.9865 15.4622 43.0959 15.6664C43.2053 15.8707 43.3616 16.0593 43.5336 16.2321C43.7055 16.405 43.8931 16.5464 44.112 16.6564C44.3308 16.7664 44.5653 16.8607 44.8154 16.9235C45.0811 16.9864 45.3468 17.0178 45.6282 17.0178C45.8939 17.0178 46.1753 16.9864 46.441 16.9235ZM44.0963 19.0605C43.6274 18.9505 43.1741 18.7934 42.752 18.5734C42.3456 18.3691 41.9861 18.1177 41.6422 17.8192C41.3139 17.5206 41.0326 17.1906 40.8137 16.8135C40.5792 16.4364 40.4073 16.0279 40.2822 15.6036C40.0321 14.6922 40.0321 13.7337 40.2822 12.838C40.4073 12.4138 40.5792 12.0052 40.8137 11.6281C41.0482 11.251 41.3295 10.921 41.6422 10.6224C41.9704 10.3239 42.3456 10.0568 42.752 9.85249C43.1741 9.6325 43.6274 9.47537 44.0963 9.36537C45.0967 9.14539 46.144 9.14539 47.1445 9.36537C47.6134 9.47537 48.0511 9.6325 48.4731 9.85249C48.8796 10.0568 49.2391 10.3082 49.583 10.6224C49.9112 10.921 50.1926 11.251 50.4271 11.6281C50.6615 12.0052 50.8491 12.4138 50.9585 12.838C51.2086 13.7494 51.2086 14.7079 50.9585 15.6036C50.7241 16.4678 50.2395 17.2378 49.583 17.8192C49.2547 18.1177 48.8796 18.3691 48.4731 18.5734C48.0511 18.7934 47.5978 18.9505 47.1445 19.0605C46.1597 19.2962 45.1124 19.2962 44.0963 19.0605ZM23.7754 5.60988H26.4953L31.1222 12.728L35.7804 5.60988H38.4846V18.9663H35.796V9.80535L31.9507 15.7136H30.3094L26.464 9.80535V18.9663H23.7754V5.60988Z" fill="white"/>
<path d="M17.5853 7.99836C19.0859 7.99836 20.2895 6.77271 20.2895 5.27994C20.2895 3.77145 19.0703 2.56152 17.5853 2.56152C16.0847 2.56152 14.881 3.78717 14.881 5.27994C14.881 6.77271 16.0847 7.99836 17.5853 7.99836ZM9.26934 20.2705C5.61158 20.2705 2.65723 17.3007 2.65723 13.6237C2.65723 9.94682 5.61158 6.97699 9.26934 6.97699C12.9271 6.97699 15.8815 9.94682 15.8815 13.6237C15.8815 17.3007 12.9271 20.2705 9.26934 20.2705Z" fill="white"/>
</svg>
