<svg width="154" height="20" viewBox="0 0 154 20" fill="none" xmlns="http://www.w3.org/2000/svg">
<path fill-rule="evenodd" clip-rule="evenodd" d="M112.894 12.7929L111.338 15.413C112.463 16.55 114.02 17.2421 116.174 17.2421C119.215 17.2421 120.986 15.413 120.986 12.7435C120.986 9.82674 118.736 8.91216 117.012 8.22006C115.935 7.77514 115.049 7.42908 115.049 6.71226C115.049 6.06959 115.48 5.62467 116.318 5.62467C117.347 5.62467 118.401 5.99544 119.239 6.78642L120.747 4.24046C119.646 3.2023 118.137 2.63379 116.438 2.63379C113.397 2.63379 111.745 4.7101 111.745 6.95944C111.745 9.95032 113.948 10.7907 115.671 11.4828C116.773 11.903 117.682 12.2738 117.682 13.0648C117.682 13.7569 117.108 14.276 116.15 14.276C114.857 14.3007 113.684 13.6827 112.894 12.7929ZM50.3133 16.995V5.87185H47.4404V2.88097H56.4182V5.87185H53.5693V16.995H50.3133ZM68.7955 16.995L67.0239 12.1502H65.8269V16.995H62.571V2.88097H68.0294C70.639 2.88097 72.3148 4.85841 72.3148 7.47852C72.3148 9.87617 71.1417 11.0873 70.1362 11.5323L72.4106 16.995H68.7955ZM69.011 7.52796C69.011 6.4898 68.3885 5.87185 67.5267 5.87185H65.8269V9.18406H67.5267C68.3885 9.18406 69.011 8.56612 69.011 7.52796ZM85.3625 14.8445L85.8653 16.995H89.3845L85.4343 2.88097H81.508L77.5578 16.995H81.0771L81.5799 14.8445H85.3625ZM82.2263 11.8536L83.4951 6.44037L84.74 11.8536H82.2263ZM102.313 16.995L98.2426 9.57955V16.995H94.9867V2.88097H98.2905L102.121 9.95032V2.88097H105.353V16.995H102.313ZM134.273 16.995L133.771 14.8445H129.964L129.461 16.995H125.942L129.892 2.88097H133.818L137.769 16.995H134.273ZM131.879 6.44037L130.61 11.8536H133.124L131.879 6.44037ZM147.489 11.8536L150.17 17.0197H154L149.548 9.5054L153.737 2.90569H149.955L146.651 8.86273V2.90569H143.395V17.0197H146.651V13.3367L147.489 11.8536Z" fill="white"/>
<path d="M32.8361 8.41763L25.5102 0.829193L25.4863 0.804474C25.4384 0.755038 25.4144 0.73032 25.3666 0.680884C25.3426 0.656166 25.3187 0.65617 25.2947 0.631452C25.2708 0.606734 25.2229 0.582012 25.199 0.557294C25.175 0.532576 25.1511 0.53258 25.1272 0.507862C25.1032 0.483144 25.0553 0.458423 25.0314 0.458423C25.0075 0.433705 24.9835 0.433702 24.9596 0.408984C24.9356 0.384266 24.8877 0.384271 24.8638 0.359553C24.8399 0.359553 24.8159 0.334833 24.792 0.334833C24.7441 0.310115 24.7202 0.310112 24.6723 0.285394C24.6483 0.285394 24.6244 0.260682 24.6005 0.260682C24.5526 0.260682 24.5286 0.235962 24.4808 0.235962C24.4568 0.235962 24.4329 0.235961 24.385 0.211243C24.3371 0.211243 24.3132 0.186523 24.2653 0.186523C24.2174 0.186523 24.1695 0.186523 24.1216 0.186523C24.0977 0.186523 24.0738 0.186523 24.0498 0.186523C24.0259 0.186523 24.0259 0.186523 24.0019 0.186523C23.9541 0.186523 23.9062 0.186523 23.8583 0.186523C23.8344 0.186523 23.7865 0.186525 23.7625 0.211243C23.7386 0.211243 23.6907 0.211244 23.6668 0.235962C23.6189 0.235962 23.5949 0.260682 23.571 0.260682C23.5471 0.260682 23.4992 0.285394 23.4752 0.285394C23.4513 0.285394 23.4034 0.310113 23.3795 0.310113C23.3555 0.310113 23.3077 0.334833 23.2837 0.334833C23.2598 0.359551 23.2358 0.359554 23.188 0.384272C23.164 0.40899 23.1161 0.408986 23.0922 0.433704C23.0683 0.458422 23.0443 0.458425 23.0204 0.483143C22.9964 0.507861 22.9485 0.532576 22.9246 0.557294C22.9007 0.582012 22.8767 0.606733 22.8528 0.606733C22.8288 0.631451 22.8049 0.656166 22.757 0.680884C22.7091 0.705602 22.6852 0.755038 22.6373 0.804474L22.6134 0.829193L11.5288 12.2736V2.36171C11.5288 1.17525 10.5951 0.186523 9.42205 0.186523C8.2729 0.186523 7.31527 1.15053 7.31527 2.36171V12.3478L3.70023 8.61537C2.88624 7.77495 1.54557 7.77495 0.731582 8.61537C-0.0824022 9.45578 -0.0824022 10.84 0.731582 11.6804L7.88985 19.0711C8.29684 19.4913 8.84748 19.7138 9.37417 19.7138H9.39811H9.42205C10.1163 19.7138 10.7388 19.3677 11.1218 18.7992L21.9909 7.57721V17.5386C21.9909 18.725 22.9246 19.7138 24.0977 19.7138C25.2469 19.7138 26.2045 18.7498 26.2045 17.5386V7.57721L29.9392 11.4332C30.7532 12.2736 32.0939 12.2736 32.9079 11.4332C33.65 10.6175 33.65 9.25804 32.8361 8.41763Z" fill="white"/>
</svg>
