<svg width="74" height="25" viewBox="0 0 74 25" fill="none" xmlns="http://www.w3.org/2000/svg">
<path d="M41.2923 21.3145C43.5215 21.6298 44.9051 21.2094 45.9557 20.1322C46.6219 19.4492 47.1343 18.661 47.5699 17.8203C49.3635 14.4311 53.7194 6.26037 53.7194 6.26037H50.5934L47.3393 12.9599L46.3144 6.26037H42.9834V6.418C42.9834 6.418 44.1108 12.5395 44.6745 15.6922C44.7514 16.1651 44.8539 17.3736 44.034 18.1355C43.5727 18.5822 42.9065 18.9237 41.7535 18.7398L41.2923 21.3145ZM38.8069 6.26037L35.7833 13.3014L35.7065 13.2751L35.2965 6.44428H31.9911L28.7883 13.3014L28.7114 13.2489L28.5833 6.26037H25.4316L26.0466 17.4787H29.4545L32.7598 10.175H32.8367L33.3492 17.4787H36.7826L41.7535 6.26037H38.8069ZM56.9992 17.4787H53.6938C54.4369 13.6955 55.1287 10.0436 55.8718 6.26037H58.4341V8.3359C58.7672 7.49518 59.254 6.68073 60.0483 6.33919C60.817 5.99765 62.0213 6.02392 63.2512 6.39173C62.7644 7.36382 62.4057 8.20453 61.8676 9.25543C61.4064 9.15034 60.9708 9.04525 60.5352 8.99271C59.5615 8.88762 58.8697 9.28171 58.5366 10.2275C58.306 10.8843 58.1522 11.5937 58.0241 12.2768C57.6654 14.0108 57.3579 15.7447 56.9992 17.4787ZM67.5815 8.94016C68.0427 8.36217 68.9139 8.02063 69.5289 8.23081C70.2975 8.46726 70.5538 9.36052 70.0157 9.96479C69.8363 10.175 69.5801 10.3326 69.3239 10.4377C68.5296 10.753 67.7096 10.7267 66.8384 10.5691C66.9665 9.93852 67.1972 9.41307 67.5815 8.94016ZM71.8093 14.6938H71.7068C70.4513 15.193 69.042 15.3244 68.0683 15.0354C66.9922 14.7201 66.3772 13.7743 66.5822 12.6971C69.7595 12.9599 71.1175 12.3556 71.8605 11.909C73.8335 10.7004 74.3204 7.46891 71.7581 6.5231C69.5032 5.68238 66.3516 6.07647 64.8655 7.91554C63.5074 9.59698 63.1231 11.436 63.3281 13.5116C63.4818 15.0617 64.5067 17.2685 67.889 17.6364C69.9388 17.8465 71.2456 17.2948 71.3481 17.2685L71.8093 14.6938Z" fill="white"/>
<path d="M12.9268 12.5137H20.4343L16.3859 22.6811C15.8222 24.0998 14.4898 25.0194 13.0036 25.0194H5.49609L9.54453 14.8519C10.1082 13.4069 11.4406 12.5137 12.9268 12.5137Z" fill="white"/>
<path d="M20.4342 12.5137L15.8733 18.4512C15.1815 19.3971 14.131 20.0013 12.9011 20.0013H7.44336L9.51882 14.8256C10.0825 13.4332 11.4149 12.5137 12.9011 12.5137H20.4342Z" fill="#D2D2D2"/>
<path d="M10.416 6.26074H17.9236L13.8751 16.4282C13.3114 17.8469 11.979 18.7664 10.4929 18.7664H2.98535L7.03379 8.59899C7.5975 7.18028 8.95552 6.26074 10.416 6.26074Z" fill="white"/>
<path d="M17.9489 6.26074L13.388 12.1983C12.6962 13.1441 11.6456 13.7484 10.4157 13.7484H4.95801L7.03347 8.57272C7.59718 7.18028 8.92958 6.26074 10.4157 6.26074H17.9489Z" fill="#D2D2D2"/>
<path d="M7.93068 0.0078125H15.4382L11.3898 10.1753C10.8261 11.594 9.49368 12.5135 8.00755 12.5135H0.5L4.54844 2.34606C5.11215 0.927348 6.44454 0.0078125 7.93068 0.0078125Z" fill="white"/>
</svg>
