<svg width="18" height="18" viewBox="0 0 18 18" fill="none" xmlns="http://www.w3.org/2000/svg">
<path d="M3.12322 12.2618C2.97922 12.2618 2.8355 12.207 2.72553 12.097C2.50588 11.8773 2.50588 11.5213 2.72553 11.3016L11.5157 2.51142C11.7351 2.29177 12.0914 2.29177 12.3111 2.51142C12.5307 2.73108 12.5307 3.08714 12.3111 3.3068L3.52091 12.097C3.41122 12.2067 3.26722 12.2618 3.12322 12.2618Z" fill="white"/>
<path d="M2.25471 16.3127C2.21562 16.3127 2.17596 16.3085 2.13631 16.3C1.83256 16.2348 1.63906 15.9358 1.70431 15.6321L2.57337 11.5812C2.63862 11.2775 2.93899 11.0845 3.24134 11.1492C3.54509 11.2145 3.73858 11.5134 3.67333 11.8172L2.80427 15.868C2.74774 16.1321 2.51431 16.3127 2.25471 16.3127Z" fill="white"/>
<path d="M6.30511 15.4436C6.16111 15.4436 6.01739 15.3888 5.90742 15.2788C5.68776 15.0592 5.68776 14.7031 5.90742 14.4835L14.6976 5.69355C14.917 5.47389 15.2733 5.47389 15.493 5.69355C15.7126 5.91321 15.7126 6.26927 15.493 6.48893L6.70308 15.2788C6.59311 15.3888 6.44911 15.4436 6.30511 15.4436Z" fill="white"/>
<path d="M2.25354 16.3124C1.99395 16.3124 1.76079 16.1319 1.70398 15.8678C1.63901 15.564 1.83223 15.2651 2.13598 15.1998L6.18682 14.3308C6.49086 14.2663 6.78982 14.4593 6.85479 14.7628C6.91976 15.0665 6.72654 15.3655 6.42279 15.4307L2.37195 16.2998C2.33229 16.3085 2.29264 16.3124 2.25354 16.3124Z" fill="white"/>
<path d="M13.5042 8.24421C13.3602 8.24421 13.2162 8.18937 13.1065 8.0794L9.92475 4.89762C9.7051 4.67796 9.7051 4.3219 9.92475 4.10224C10.1441 3.88259 10.5008 3.88259 10.7201 4.10224L13.9019 7.28402C14.1216 7.50368 14.1216 7.85974 13.9019 8.0794C13.7922 8.18937 13.6482 8.24421 13.5042 8.24421Z" fill="white"/>
<path d="M15.0954 6.6536C14.9514 6.6536 14.8074 6.59876 14.6974 6.48879C14.4777 6.26913 14.4777 5.91307 14.6974 5.69313C15.0104 5.3801 15.1828 4.95626 15.1828 4.50007C15.1828 4.04388 15.0104 3.62004 14.6974 3.30701C14.3841 2.9937 13.9602 2.82129 13.504 2.82129C13.0479 2.82129 12.624 2.9937 12.311 3.30701C12.0916 3.52666 11.7355 3.52695 11.5153 3.30701C11.2957 3.08735 11.2957 2.73129 11.5153 2.51135C12.0407 1.9857 12.7469 1.69629 13.504 1.69629C14.2609 1.69629 14.9674 1.9857 15.4928 2.51135C16.0184 3.03673 16.3078 3.74295 16.3078 4.50007C16.3078 5.2572 16.0184 5.96341 15.4928 6.48879C15.3834 6.59848 15.2394 6.6536 15.0954 6.6536Z" fill="white"/>
</svg>
