<svg width="40" height="40" viewBox="0 0 40 40" fill="none" xmlns="http://www.w3.org/2000/svg">
<path d="M30.2092 17.4777L24.7544 22.867L20.0011 27.564L15.2479 22.867L9.78926 17.4777L4.64624 22.0582C4.64624 22.0582 4.64624 22.0582 4.65099 22.0582L4.89531 22.3052H4.90006L15.1148 32.4L19.9992 27.5772L24.8837 32.4L35.0984 22.309L35.3475 22.0666H35.3523L30.2092 17.4777Z" fill="white"/>
<path d="M4.88965 22.3149C4.24753 21.6804 3.73817 20.9271 3.39066 20.098C3.04315 19.269 2.86428 18.3804 2.86428 17.4831C2.86428 16.5857 3.04315 15.6972 3.39066 14.8681C3.73817 14.0391 4.24753 13.2858 4.88965 12.6513L9.99846 7.60292L14.8881 12.4347L4.88965 22.3149Z" fill="url(#paint0_linear_3318_1856)"/>
<path d="M25.1072 12.4318L29.9968 7.59996L35.1104 12.653C35.7525 13.2875 36.2618 14.0408 36.6093 14.8698C36.9569 15.6989 37.1357 16.5874 37.1357 17.4848C37.1357 18.3821 36.9569 19.2707 36.6093 20.0997C36.2618 20.9288 35.7525 21.682 35.1104 22.3166L25.1072 12.4318Z" fill="url(#paint1_linear_3318_1856)"/>
<defs>
<linearGradient id="paint0_linear_3318_1856" x1="2.44482" y1="19.899" x2="12.3243" y2="9.90121" gradientUnits="userSpaceOnUse">
<stop stop-color="white" stop-opacity="0.5"/>
<stop offset="1" stop-color="white" stop-opacity="0.7"/>
</linearGradient>
<linearGradient id="paint1_linear_3318_1856" x1="27.552" y1="10.0159" x2="37.4361" y2="20.0183" gradientUnits="userSpaceOnUse">
<stop stop-color="white" stop-opacity="0.7"/>
<stop offset="1" stop-color="white" stop-opacity="0.5"/>
</linearGradient>
</defs>
</svg>