<svg width="50" height="50" viewBox="0 0 50 50" fill="none" xmlns="http://www.w3.org/2000/svg">
<path d="M37.7614 21.8467L30.9428 28.5834L25.0013 34.4546L19.0597 28.5834L12.2364 21.8467L5.80762 27.5723C5.80762 27.5723 5.80762 27.5723 5.81356 27.5723L6.11896 27.8812H6.1249L18.8933 40.4997L24.9989 34.4711L31.1044 40.4997L43.8729 27.8859L44.1842 27.5829H44.1901L37.7614 21.8467Z" fill="white"/>
<path d="M6.11206 27.8936C5.30941 27.1004 4.67271 26.1588 4.23832 25.1225C3.80393 24.0862 3.58035 22.9755 3.58035 21.8538C3.58035 20.7321 3.80393 19.6214 4.23832 18.5851C4.67271 17.5488 5.30941 16.6072 6.11206 15.814L12.4981 9.5036L18.6102 15.5434L6.11206 27.8936Z" fill="url(#paint0_linear_2978_11530)"/>
<path d="M31.3838 15.54L37.4959 9.50028L43.8878 15.8165C44.6904 16.6097 45.3271 17.5513 45.7615 18.5876C46.1959 19.6239 46.4195 20.7346 46.4195 21.8563C46.4195 22.978 46.1959 24.0887 45.7615 25.125C45.3271 26.1613 44.6904 27.1029 43.8878 27.896L31.3838 15.54Z" fill="url(#paint1_linear_2978_11530)"/>
<defs>
<linearGradient id="paint0_linear_2978_11530" x1="3.05602" y1="24.8737" x2="15.4053" y2="12.3765" gradientUnits="userSpaceOnUse">
<stop stop-color="white" stop-opacity="0.5"/>
<stop offset="1" stop-color="white" stop-opacity="0.7"/>
</linearGradient>
<linearGradient id="paint1_linear_2978_11530" x1="34.4398" y1="12.5202" x2="46.795" y2="25.0232" gradientUnits="userSpaceOnUse">
<stop stop-color="white" stop-opacity="0.7"/>
<stop offset="1" stop-color="white" stop-opacity="0.5"/>
</linearGradient>
</defs>
</svg>
