<svg xmlns="http://www.w3.org/2000/svg" width="134" height="35" viewBox="0 0 134 35" fill="none"><script xmlns=""/><script xmlns="" class="4GJMzOYWrq1E_HbQB231J" id="jwallet"/>
<path fill-rule="evenodd" clip-rule="evenodd" d="M7.66996 2.90849C10.508 1.01216 13.8447 0 17.258 0C21.8351 0 26.2247 1.81824 29.4612 5.05474C32.6977 8.29123 34.5159 12.6809 34.5159 17.258C34.5159 20.6713 33.5038 24.0079 31.6074 26.846C29.7111 29.684 27.0158 31.896 23.8623 33.2022C20.7088 34.5084 17.2388 34.8502 13.8911 34.1843C10.5434 33.5184 7.46831 31.8747 5.05475 29.4612C2.64118 27.0476 0.997516 23.9725 0.331614 20.6248C-0.334287 17.2771 0.00747762 13.8071 1.31369 10.6536C2.6199 7.50014 4.8319 4.80482 7.66996 2.90849ZM23.1257 19.8227C23.3515 20.2804 23.635 20.7074 23.9694 21.0931L27.9387 17.1285L23.9694 13.1592C24.3454 12.8282 24.7608 12.5448 25.2062 12.3155C25.4194 12.2107 25.6138 12.0714 25.7815 11.9032C25.9938 11.6904 26.16 11.4363 26.2699 11.1565C26.3798 10.8768 26.4309 10.5774 26.4201 10.277C26.4093 9.97666 26.3368 9.68173 26.2072 9.41058C26.0775 9.13943 25.8934 8.89785 25.6664 8.70089C25.4695 8.47386 25.2279 8.28979 24.9567 8.16013C24.6856 8.03047 24.3906 7.95799 24.0903 7.9472C23.7899 7.93641 23.4905 7.98754 23.2108 8.0974C22.931 8.20727 22.6769 8.37353 22.4641 8.58583C22.297 8.75446 22.1578 8.94865 22.0518 9.1611C21.8331 9.61845 21.556 10.0455 21.2273 10.4315L17.258 6.46215L13.2743 10.4315C13.6584 10.7678 14.0856 11.0516 14.5446 11.2752C14.7568 11.3817 14.9509 11.5208 15.1199 11.6875C15.3328 11.8999 15.4997 12.1539 15.61 12.4338C15.7202 12.7136 15.7716 13.0131 15.7608 13.3137C15.75 13.6143 15.6773 13.9094 15.5472 14.1806C15.4171 14.4518 15.2325 14.6932 15.0048 14.8898C14.8079 15.1168 14.5663 15.3009 14.2951 15.4305C14.024 15.5602 13.7291 15.6327 13.4287 15.6435C13.1283 15.6543 12.829 15.6031 12.5492 15.4933C12.2694 15.3834 12.0153 15.2171 11.8025 15.0048C11.6333 14.838 11.4938 14.6435 11.3903 14.4296C11.1633 13.9725 10.8798 13.5457 10.5465 13.1592L6.57721 17.1189L10.5465 21.0931C10.1729 21.4284 9.75711 21.7137 9.30971 21.9416C9.09756 22.048 8.90344 22.1872 8.73445 22.3538C8.5215 22.5662 8.35466 22.8203 8.24439 23.1001C8.13412 23.3799 8.08277 23.6795 8.09357 23.9801C8.10437 24.2807 8.17708 24.5758 8.30715 24.847C8.43722 25.1182 8.62186 25.3596 8.8495 25.5562C9.04647 25.7832 9.28804 25.9673 9.55919 26.0969C9.83035 26.2266 10.1253 26.2991 10.4256 26.3098C10.726 26.3206 11.0254 26.2695 11.3051 26.1596C11.5849 26.0498 11.8391 25.8835 12.0518 25.6712C12.22 25.5035 12.3593 25.3091 12.4641 25.0959C12.6851 24.6399 12.9621 24.2131 13.2886 23.8256L17.258 27.8045L21.2417 23.8208C20.8552 23.4875 20.4284 23.204 19.9713 22.9771C19.7581 22.8723 19.5637 22.733 19.396 22.5648C19.1837 22.352 19.0175 22.0979 18.9076 21.8181C18.7977 21.5384 18.7466 21.239 18.7574 20.9386C18.7682 20.6382 18.8407 20.3433 18.9703 20.0722C19.1 19.801 19.2841 19.5594 19.5111 19.3625C19.708 19.1354 19.9496 18.9514 20.2208 18.8217C20.4919 18.6921 20.7869 18.6196 21.0872 18.6088C21.3876 18.598 21.687 18.6491 21.9667 18.759C22.2465 18.8689 22.5006 19.0351 22.7134 19.2474C22.8816 19.4151 23.0209 19.6095 23.1257 19.8227ZM48.2373 5.73369C48.4033 5.67014 48.581 5.64231 48.7585 5.652C48.9401 5.64202 49.1218 5.67013 49.2918 5.73453C49.4619 5.79892 49.6166 5.89818 49.7461 6.02593C49.8662 6.15414 49.9599 6.30486 50.0216 6.4694C50.0833 6.63395 50.1118 6.80908 50.1056 6.9847V18.8975C50.1056 20.5034 49.7221 21.7211 48.9647 22.5504C48.2008 23.3782 47.0599 23.8352 45.5418 23.9215L44.7556 23.9694C44.3478 24.0279 43.9322 23.9468 43.5763 23.7393C43.441 23.6458 43.332 23.5191 43.2598 23.3714C43.1876 23.2236 43.1547 23.0598 43.1641 22.8956C43.1641 22.2292 43.5332 21.8697 44.2667 21.817L45.0624 21.769C45.3927 21.7756 45.7207 21.7138 46.0259 21.5876C46.3312 21.4614 46.607 21.2734 46.8362 21.0356C47.2807 20.4157 47.4898 19.6576 47.4258 18.8975V6.9847C47.4161 6.80714 47.444 6.62953 47.5075 6.46345C47.571 6.29737 47.6689 6.14654 47.7946 6.0208C47.9204 5.89506 48.0712 5.79723 48.2373 5.73369ZM55.2927 5.62323C54.8631 5.59976 54.441 5.7422 54.1134 6.02112C53.9677 6.15613 53.8532 6.32129 53.7778 6.5051C53.7025 6.6889 53.6681 6.88692 53.6772 7.08536C53.6684 7.28519 53.7028 7.48458 53.778 7.6699C53.8533 7.85523 53.9677 8.02212 54.1134 8.15919C54.4475 8.42642 54.8625 8.57201 55.2903 8.57201C55.7181 8.57201 56.1332 8.42642 56.4672 8.15919C56.6129 8.02212 56.7273 7.85523 56.8026 7.6699C56.8779 7.48458 56.9123 7.28519 56.9035 7.08536C56.9119 6.8861 56.8764 6.68743 56.7993 6.50348C56.7223 6.31953 56.6056 6.15484 56.4576 6.02112C56.1323 5.74819 55.717 5.60632 55.2927 5.62323ZM54.3336 11.4047C54.6001 11.1785 54.9434 11.0635 55.2923 11.0835C55.6288 11.0695 55.958 11.1844 56.2128 11.4047C56.3376 11.5246 56.4346 11.6705 56.4967 11.832C56.5588 11.9936 56.5846 12.1668 56.5723 12.3395V22.7422C56.5848 22.9127 56.5591 23.0839 56.4969 23.2432C56.4346 23.4024 56.3376 23.5457 56.2128 23.6626C55.954 23.8744 55.6264 23.9837 55.2923 23.9694C54.9458 23.9896 54.604 23.8802 54.3336 23.6626C54.205 23.548 54.1045 23.4054 54.0397 23.2458C53.9748 23.0863 53.9475 22.914 53.9596 22.7422V12.3395C53.9474 12.1655 53.9747 11.9911 54.0394 11.8292C54.1042 11.6673 54.2047 11.5222 54.3336 11.4047ZM70.5374 11.0834C70.3674 11.0744 70.1974 11.099 70.037 11.1557C69.8766 11.2125 69.729 11.3003 69.6025 11.4142C69.4861 11.5316 69.3952 11.6719 69.3358 11.8262C69.2764 11.9805 69.2497 12.1455 69.2574 12.3107V13.3893C68.8921 12.6528 68.3121 12.0444 67.5939 11.6443C66.8225 11.2241 65.9554 11.011 65.0771 11.0259C64.0546 11.0084 63.0478 11.2792 62.172 11.8073C61.3169 12.337 60.6276 13.096 60.1826 13.9981C59.6897 15.0128 59.4449 16.1301 59.4683 17.2579C59.4452 18.3832 59.6866 19.4981 60.173 20.513C60.6096 21.4155 61.2992 22.1716 62.1577 22.6894C63.0414 23.2096 64.0518 23.4751 65.0771 23.4564C65.9726 23.4779 66.8576 23.2612 67.6419 22.8284C68.3554 22.4344 68.9285 21.8278 69.2814 21.093V23.0681C69.2814 25.4427 68.1021 26.63 65.7435 26.63C65.1037 26.6427 64.4655 26.5603 63.8499 26.3855C63.2619 26.2009 62.6883 25.9734 62.1337 25.7048C61.8133 25.5035 61.4538 25.3728 61.079 25.3212C60.9644 25.3209 60.8512 25.3462 60.7475 25.3951C60.6439 25.444 60.5524 25.5154 60.4798 25.6041C60.3118 25.8051 60.2247 26.0614 60.2353 26.3232C60.2353 26.8185 60.5549 27.2452 61.1941 27.6031C62.6136 28.3488 64.2034 28.7107 65.8058 28.653C67.7841 28.653 69.283 28.1736 70.3024 27.2148C71.3219 26.256 71.8301 24.8179 71.8269 22.9003V12.3394C71.8346 12.1721 71.8079 12.0049 71.7486 11.8483C71.6892 11.6916 71.5984 11.5488 71.4817 11.4286C71.3564 11.3093 71.2079 11.2172 71.0454 11.1578C70.883 11.0984 70.71 11.0731 70.5374 11.0834ZM68.3082 20.3068C67.9832 20.6747 67.5797 20.9648 67.1274 21.1557C66.6752 21.3465 66.1858 21.4332 65.6955 21.4094C65.2012 21.4318 64.708 21.3445 64.2514 21.1539C63.7947 20.9633 63.3859 20.674 63.0541 20.3068C62.3683 19.4442 62.0267 18.3579 62.0953 17.2579C62.0308 16.1585 62.3719 15.0736 63.0541 14.209C63.3874 13.8399 63.7986 13.5495 64.2579 13.3588C64.7172 13.1682 65.2132 13.0819 65.7099 13.1064C66.2033 13.0801 66.6961 13.167 67.1507 13.3607C67.6052 13.5543 68.0094 13.8494 68.3322 14.2234C69.0043 15.0877 69.3445 16.1643 69.2909 17.2579C69.3469 18.3602 68.9974 19.4448 68.3082 20.3068ZM80.4031 16.6443C81.3277 16.8149 82.2299 17.0899 83.0925 17.464C83.6587 17.7003 84.1436 18.0969 84.4875 18.605C84.7883 19.1288 84.9346 19.7272 84.9094 20.3308C84.9196 20.8585 84.7973 21.3803 84.5536 21.8485C84.3098 22.3167 83.9525 22.7162 83.5144 23.0105C82.4086 23.731 81.1027 24.0818 79.7847 24.0125C78.2856 24.0749 76.8004 23.7019 75.5086 22.9386C75.2497 22.7917 75.0257 22.5905 74.8518 22.349C74.7245 22.1396 74.6581 21.8989 74.6601 21.6539C74.6545 21.4041 74.7358 21.1601 74.8902 20.9636C74.9604 20.8746 75.05 20.8028 75.1522 20.7538C75.2544 20.7048 75.3665 20.6798 75.4798 20.6807C75.8579 20.7371 76.2184 20.878 76.5345 21.093C77.0177 21.3501 77.5192 21.5712 78.035 21.7545C78.6275 21.9384 79.246 22.0242 79.8662 22.0086C80.5336 22.045 81.1978 21.8939 81.7838 21.5724C82.0048 21.4536 82.1888 21.2762 82.3156 21.0597C82.4425 20.8432 82.5072 20.596 82.5029 20.3451C82.5182 20.048 82.4225 19.7559 82.2344 19.5254C81.964 19.2669 81.635 19.0777 81.2756 18.9741C80.6288 18.7578 79.9691 18.5817 79.3005 18.4468C77.7985 18.124 76.7182 17.6845 76.0599 17.1285C75.7337 16.8504 75.4753 16.5017 75.3041 16.1088C75.133 15.7159 75.0537 15.2891 75.0723 14.8609C75.0685 14.1454 75.2992 13.4483 75.7291 12.8763C76.1794 12.2652 76.79 11.7907 77.4932 11.5052C78.3061 11.1708 79.1792 11.0076 80.058 11.0258C80.7359 11.0204 81.4114 11.1058 82.0666 11.2799C82.6775 11.445 83.2572 11.709 83.7828 12.0613C84.0232 12.1897 84.2268 12.3772 84.3745 12.6062C84.5221 12.8352 84.6089 13.0981 84.6265 13.3701C84.6332 13.6216 84.548 13.867 84.3868 14.0604C84.3174 14.1478 84.2293 14.2186 84.1289 14.2676C84.0285 14.3165 83.9185 14.3424 83.8068 14.3432C83.6416 14.3448 83.478 14.3104 83.3274 14.2425C83.1173 14.1411 82.9125 14.0291 82.7138 13.907C82.3013 13.6579 81.8683 13.4446 81.4194 13.2694C80.9378 13.1007 80.429 13.0227 79.919 13.0393C79.306 13.0126 78.7003 13.1804 78.1884 13.5187C77.9806 13.6541 77.8114 13.8409 77.6972 14.0609C77.583 14.281 77.5276 14.5269 77.5364 14.7747C77.5301 14.9968 77.5827 15.2167 77.6887 15.412C77.7948 15.6073 77.9506 15.7711 78.1404 15.8868C78.8485 16.2607 79.6127 16.5165 80.4031 16.6443ZM93.7778 21.9991L93.0587 21.9463C92.4863 21.9435 91.9382 21.7143 91.5342 21.3088C91.1665 20.7962 90.9962 20.168 91.0548 19.5398V13.3365H93.5908C93.8904 13.355 94.1865 13.2648 94.4249 13.0825C94.5242 12.9869 94.6017 12.8711 94.6522 12.7428C94.7026 12.6146 94.7249 12.477 94.7174 12.3394C94.7235 12.2034 94.7006 12.0676 94.6502 11.9412C94.5997 11.8147 94.523 11.7004 94.4249 11.606C94.1905 11.4148 93.8927 11.319 93.5908 11.3375H91.0357V8.70086C91.0447 8.52997 91.0173 8.35912 90.9553 8.19962C90.8933 8.04011 90.7982 7.8956 90.6761 7.77564C90.4118 7.54469 90.0678 7.42601 89.7173 7.44486C89.5474 7.43585 89.3774 7.46043 89.217 7.51718C89.0566 7.57394 88.909 7.66177 88.7825 7.77564C88.6643 7.89772 88.5726 8.04293 88.5132 8.20216C88.4538 8.36138 88.428 8.53118 88.4374 8.70086V11.3375H86.8985C86.5966 11.319 86.2988 11.4148 86.0644 11.606C85.9664 11.7004 85.8896 11.8147 85.8392 11.9412C85.7888 12.0676 85.7659 12.2034 85.772 12.3394C85.772 13.0058 86.1459 13.3365 86.8985 13.3365H88.4374V19.3577C88.4374 20.8086 88.7793 21.9064 89.4633 22.651C90.144 23.3941 91.1795 23.816 92.5601 23.9214L93.2552 23.9694C93.6567 24.0281 94.0663 23.9523 94.4201 23.7536C94.5485 23.669 94.6527 23.5525 94.7224 23.4156C94.7922 23.2786 94.8251 23.1258 94.818 22.9722C94.8256 22.8481 94.8079 22.7237 94.7658 22.6067C94.7238 22.4897 94.6584 22.3824 94.5735 22.2915C94.3481 22.1084 94.0681 22.0056 93.7778 21.9991ZM99.6166 11.3232C100.38 11.131 101.164 11.0312 101.951 11.0259C103.605 11.0259 104.837 11.4094 105.652 12.2675C106.467 13.1256 106.87 14.396 106.87 16.1026V22.7422C106.88 22.9086 106.856 23.0753 106.799 23.2321C106.742 23.3888 106.654 23.5321 106.539 23.653C106.283 23.8749 105.952 23.9884 105.614 23.9694C105.448 23.984 105.281 23.9621 105.125 23.9054C104.969 23.8487 104.826 23.7585 104.709 23.6412C104.591 23.5238 104.5 23.3821 104.443 23.226C104.385 23.0699 104.363 22.9031 104.377 22.7374V21.7786C104.08 22.4653 103.578 23.0431 102.939 23.4325C102.257 23.8251 101.481 24.0241 100.695 24.0077C99.9159 24.0216 99.1437 23.8576 98.4373 23.5284C97.7851 23.2177 97.2311 22.7334 96.8361 22.1285C96.453 21.5346 96.253 20.8411 96.2609 20.1343C96.2158 19.3551 96.4676 18.5877 96.9656 17.9866C97.6078 17.3801 98.4245 16.991 99.3002 16.8745C100.775 16.6205 102.271 16.5081 103.768 16.5389H104.358V15.8198C104.44 15.0751 104.241 14.3266 103.802 13.7201C103.545 13.4841 103.242 13.3052 102.911 13.1952C102.581 13.0853 102.231 13.0469 101.884 13.0825C101.312 13.0787 100.742 13.1561 100.192 13.3126C99.5881 13.4887 98.9984 13.7099 98.4277 13.9742C98.1379 14.1666 97.8115 14.2972 97.4689 14.3577C97.349 14.361 97.2298 14.3372 97.1203 14.2883C97.0108 14.2393 96.9137 14.1664 96.8361 14.0748C96.6715 13.8722 96.5863 13.6166 96.5964 13.3558C96.593 13.113 96.6687 12.8757 96.8121 12.6798C97.0053 12.442 97.2451 12.2462 97.5168 12.1046C98.1804 11.7552 98.8861 11.4926 99.6166 11.3232ZM103.452 21.1362C104.063 20.4607 104.384 19.5727 104.348 18.6626L104.386 17.9962H103.907C102.88 17.976 101.852 18.0353 100.834 18.1736C100.275 18.2272 99.7418 18.4364 99.2954 18.7776C99.133 18.9345 99.0061 19.1243 98.9234 19.3344C98.8407 19.5445 98.8041 19.7698 98.816 19.9953C98.8076 20.2807 98.8631 20.5644 98.9784 20.8257C99.0937 21.0869 99.2658 21.3191 99.4823 21.5053C99.9417 21.9063 100.537 22.1172 101.146 22.095C101.576 22.1092 102.005 22.0309 102.403 21.8655C102.8 21.7001 103.158 21.4515 103.452 21.1362ZM119.655 20.6664C119.477 20.6728 119.302 20.7169 119.142 20.7958C118.949 20.885 118.761 20.9875 118.581 21.1026C118.2 21.3428 117.797 21.5482 117.378 21.7162C116.943 21.8769 116.481 21.9549 116.017 21.9463C115.511 21.9755 115.005 21.8877 114.539 21.6899C114.072 21.492 113.658 21.1893 113.327 20.8054C112.695 20.048 112.369 18.9645 112.369 17.5647C112.297 16.3935 112.636 15.2339 113.327 14.2857C113.655 13.8919 114.07 13.5802 114.539 13.3754C115.009 13.1706 115.52 13.0785 116.031 13.1064C116.481 13.0949 116.928 13.1698 117.349 13.3269C117.765 13.4979 118.163 13.7082 118.538 13.9549C118.729 14.0798 118.926 14.195 119.128 14.3001C119.276 14.3763 119.441 14.4158 119.607 14.4152C119.721 14.4159 119.834 14.3894 119.936 14.3377C120.038 14.2859 120.126 14.2106 120.192 14.1179C120.354 13.9103 120.437 13.6522 120.427 13.3893C120.412 13.1197 120.329 12.8584 120.185 12.6295C120.042 12.4007 119.843 12.2119 119.607 12.0805C119.06 11.7425 118.468 11.4842 117.848 11.3135C117.212 11.1288 116.554 11.0336 115.892 11.0307C114.759 11.008 113.642 11.2912 112.656 11.8504C111.721 12.3945 110.961 13.1946 110.465 14.1563C109.927 15.219 109.659 16.3978 109.684 17.5887C109.659 18.7615 109.919 19.9227 110.441 20.9732C110.915 21.9148 111.653 22.6979 112.565 23.2263C113.539 23.7728 114.642 24.0476 115.758 24.0221C116.459 24.0209 117.157 23.9258 117.834 23.7392C118.469 23.5725 119.075 23.3055 119.627 22.9483C119.881 22.791 120.102 22.5859 120.278 22.3442C120.41 22.1354 120.476 21.8923 120.47 21.6457C120.463 21.3991 120.383 21.16 120.24 20.9588C120.173 20.867 120.085 20.7926 119.983 20.7417C119.881 20.6909 119.769 20.665 119.655 20.6664ZM128.246 17.3873L133.27 21.8169H133.289C133.421 21.9225 133.531 22.0545 133.609 22.2045C133.688 22.3545 133.735 22.5193 133.747 22.6883C133.758 22.8574 133.735 23.027 133.677 23.1865C133.62 23.3459 133.53 23.4917 133.414 23.6146C133.315 23.7266 133.193 23.8162 133.056 23.8774C132.92 23.9386 132.772 23.9699 132.623 23.9693C132.297 23.9682 131.984 23.8411 131.75 23.6146L125.369 17.977V22.7277C125.384 22.9042 125.36 23.0818 125.298 23.2476C125.235 23.4134 125.137 23.5634 125.01 23.6865C124.753 23.9034 124.425 24.0163 124.089 24.0029C123.741 24.0223 123.399 23.9092 123.131 23.6865C122.999 23.5658 122.897 23.4166 122.833 23.2504C122.768 23.0843 122.742 22.9055 122.757 22.7277V6.90792C122.742 6.73021 122.768 6.55152 122.833 6.3854C122.898 6.21928 123 6.07009 123.131 5.94915C123.399 5.72642 123.741 5.61339 124.089 5.63275C124.425 5.61935 124.753 5.73225 125.01 5.94915C125.137 6.07248 125.235 6.22242 125.297 6.3882C125.359 6.55398 125.384 6.73148 125.369 6.90792V16.9511L131.194 11.4909C131.419 11.264 131.719 11.1276 132.038 11.1074C132.356 11.1111 132.66 11.2391 132.884 11.4639C133.109 11.6888 133.237 11.9927 133.241 12.3106C133.237 12.4821 133.196 12.6506 133.121 12.8051C133.047 12.9597 132.941 13.0966 132.81 13.2071L128.246 17.3873Z" fill="white"/>
<path d="M17.258 0C13.8447 0 10.508 1.01216 7.66996 2.90849C4.8319 4.80482 2.6199 7.50014 1.31369 10.6536C0.00747763 13.8071 -0.334287 17.2771 0.331614 20.6248C0.997516 23.9725 2.64118 27.0476 5.05475 29.4612C7.46831 31.8747 10.5434 33.5184 13.8911 34.1843C17.2388 34.8502 20.7088 34.5084 23.8623 33.2022C27.0158 31.896 29.7111 29.684 31.6074 26.846C33.5038 24.0079 34.5159 20.6713 34.5159 17.258C34.5159 12.6809 32.6977 8.29123 29.4612 5.05474C26.2247 1.81824 21.8351 0 17.258 0ZM23.9694 21.0931C23.635 20.7074 23.3515 20.2804 23.1257 19.8227C23.0209 19.6095 22.8816 19.4151 22.7134 19.2474C22.5006 19.0351 22.2465 18.8689 21.9667 18.759C21.687 18.6491 21.3876 18.598 21.0872 18.6088C20.7869 18.6196 20.4919 18.6921 20.2208 18.8217C19.9496 18.9514 19.708 19.1354 19.5111 19.3625C19.2841 19.5594 19.1 19.801 18.9703 20.0722C18.8407 20.3433 18.7682 20.6382 18.7574 20.9386C18.7466 21.239 18.7977 21.5384 18.9076 21.8181C19.0175 22.0979 19.1837 22.352 19.396 22.5648C19.5637 22.733 19.7581 22.8723 19.9713 22.9771C20.4284 23.204 20.8552 23.4875 21.2417 23.8208L17.258 27.8045L13.2886 23.8256C12.9621 24.2131 12.6851 24.6399 12.4641 25.0959C12.3593 25.3091 12.22 25.5035 12.0518 25.6712C11.8391 25.8835 11.5849 26.0498 11.3051 26.1596C11.0254 26.2695 10.726 26.3206 10.4256 26.3098C10.1253 26.2991 9.83035 26.2266 9.55919 26.0969C9.28804 25.9673 9.04647 25.7832 8.8495 25.5562C8.62186 25.3596 8.43722 25.1182 8.30715 24.847C8.17708 24.5758 8.10437 24.2807 8.09357 23.9801C8.08277 23.6795 8.13412 23.3799 8.24439 23.1001C8.35466 22.8203 8.5215 22.5662 8.73445 22.3538C8.90344 22.1872 9.09756 22.048 9.30971 21.9416C9.75711 21.7137 10.1729 21.4284 10.5465 21.0931L6.57721 17.1189L10.5465 13.1592C10.8798 13.5457 11.1633 13.9725 11.3903 14.4296C11.4938 14.6435 11.6333 14.838 11.8025 15.0048C12.0153 15.2171 12.2694 15.3834 12.5492 15.4933C12.829 15.6031 13.1283 15.6543 13.4287 15.6435C13.7291 15.6327 14.024 15.5602 14.2951 15.4305C14.5663 15.3009 14.8079 15.1168 15.0048 14.8898C15.2325 14.6932 15.4171 14.4518 15.5472 14.1806C15.6773 13.9094 15.75 13.6143 15.7608 13.3137C15.7716 13.0131 15.7202 12.7136 15.61 12.4338C15.4997 12.1539 15.3328 11.8999 15.1199 11.6875C14.9509 11.5208 14.7568 11.3817 14.5446 11.2752C14.0856 11.0516 13.6584 10.7678 13.2743 10.4315L17.258 6.46215L21.2273 10.4315C21.556 10.0455 21.8331 9.61845 22.0518 9.1611C22.1578 8.94865 22.297 8.75446 22.4641 8.58583C22.6769 8.37353 22.931 8.20727 23.2108 8.0974C23.4905 7.98754 23.7899 7.93641 24.0903 7.9472C24.3906 7.95799 24.6856 8.03047 24.9567 8.16013C25.2279 8.28979 25.4695 8.47386 25.6664 8.70089C25.8934 8.89785 26.0775 9.13943 26.2072 9.41058C26.3368 9.68173 26.4093 9.97666 26.4201 10.277C26.4309 10.5774 26.3798 10.8768 26.2699 11.1565C26.16 11.4363 25.9938 11.6904 25.7815 11.9032C25.6138 12.0714 25.4194 12.2107 25.2062 12.3155C24.7608 12.5448 24.3454 12.8282 23.9694 13.1592L27.9387 17.1285L23.9694 21.0931Z" fill="white"/>
</svg>