<svg width="120" height="121" viewBox="0 0 120 121" fill="none" xmlns="http://www.w3.org/2000/svg">
<path d="M90.6275 52.9329L74.263 69.101L60.0033 83.192L45.7435 69.101L29.3676 52.9329L13.9386 66.6745C13.9386 66.6745 13.9386 66.6745 13.9528 66.6745L14.6858 67.4157H14.7L45.3443 97.7001L59.9976 83.2314L74.6509 97.7001L105.295 67.4269L106.042 66.6998H106.057L90.6275 52.9329Z" fill="white"/>
<path d="M14.6689 67.4447C12.7426 65.5411 11.2145 63.2813 10.172 60.7942C9.12944 58.307 8.59285 55.6413 8.59285 52.9493C8.59285 50.2572 9.12944 47.5916 10.172 45.1044C11.2145 42.6173 12.7426 40.3574 14.6689 38.4539L29.9954 23.3088L44.6644 37.8042L14.6689 67.4447Z" fill="url(#paint0_linear_544_7573)"/>
<path d="M75.3214 37.7953L89.9904 23.2999L105.331 38.4589C107.257 40.3625 108.785 42.6224 109.828 45.1095C110.87 47.5966 111.407 50.2623 111.407 52.9544C111.407 55.6464 110.87 58.3121 109.828 60.7992C108.785 63.2863 107.257 65.5462 105.331 67.4498L75.3214 37.7953Z" fill="url(#paint1_linear_544_7573)"/>
<defs>
<linearGradient id="paint0_linear_544_7573" x1="7.33445" y1="60.197" x2="36.9728" y2="30.2037" gradientUnits="userSpaceOnUse">
<stop stop-color="white" stop-opacity="0.5"/>
<stop offset="1" stop-color="white" stop-opacity="0.7"/>
</linearGradient>
<linearGradient id="paint1_linear_544_7573" x1="82.6559" y1="30.5476" x2="112.308" y2="60.555" gradientUnits="userSpaceOnUse">
<stop stop-color="white" stop-opacity="0.7"/>
<stop offset="1" stop-color="white" stop-opacity="0.5"/>
</linearGradient>
</defs>
</svg>
