<svg width="20" height="20" viewBox="0 0 20 20" fill="none" xmlns="http://www.w3.org/2000/svg">
<path opacity="0.2" d="M18.3332 9.99984C18.3332 14.6032 14.6023 18.3332 9.99984 18.3332C5.39734 18.3332 1.6665 14.6032 1.6665 9.99984C1.6665 5.39817 5.39734 1.6665 9.99984 1.6665C14.6023 1.6665 18.3332 5.39817 18.3332 9.99984" fill="#FFA877"/>
<path fill-rule="evenodd" clip-rule="evenodd" d="M10.7249 10.5258C10.7249 10.9274 10.3974 11.2549 9.99577 11.2549C9.5941 11.2549 9.2666 10.9274 9.2666 10.5258V6.84245C9.2666 6.44078 9.5941 6.11328 9.99577 6.11328C10.3974 6.11328 10.7249 6.44078 10.7249 6.84245V10.5258ZM9.27076 13.1698C9.27076 12.7681 9.5966 12.4406 9.99576 12.4406C10.4066 12.4406 10.7333 12.7681 10.7333 13.1698C10.7333 13.5714 10.4066 13.8989 10.0041 13.8989C9.59993 13.8989 9.27076 13.5714 9.27076 13.1698Z" fill="#FFA877"/>
</svg>
