<svg width="10" height="17" viewBox="0 0 10 17" fill="none" xmlns="http://www.w3.org/2000/svg">
<path fill-rule="evenodd" clip-rule="evenodd" d="M8.8521 9.5816C9.11571 9.84815 9.11571 10.2803 8.8521 10.5468L5.4771 13.9595C5.2135 14.226 4.78611 14.226 4.52251 13.9595L1.14751 10.5468C0.883904 10.2803 0.883904 9.84815 1.14751 9.5816C1.41111 9.31506 1.8385 9.31506 2.1021 9.5816L4.3248 11.8291L4.3248 1.53263C4.3248 1.15568 4.62701 0.850098 4.9998 0.850098C5.3726 0.850098 5.6748 1.15568 5.6748 1.53263L5.6748 11.8291L7.89751 9.5816C8.16111 9.31506 8.5885 9.31506 8.8521 9.5816Z" fill="#5957D5"/>
<rect x="9.0498" y="14.7852" width="1.36506" height="8.1" rx="0.682528" transform="rotate(90 9.0498 14.7852)" fill="#5957D5"/>
</svg>
