<svg width="17" height="10" viewBox="0 0 17 10" fill="none" xmlns="http://www.w3.org/2000/svg">
<path fill-rule="evenodd" clip-rule="evenodd" d="M9.53559 1.14765C9.7992 0.88405 10.2266 0.88405 10.4902 1.14765L13.8652 4.52265C14.1288 4.78626 14.1288 5.21364 13.8652 5.47725L10.4902 8.85225C10.2266 9.11585 9.7992 9.11585 9.53559 8.85225C9.27199 8.58864 9.27199 8.16126 9.53559 7.89765L11.7583 5.67495H1.57539C1.2026 5.67495 0.900391 5.37274 0.900391 4.99995C0.900391 4.62716 1.2026 4.32495 1.57539 4.32495H11.7583L9.53559 2.10225C9.27199 1.83864 9.27199 1.41126 9.53559 1.14765Z" fill="#5957D5"/>
<rect x="14.6816" y="0.949951" width="1.35" height="8.1" rx="0.675" fill="#5957D5"/>
</svg>
