<svg width="18" height="19" viewBox="0 0 18 19" fill="none" xmlns="http://www.w3.org/2000/svg">
<path fill-rule="evenodd" clip-rule="evenodd" d="M16.5084 11.5539C16.772 11.8175 16.772 12.2449 16.5084 12.5085L13.1334 15.8835C12.8697 16.1471 12.4424 16.1471 12.1788 15.8835L8.80376 12.5085C8.54015 12.2449 8.54015 11.8175 8.80376 11.5539C9.06736 11.2903 9.49475 11.2903 9.75835 11.5539L11.9811 13.7766L11.9811 3.5937C11.9811 3.22091 12.2833 2.9187 12.6561 2.9187C13.0288 2.9187 13.3311 3.22091 13.3311 3.5937L13.3311 13.7766L15.5538 11.5539C15.8174 11.2903 16.2447 11.2903 16.5084 11.5539ZM9.19585 7.446C8.93225 7.7096 8.50486 7.7096 8.24126 7.446L6.01855 5.22329L6.01855 15.4062C6.01855 15.779 5.71635 16.0812 5.34355 16.0812C4.97076 16.0812 4.66855 15.779 4.66855 15.4062L4.66855 5.22329L2.44585 7.446C2.18225 7.7096 1.75486 7.7096 1.49126 7.446C1.22765 7.18239 1.22765 6.75501 1.49126 6.4914L4.86626 3.1164C5.12986 2.8528 5.55725 2.8528 5.82085 3.1164L9.19585 6.4914C9.45946 6.75501 9.45946 7.18239 9.19585 7.446Z" fill="#5957D5"/>
</svg>
