<svg width="18" height="18" viewBox="0 0 18 18" fill="none" xmlns="http://www.w3.org/2000/svg">
<path d="M3.12328 12.2617C2.97928 12.2617 2.83556 12.2068 2.72559 12.0968C2.50594 11.8772 2.50594 11.5211 2.72559 11.3015L11.5158 2.51128C11.7352 2.29163 12.0915 2.29163 12.3112 2.51128C12.5308 2.73094 12.5308 3.087 12.3112 3.30666L3.52097 12.0968C3.41128 12.2065 3.26728 12.2617 3.12328 12.2617Z" fill="#C8C8C8"/>
<path d="M2.25477 16.3125C2.21568 16.3125 2.17602 16.3083 2.13637 16.2998C1.83262 16.2346 1.63912 15.9356 1.70437 15.6319L2.57343 11.581C2.63868 11.2773 2.93905 11.0843 3.2414 11.149C3.54515 11.2143 3.73865 11.5132 3.6734 11.817L2.80433 15.8678C2.7478 16.1319 2.51437 16.3125 2.25477 16.3125Z" fill="#C8C8C8"/>
<path d="M6.30504 15.4434C6.16104 15.4434 6.01733 15.3886 5.90736 15.2786C5.6877 15.059 5.6877 14.7029 5.90736 14.4832L14.6976 5.69334C14.9169 5.47368 15.2733 5.47368 15.4929 5.69334C15.7126 5.91299 15.7126 6.26906 15.4929 6.48871L6.70301 15.2786C6.59305 15.3886 6.44904 15.4434 6.30504 15.4434Z" fill="#C8C8C8"/>
<path d="M2.25366 16.3125C1.99407 16.3125 1.76091 16.1319 1.7041 15.8678C1.63913 15.5641 1.83235 15.2651 2.1361 15.1999L6.18695 14.3308C6.49098 14.2664 6.78995 14.4593 6.85492 14.7628C6.91988 15.0666 6.72667 15.3655 6.42292 15.4308L2.37207 16.2998C2.33241 16.3086 2.29276 16.3125 2.25366 16.3125Z" fill="#C8C8C8"/>
<path d="M13.5042 8.24429C13.3602 8.24429 13.2162 8.18944 13.1065 8.07947L9.92475 4.89769C9.7051 4.67804 9.7051 4.32197 9.92475 4.10232C10.1441 3.88266 10.5008 3.88266 10.7201 4.10232L13.9019 7.2841C14.1216 7.50376 14.1216 7.85982 13.9019 8.07947C13.7922 8.18944 13.6482 8.24429 13.5042 8.24429Z" fill="#C8C8C8"/>
<path d="M15.0952 6.65353C14.9512 6.65353 14.8072 6.59868 14.6973 6.48871C14.4776 6.26906 14.4776 5.91299 14.6973 5.69306C15.0103 5.38003 15.1827 4.95618 15.1827 4.49999C15.1827 4.04381 15.0103 3.61996 14.6973 3.30693C14.384 2.99362 13.9601 2.82121 13.5039 2.82121C13.0477 2.82121 12.6239 2.99362 12.3109 3.30693C12.0915 3.52659 11.7354 3.52687 11.5152 3.30693C11.2955 3.08728 11.2955 2.73121 11.5152 2.51128C12.0406 1.98562 12.7468 1.69621 13.5039 1.69621C14.2608 1.69621 14.9673 1.98562 15.4926 2.51128C16.0183 3.03665 16.3077 3.74287 16.3077 4.49999C16.3077 5.25712 16.0183 5.96334 15.4926 6.48871C15.3832 6.5984 15.2392 6.65353 15.0952 6.65353Z" fill="#C8C8C8"/>
</svg>
